<?xml version="1.0" encoding="UTF-8"?>
<svg xmlns="http://www.w3.org/2000/svg" xmlns:xlink="http://www.w3.org/1999/xlink" version="1.2" >
<font id="Captain Howdy">
<font-face  font-family="Captain Howdy" units-per-em="1000" ascent="1000" descent="-200" font-style="normal" font-weight="400" font-stretch="normal" cap-height="750" x-height="500" underline-position="-133" underline-thickness="20" />
<missing-glyph  horiz-adv-x="500" d="M63 0 L63 1000 L438 1000 L438 0 L63 0 Z M125 63 L375 63 L375 938 L125 938 L125 63 Z " />
<glyph glyph-name="space" unicode="&#x20;" horiz-adv-x="387" d="" />
<glyph glyph-name="exclam" unicode="&#x21;" horiz-adv-x="386" d="M359 662 Q298 650 293 585 L231 245 L184 246 L121 566 Q105 659 51 656 L50 726 Q66 731 88 731 Q158 731 196 679 Q242 731 334 731 Q346 731 359 730 L359 662 Z M309 90 Q309 49 280 20 Q251 -9 209 -9 Q168 -9 139 20 Q110 49 110 90 Q110 131 139 160 Q168 189 209 189 Q251 189 280 160 Q309 131 309 90 Z M203 329 L193 574 Q192 596 175 621.5 Q158 647 136 651 Q159 634 170 554 L203 329 Z M217 156 Q162 159 147 98 Q146 90 146 83 Q146 50 180 31 Q164 45 164 69 Q164 81 168 92 Q185 142 217 156 Z " />
<glyph glyph-name="quotedbl" unicode="&#x22;" horiz-adv-x="352" d="M147 753 L127 543 L45 543 L25 753 L147 753 Z M81 564 L74 732 L57 732 L70 564 L81 564 Z M327 753 L307 543 L225 543 L205 753 L327 753 Z M261 564 L254 732 L237 732 L250 564 L261 564 Z " />
<glyph glyph-name="dollar" unicode="&#x24;" horiz-adv-x="510" d="M493 245 Q493 175 425 128 Q367 88 286 77 L286 4 L225 4 L225 75 Q147 80 91 107 Q16 143 16 209 Q15 239 36 261.5 Q57 284 87 284 Q113 284 137 263.5 Q161 243 161 217 Q161 191 129 169 Q138 157 172 148 Q200 141 222 141 Q270 141 304 161 Q345 185 345 230 Q345 301 245 307 Q27 321 27 461 Q27 521 95 560 Q150 592 225 600 L225 671 L286 671 L286 600 Q362 594 413 569 Q481 534 481 472 Q481 442 462.5 422 Q444 402 414 402 Q388 402 367 420 Q346 438 346 463 Q346 490 377 512 Q342 536 275 536 Q236 536 199 514 Q157 489 157 452 Q157 404 239 382 Q287 370 342 370 Q402 369 445 337 Q493 301 493 245 Z M408 241 Q408 267 390 288 Q377 303 337 331 Q384 279 384 234 Q384 200 352 150 Q408 183 408 241 Z M135 357 Q88 409 88 454 Q88 488 119 539 Q64 505 64 447 Q64 421 82 400 Q95 385 135 357 Z " />
<glyph glyph-name="ampersand" unicode="&#x26;" horiz-adv-x="797" d="M641 -27 Q577 -27 516 36 Q432 -9 338 -9 Q202 -9 110 49 Q7 115 7 229 Q7 311 70 379 Q117 430 181 458 L138 512 Q123 538 123 568 Q123 634 186.5 688 Q250 742 331 739 Q409 737 462 699 Q503 669 524 623 Q540 588 537 570 Q536 550 535 530 Q532 498 514 471 Q490 433 440 399 L588 220 Q638 285 665 363 L745 332 Q708 225 649 150 Q687 101 718 101 Q739 101 747 128 Q758 100 758 73 Q758 31 721 2 Q684 -27 641 -27 Z M407.5 573 Q413 592 413 608 Q413 669 338 680 Q266 670 266 631 Q266 612 286 587 L350 508 Q375 528 383 536 Q402 554 407.5 573 Z M606 43 Q584 52 545 102 L244 486 Q195 549 198 578 Q191 567 191 552 Q191 520 217 486 L509 113 Q526 91 553 70 Q584 46 606 43 Z M458 106 L290 320 Q230 280 226 233 Q224 220 224 209 Q224 131 328 91 Q349 83 373 83 Q413 83 458 106 Z M155 94 Q101 159 99 228 Q98 305 134 361 Q74 307 74 213 Q74 182 100.5 142.5 Q127 103 155 94 Z " />
<glyph glyph-name="quotesingle" unicode="&#x27;" horiz-adv-x="172" d="M147 753 L127 543 L45 543 L25 753 L147 753 Z M81 564 L74 732 L57 732 L70 564 L81 564 Z " />
<glyph glyph-name="parenleft" unicode="&#x28;" horiz-adv-x="286" d="M307 -88 Q158 -77 89 71 Q60 132 50 216 Q43 271 43 359 Q43 450 50 506 Q60 590 89 651 Q158 799 307 810 Q184 718 185 511 Q169 344 185 211 Q185 30 307 -88 Z M175 711 Q93 641 96 464 L96 242 Q96 92 162 26 Q134 63 123 162 Q104 330 121 535 Q130 647 175 711 Z " />
<glyph glyph-name="parenright" unicode="&#x29;" horiz-adv-x="282" d="M289 216 Q279 132 250 71 Q182 -77 32 -88 Q155 4 154 211 Q170 378 154 511 Q154 693 32 810 Q182 799 250 651 Q279 590 289 506 Q296 451 296 364 Q296 272 289 216 Z M244 480 Q244 630 177 696 Q205 660 216 560 Q235 392 218 187 Q209 75 164 11 Q247 81 243 258 L244 480 Z " />
<glyph glyph-name="asterisk" unicode="&#x2a;" horiz-adv-x="589" d="M560 431 Q564 408 564 393 Q564 356 530 317 L360 380 L391 298 Q419 225 421 215 Q390 174 348 174 Q326 174 307 185 L277 364 L159 221 Q128 222 103.5 245.5 Q79 269 76 305 L213 418 L38 447 Q28 469 28 490 Q28 539 68 561 L239 498 L176 668 Q215 707 249 707 Q267 707 290 698 L321 515 L439 658 Q480 651 498 636 Q522 617 523 575 L385 461 L560 431 Z M462 617 L453 627 L346 502 L351 496 L462 617 Z M542 405 L380 435 L378 428 L539 392 L542 405 Z M271 513 L222 669 L210 666 L264 511 L271 513 Z M358 455 L316 497 L255 481 L240 425 L279 385 L344 403 L358 455 Z M225 475 L70 530 L67 517 L224 468 L225 475 Z M348 207 L313 367 L305 365 L336 203 L348 207 Z M234 390 L229 395 L104 288 L113 278 L234 390 Z " />
<glyph glyph-name="comma" unicode="&#x2c;" horiz-adv-x="319" d="M249 90 Q250 34 213 -20 Q168 -86 87 -111 Q125 -68 138 -8 Q57 -7 50 90 Q50 131 79 160 Q108 189 149 189 Q190 189 218.5 160 Q247 131 249 90 Z M157 156 Q130 158 110.5 142 Q91 126 87 98 Q86 90 86 83 Q86 50 119 31 Q104 45 104 69 Q104 81 108 92 Q125 142 157 156 Z " />
<glyph glyph-name="&amp;#x2d;" unicode="&#x2d;" horiz-adv-x="307" d="M268 290 L30 226 L30 387 L268 450 L268 290 Z M227 387 L227 408 L57 362 L57 341 L227 387 Z " />
<glyph glyph-name="&amp;#x2010;" unicode="&#x2010;" horiz-adv-x="307" d="M268 290 L30 226 L30 387 L268 450 L268 290 Z M227 387 L227 408 L57 362 L57 341 L227 387 Z " />
<glyph glyph-name="period" unicode="&#x2e;" horiz-adv-x="319" d="M249 90 Q249 49 219.5 20 Q190 -9 149 -9 Q108 -9 79 20 Q50 49 50 90 Q50 131 79 160 Q108 189 149 189 Q190 189 219.5 160 Q249 131 249 90 Z M157 156 Q102 159 87 98 Q86 90 86 83 Q86 50 119 31 Q104 45 104 69 Q104 81 108 92 Q125 142 157 156 Z " />
<glyph glyph-name="slash" unicode="&#x2f;" horiz-adv-x="364" d="M390 716 L108 -58 L10 -23 L292 751 L390 716 Z M316 720 L303 724 L38 -4 L51 -8 L316 720 Z " />
<glyph glyph-name="zero" unicode="0" horiz-adv-x="649" d="M631 342 Q631 209 550 108 Q463 1 333 1 Q203 1 116 108 Q35 209 35 342 Q35 475 116 575 Q203 683 333 683 Q463 683 550 575 Q631 475 631 342 Z M515 332 Q515 401 491.5 477.5 Q468 554 428 608 Q450 590 469 485 Q484 397 484 347 Q484 194 432 88 Q515 199 515 332 Z M418 524 Q418 555 391 579.5 Q364 604 333 604 Q299 604 273.5 580.5 Q248 557 248 524 L248 170 Q248 136 273.5 112.5 Q299 89 333 89 Q367 89 392.5 112.5 Q418 136 418 170 L418 524 Z M199 83 Q159 139 135.5 217 Q112 295 112 365 Q112 489 181 594 Q138 550 112.5 481.5 Q87 413 87 350 Q87 211 199 83 Z " />
<glyph glyph-name="one" unicode="1" horiz-adv-x="388" d="M385 85 L354 -6 L347 -6 Q276 -9 217 56 Q195 27 159.5 9 Q124 -9 90 -7 L73 -6 L38 84 Q76 87 103 106 Q135 128 135 163 L136 534 Q136 550 127 565 Q118 580 102 580 Q91 580 75 571 L73 661 Q106 679 149 679 Q200 679 241 647 Q279 662 286 662 Q307 662 307 643 L307 163 Q307 92 385 85 Z M196 477 Q196 505 187 538 Q178 576 162 592 Q175 571 175 508 L175 208 Q175 128 155 107 Q196 120 196 191 L196 477 Z " />
<glyph glyph-name="two" unicode="2" horiz-adv-x="535" d="M516 123 Q516 66 484.5 32.5 Q453 -1 397 -1 Q366 -1 307 15.5 Q248 32 215 32 Q180 32 121.5 12.5 Q63 -7 56 -7 Q35 -7 35 35 Q35 119 70 196 Q108 280 174 319 Q249 364 280 393 Q336 445 336 502 Q336 602 254 602 Q207 602 179 547 Q221 515 221 479 Q221 445 194.5 423 Q168 401 134 401 Q34 401 34 513 Q34 586 115 634 Q184 675 263 675 Q359 675 423 628 Q494 576 494 483 Q494 403 438 340 Q403 299 305 259.5 Q207 220 157 167 Q197 174 234 174 Q272 174 324 157.5 Q376 141 400 141 Q455 141 467 200 Q516 176 516 123 Z M412 500 Q412 541 386 573.5 Q360 606 319 621 Q384 576 384 504 Q383 435 328 381 Q299 354 221 307 Q303 344 343 375 Q412 430 412 500 Z " />
<glyph glyph-name="three" unicode="3" horiz-adv-x="541" d="M513 201 Q513 158 490 111 Q467 64 433 38 Q380 -5 267 -5 Q178 -5 115 29 Q36 72 36 153 Q36 186 59 208.5 Q82 231 115 231 Q146 231 171 206.5 Q196 182 196 150 Q196 121 173 99 Q201 83 235 83 Q282 83 314 109 Q346 135 346 181 Q346 296 153 285 L153 366 Q172 364 190 364 Q345 364 345 508 Q345 549 320.5 573 Q296 597 258 599 Q203 601 171 546 Q212 512 212 474 Q212 442 189 419.5 Q166 397 133 397 Q95 397 67.5 427.5 Q40 458 40 497 Q40 581 110 627 Q170 667 257 667 Q355 667 421 624 Q499 573 499 480 Q499 398 419 343 Q513 289 513 201 Z M420 213 Q420 286 338 357 Q412 413 412 496 Q412 569 349 614 Q393 566 393 501 Q393 421 305 356 Q304 357 304 357 L304 358 Q307 358 321 346 Q396 283 396 205 Q396 135 333 71 Q369 94 394.5 133.5 Q420 173 420 213 Z " />
<glyph glyph-name="four" unicode="4" horiz-adv-x="625" d="M601 323 Q601 253 560 234 Q594 202 594 137 Q594 125 593 117 L522 117 Q522 146 504 164 Q486 182 458 181 Q454 166 454 152 Q454 119 476.5 97 Q499 75 532 72 L530 -3 Q517 -4 505 -4 Q422 -4 384 41 Q348 -7 224 -5 L211 -5 L214 63 Q299 70 299 168 Q299 178 298 185 L62 185 L23 269 L323 667 L524 665 L524 589 L456 587 L456 277 Q500 278 515 291 Q530 304 532 347 L599 347 Q601 335 601 323 Z M359 557 L338 528 L338 197 Q338 107 318 87 Q358 100 358 171 L359 557 Z M298 275 L298 478 L144 277 L298 275 Z " />
<glyph glyph-name="five" unicode="5" horiz-adv-x="562" d="M527 234 Q527 134 450.5 61 Q374 -12 274 -12 Q187 -12 122 25 Q43 70 43 150 Q43 185 67 213.5 Q91 242 125 242 Q157 242 183.5 216.5 Q210 191 210 160 Q210 130 182 101 Q215 66 250 66 Q298 66 334 119 Q366 166 366 217 Q366 265 342 297 Q315 333 269 333 Q194 333 132 265 L42 314 L42 661 L125 661 L155 630 Q228 672 309 672 Q343 672 380.5 655.5 Q418 639 433 639 Q442 639 456.5 645.5 Q471 652 479 652 Q494 652 502.5 639 Q511 626 511 611 Q511 558 468.5 523.5 Q426 489 373 489 Q323 489 261 520.5 Q199 552 176 552 Q164 552 157 546 L157 398 Q210 435 307 435 Q403 435 463 383 Q527 329 527 234 Z M441 200 Q441 238 421.5 279 Q402 320 374 342 Q416 285 416 211 Q416 136 358 76 Q441 134 441 200 Z " />
<glyph glyph-name="six" unicode="6" horiz-adv-x="547" d="M506 225 Q506 126 442.5 61 Q379 -4 280 -4 Q138 -4 65 100 Q1 190 1 339 Q1 475 73 572 Q152 680 283 680 Q349 680 391.5 657 Q434 634 463 579 Q473 559 473 540 Q473 499 447.5 471.5 Q422 444 381 444 Q348 444 324.5 467 Q301 490 301 523 Q301 553 325 580 Q304 602 279 602 Q231 602 200 536 Q174 482 174 430 Q174 419 175 408 Q252 435 315 435 Q402 435 456 372 Q506 313 506 225 Z M406 210 Q406 248 387 286 Q368 324 339 347 Q381 290 381 216 Q381 141 323 81 Q406 139 406 210 Z M337 215 Q337 259 321 299 Q299 352 262 352 Q224 352 203 299 Q186 259 186 215 Q186 171 203 130 Q224 77 262 77 Q299 77 321 130 Q337 171 337 215 Z M173 57 Q120 105 89 187 Q59 264 59 339 Q59 448 116 560 Q35 485 35 335 Q35 248 67 176 Q104 95 173 57 Z " />
<glyph glyph-name="seven" unicode="7" horiz-adv-x="548" d="M533 579 Q533 510 480 445 Q431 395 381 344 Q327 286 327 235 Q327 190 339 175 Q353 155 399 155 Q420 155 438 158 Q439 147 439 136 Q439 70 397 34 Q355 -2 288 -2 Q220 -2 174 54 Q130 106 130 175 Q130 230 164 289 Q197 345 245 378 Q294 408 343 438 Q388 468 426 519 Q392 488 307 488 Q289 488 252.5 492.5 Q216 497 198 497 Q158 497 128 479 Q91 457 96 419 L28 419 L26 644 Q36 657 51 657 Q67 657 94 638 Q121 619 141 619 Q164 619 209 637 Q254 655 281 655 Q303 655 343 641 Q383 627 405 627 Q431 627 455.5 641.5 Q480 656 493 656 Q532 656 532 601 L533 579 Z M264 46 Q206 106 206 181 Q206 255 248 312 Q176 255 176 190 Q176 151 204 109 Q228 71 264 46 Z " />
<glyph glyph-name="eight" unicode="8" horiz-adv-x="587" d="M554 198 Q554 108 472 47 Q397 -9 305 -9 Q192 -9 121 39 Q37 95 37 203 Q37 309 134 373 Q65 401 65 501 Q65 580 139 631 Q206 677 288 677 Q376 677 435 639 Q505 594 505 512 Q505 434 443 389 Q493 362 523.5 309 Q554 256 554 198 Z M396 527 Q396 561 368.5 582 Q341 603 306 603 Q216 603 216 543 Q216 507 258 480 Q294 457 332 457 Q356 457 376 480 Q396 503 396 527 Z M462 206 Q462 283 367 326 Q280 362 194 399 Q104 454 114 563 Q105 533 105 505 Q105 417 193 371 Q275 337 357 303 Q445 258 445 174 Q445 153 437 131 Q462 168 462 206 Z M402 181 Q402 213 358 247 Q325 272 286 288 Q200 233 200 172 Q200 81 299 81 Q402 81 402 181 Z " />
<glyph glyph-name="nine" unicode="9" horiz-adv-x="593" d="M564 338 Q564 208 489 107 Q408 -4 284 -4 Q210 -4 157 25 Q91 60 91 128 Q91 165 116 186.5 Q141 208 179 208 Q211 208 230.5 186 Q250 164 250 132 Q250 112 242 96 Q268 75 290 75 Q332 75 351 154 Q364 208 363 272 Q312 232 247 232 Q158 232 96.5 292 Q35 352 35 441 Q35 549 110 615 Q181 676 288 676 Q423 676 498 573 Q564 481 564 338 Z M368 425 Q368 602 296 602 Q217 602 217 437 Q217 324 300 324 Q334 324 365 349 Q368 383 368 425 Z M452 354 Q452 523 362 600 Q422 505 422 351 Q422 223 367 94 Q410 135 433 215 Q452 282 452 354 Z M158 584 Q125 557 102 517 Q77 474 77 435 Q77 370 143 318 Q107 379 107 453 Q107 530 158 584 Z " />
<glyph glyph-name="colon" unicode="&#x3a;" horiz-adv-x="308" d="M249 90 Q249 49 219.5 20 Q190 -9 149 -9 Q108 -9 79 20 Q50 49 50 90 Q50 131 79 160 Q108 189 149 189 Q190 189 219.5 160 Q249 131 249 90 Z M157 156 Q102 159 87 98 Q86 90 86 83 Q86 50 119 31 Q104 45 104 69 Q104 81 108 92 Q125 142 157 156 Z M249 440 Q249 399 219.5 370 Q190 341 149 341 Q108 341 79 370 Q50 399 50 440 Q50 481 79 510 Q108 539 149 539 Q190 539 219.5 510 Q249 481 249 440 Z M157 506 Q102 509 87 448 Q86 440 86 433 Q86 400 119 381 Q104 395 104 419 Q104 431 108 442 Q125 492 157 506 Z " />
<glyph glyph-name="semicolon" unicode="&#x3b;" horiz-adv-x="319" d="M249 90 Q250 34 213 -20 Q168 -86 87 -111 Q125 -68 138 -8 Q57 -7 50 90 Q50 131 79 160 Q108 189 149 189 Q190 189 218.5 160 Q247 131 249 90 Z M157 156 Q130 158 110.5 142 Q91 126 87 98 Q86 90 86 83 Q86 50 119 31 Q104 45 104 69 Q104 81 108 92 Q125 142 157 156 Z M249 440 Q249 399 219.5 370 Q190 341 149 341 Q108 341 79 370 Q50 399 50 440 Q50 481 79 510 Q108 539 149 539 Q190 539 219.5 510 Q249 481 249 440 Z M157 506 Q102 509 87 448 Q86 440 86 433 Q86 400 119 381 Q104 395 104 419 Q104 431 108 442 Q125 492 157 506 Z " />
<glyph glyph-name="question" unicode="&#x3f;" horiz-adv-x="616" d="M575 587 Q585 557 585 530 Q585 455 513 398 Q480 372 395 332 Q333 298 333 236 Q333 228 334 220 Q285 262 285 314 Q285 385 354 436 Q431 497 424 560 Q424 611 383 645 Q346 675 296 675 Q235 675 206 629 Q254 601 254 544 Q254 503 225 476.5 Q196 450 151 450 Q103 450 75 484 Q49 515 50 561 Q52 647 140 698 Q215 741 307 741 Q410 741 481 700.5 Q552 660 575 587 Z M428 90 Q428 49 398.5 20 Q369 -9 328 -9 Q287 -9 258 20 Q229 49 229 90 Q229 131 258 160 Q287 189 328 189 Q369 189 398.5 160 Q428 131 428 90 Z M496 539 Q498 637 408 673 Q471 630 471 538 Q470 516 463 495 Q448 447 408 416 Q444 429 468 464 Q492 499 496 539 Z M336 156 Q281 159 266 98 Q265 90 265 83 Q265 50 299 31 Q283 45 283 69 Q283 81 287 92 Q304 142 336 156 Z " />
<glyph glyph-name="at" unicode="&#x40;" horiz-adv-x="907" d="M891 374 Q891 294 836 222 Q777 145 698 145 Q634 145 587 192 Q530 138 455 138 Q374 138 316 198.5 Q258 259 258 340 Q258 420 316 478 Q374 536 455 536 Q521 536 573 496 L649 496 L648 254 Q648 209 680 209 Q757 209 757 370 Q757 496 669 584 Q581 672 455 672 Q329 672 245.5 576.5 Q162 481 162 355 Q162 213 266 121 Q366 33 510 33 Q678 33 793 103 Q649 -43 455 -43 Q281 -43 153 68 Q18 184 18 355 Q18 525 153 641 Q281 752 455 752 Q622 752 752 648 Q891 538 891 374 Z M807 379 Q807 460 772 527 Q732 602 661 626 Q724 599 760 514 Q790 442 790 363 Q790 288 762 240 Q807 278 807 379 Z M543 338 Q543 384 522 421 Q497 465 455 465 Q413 465 388 421 Q367 384 367 340 Q367 295 388 256 Q413 209 455 209 Q494 209 520 255 Q543 295 543 338 Z M373 192 Q311 243 311 340 Q313 365 320 387 Q337 441 373 475 Q307 446 293 339 Q291 232 373 192 Z M260 35 Q185 90 132 170 Q74 261 74 343 Q74 430 128 527 Q180 620 254 673 Q171 624 113 537 Q52 444 52 353 Q52 257 113 167 Q171 83 260 35 Z " />
<glyph glyph-name="A" unicode="A" horiz-adv-x="855" d="M854 67 L854 -2 Q846 -4 832 -4 Q737 -4 693 51 Q638 -1 538 -1 Q521 -1 505 1 L505 67 Q536 67 561 76 Q596 88 596 112 Q596 126 578 160 Q565 182 552 205 L242 205 Q216 143 216 127 Q216 65 308 67 L308 1 Q294 -2 274 -2 Q205 -2 166 40 Q107 -4 46 -4 Q23 -4 3 5 L3 71 Q76 74 103 137 Q157 262 212 388 Q302 599 302 623 Q302 654 262 654 Q250 654 237 652 L238 732 Q258 737 286 737 Q378 737 423 677 Q443 705 484 721 Q521 736 559 736 Q580 736 601 732 L601 660 Q576 659 558 647 Q536 633 536 610 Q536 595 546 576 L773 137 Q812 62 854 67 Z M644 127 Q644 168 628 199 L449 558 Q439 576 408 592 L644 127 Z M492 311 L379 537 L289 312 L492 311 Z " />
<glyph glyph-name="B" unicode="B" horiz-adv-x="707" d="M691 218 Q691 108 590 45 Q504 -8 386 -8 Q283 -8 213 49 Q188 24 144 10 Q104 -3 65 -3 L55 -2 L55 69 Q87 77 106.5 103.5 Q126 130 126 164 L126 558 Q126 607 107 636 Q83 671 37 665 L37 733 Q54 735 79 735 Q183 735 219 696 Q304 745 407 745 Q504 745 581 689 Q665 627 665 535 Q665 452 578 403 Q627 382 660 325 Q691 272 691 218 Z M548 558 Q548 606 496 643 Q529 607 529 551 Q529 507 502 464 Q548 506 548 558 Z M485 558 Q485 604 463 635 Q438 670 394 670 Q362 670 335 659 Q301 643 301 614 L301 435 Q318 434 333 434 Q485 434 485 558 Z M586 224 Q586 275 531 318 Q563 274 563 216 Q563 160 523 113 Q586 161 586 224 Z M523 221 Q523 276 483 314 Q443 352 387 352 Q348 352 303 331 L303 167 Q303 80 385 80 Q443 80 483 120.5 Q523 161 523 221 Z M190 522 Q190 604 158 637 Q170 616 170 553 L170 203 Q170 123 150 102 Q190 115 190 186 L190 522 Z " />
<glyph glyph-name="C" unicode="C" horiz-adv-x="638" d="M625 228 Q613 129 530 58.5 Q447 -12 347 -12 Q199 -12 112 98 Q30 199 30 352 Q30 512 102 620 Q185 744 337 744 Q421 744 508 695 L527 728 L588 724 L588 480 L529 478 Q488 659 371 659 Q284 659 240 555 Q206 477 206 377 Q206 273 241 194 Q287 90 378 90 Q444 90 494 141 Q540 188 553 255 L625 228 Z M213 62 Q160 115 128 206 Q99 290 99 371 Q99 491 156 615 Q75 533 75 368 Q75 274 106 196 Q142 106 213 62 Z " />
<glyph glyph-name="D" unicode="D" horiz-adv-x="668" d="M664 373 Q664 210 597 112 Q518 -3 363 -3 Q251 -3 197 59 Q174 30 133.5 13.5 Q93 -3 54 -3 Q40 -3 27 -1 L27 63 Q60 70 81 96.5 Q102 123 102 158 L102 551 Q102 599 88 630 Q68 672 26 666 L26 733 Q42 736 65 736 Q156 736 183 682 Q244 738 355 738 Q512 738 592 631 Q664 536 664 373 Z M542 376 Q542 567 464 637 Q518 536 518 385 Q518 216 463 115 Q542 184 542 376 Z M478 392 Q478 484 456 557 Q424 666 356 666 Q269 666 269 559 L269 185 Q269 149 284 121 Q303 87 336 87 Q420 87 455 205 Q478 280 478 392 Z M164 517 Q164 600 133 632 Q145 611 145 548 L145 198 Q145 118 125 97 Q164 110 164 181 L164 517 Z " />
<glyph glyph-name="E" unicode="E" horiz-adv-x="689" d="M661 241 L643 -1 L589 -1 L562 45 Q481 -2 387 -2 Q296 -2 232 56 Q168 -3 98 -3 Q81 -3 65 2 L65 76 Q96 76 112 113 Q125 141 125 176 L124 542 Q124 592 107 625 Q85 669 40 662 L40 735 L60 736 Q182 739 204 685 Q278 736 365 736 Q397 736 448 720.5 Q499 705 520 705 Q557 705 563 738 L618 711 L619 556 L562 538 Q552 587 509 617 Q466 647 415 647 Q343 647 316 607 Q297 577 297 510 Q297 497 297 469 Q298 442 298 427 Q316 419 337 419 Q405 419 409 518 L479 515 Q480 507 480 494 Q480 395 436 384 Q483 349 488 272 L408 272 Q394 308 384 319 Q368 335 333 335 Q310 335 299 320 Q299 210 306 177 Q325 86 398 86 Q477 86 525 128 Q577 172 580 251 L661 241 Z M191 517 Q191 545 183 578 Q173 616 158 632 Q170 611 170 548 L170 198 Q170 118 150 97 Q191 110 191 181 L191 517 Z " />
<glyph glyph-name="F" unicode="F" horiz-adv-x="612" d="M605 522 L526 511 Q464 657 355 657 Q322 657 300 638.5 Q278 620 278 587 L278 425 Q286 423 297 423 Q375 423 391 511 L467 511 Q468 465 465 448 Q456 408 419 396 Q469 358 469 292 Q469 282 467 272 L394 270 Q385 297 364 317.5 Q343 338 317 338 Q288 338 282 335 L281 207 Q281 152 303 115 Q329 70 380 69 L380 -4 Q371 -6 355 -6 Q273 -6 222 53 Q164 -3 71 -3 Q54 -3 36 0 L36 67 Q68 74 86 103 Q104 132 104 166 L104 573 Q104 613 87 641 Q67 675 31 672 L31 735 L47 735 Q156 738 205 692 Q288 740 355 740 Q404 740 456 716 Q476 694 497 694 Q521 694 532 728 L580 714 L605 522 Z M167 527 Q167 554 158 588 Q148 626 133 642 Q145 621 145 558 L145 208 Q145 128 125 107 Q167 120 167 191 L167 527 Z " />
<glyph glyph-name="G" unicode="G" horiz-adv-x="656" d="M639 342 Q577 322 577 222 L577 5 L477 5 L446 33 Q382 -7 302 -7 Q260 -7 232 2 Q-10 77 -10 380 Q-10 524 73 631 Q163 746 303 746 Q386 746 451 711 L456 739 L536 724 L582 539 L508 520 Q498 582 451 625.5 Q404 669 342 669 Q249 669 205 556 Q174 476 174 366 Q174 258 201 185 Q240 80 328 80 Q369 80 397.5 103 Q426 126 426 167 L426 262 Q426 294 402 317.5 Q378 341 344 348 L344 429 Q439 424 501 370 Q540 414 639 417 L639 342 Z M492 246 Q492 268 480 295 Q467 327 449 329 Q470 293 470 199 Q470 175 468.5 136 Q467 97 467 86 L491 64 L492 246 Z M153 84 Q68 220 68 387 Q68 521 132 636 Q88 589 62 513 Q36 442 36 375 Q36 202 153 84 Z " />
<glyph glyph-name="H" unicode="H" horiz-adv-x="820" d="M791 2 Q770 -1 742 -1 Q655 -1 614 41 Q565 -2 483 -2 Q461 -2 438 2 L438 68 Q479 69 504 103 Q527 134 527 177 L528 354 L309 353 L309 154 Q309 72 400 67 L400 -1 Q390 -2 373 -2 Q268 -2 227 42 Q172 -1 95 -1 Q69 -1 43 6 L42 70 Q82 74 111 96 Q144 121 144 158 L143 583 Q143 623 119 646 Q95 669 54 666 L53 733 Q69 736 92 736 Q174 736 224 697 Q276 736 341 736 Q373 736 402 724 L402 664 Q364 662 338 641 Q310 617 310 581 L311 455 L530 455 Q530 474 530 513 Q531 552 531 572 Q531 659 446 666 L446 727 Q474 735 509 735 Q585 735 622 689 Q670 736 739 736 Q765 736 789 728 L790 664 L783 664 Q749 665 729 648 Q706 630 706 596 L706 168 Q706 79 790 70 L791 2 Z M593 191 L593 527 Q593 554 582.5 589.5 Q572 625 556 642 Q568 621 568 558 L568 208 Q568 128 548 107 Q569 114 582 143 Q593 167 593 191 Z M208 527 Q208 554 197.5 589.5 Q187 625 171 642 Q183 621 183 558 L183 208 Q183 128 163 107 Q184 114 197 143 Q208 167 208 191 L208 527 Z " />
<glyph glyph-name="I" unicode="I" horiz-adv-x="411" d="M377 659 Q345 658 324.5 637.5 Q304 617 304 585 L304 145 Q304 75 371 65 L371 1 Q357 -2 337 -2 Q251 -2 205 55 Q188 28 152 12.5 Q116 -3 82 -2 L62 -1 L62 65 Q94 67 112.5 92 Q131 117 131 150 L130 561 Q130 666 51 660 L51 727 Q74 737 106 737 Q169 737 215 689 Q253 739 330 739 Q352 739 376 733 L377 659 Z M196 191 L196 527 Q196 555 187 588 Q178 626 162 642 Q175 621 175 558 L175 208 Q175 128 155 107 Q176 114 187 143 Q196 166 196 191 Z " />
<glyph glyph-name="J" unicode="J" horiz-adv-x="666" d="M645 733 L645 657 Q609 658 584 638 Q559 618 559 583 L559 290 Q559 -14 282 -14 Q189 -14 114 28 Q25 80 25 166 Q25 215 55 253.5 Q85 292 132 292 Q178 292 211 261.5 Q244 231 244 186 Q244 127 196 98 Q226 50 272 50 Q317 50 350.5 85.5 Q384 121 384 167 L384 551 Q384 599 358 630 Q332 661 285 662 L285 730 Q310 736 345 736 Q440 736 488 681 Q507 707 544 722 Q577 736 612 736 Q628 736 645 733 Z M445 175 L445 552 Q445 621 409 638 Q424 611 424 579 L425 172 Q425 125 401 101 Q445 126 445 175 Z M135 251 Q102 256 83 223 Q68 196 68 161 Q68 119 100 95 Q85 113 85 143 Q85 158 88 172 Q105 234 135 251 Z " />
<glyph glyph-name="K" unicode="K" horiz-adv-x="728" d="M717 70 L717 2 Q691 -6 655 -6 Q578 -6 528 38 Q478 -3 411 -3 Q387 -3 364 4 L365 81 Q416 89 416 120 Q416 127 318 338 L245 263 L245 166 Q245 128 265 104.5 Q285 81 323 84 L323 1 Q311 -2 293 -2 Q220 -2 176 52 Q120 -3 26 -3 Q11 -3 -5 -1 L-5 66 Q32 72 54 106 Q73 136 73 176 L73 551 Q73 601 63 624 Q47 658 2 659 L2 728 Q33 736 71 736 Q145 736 177 700 Q193 736 260 736 Q284 736 312 730 L312 661 Q280 656 260.5 630 Q241 604 241 571 L241 427 L414 595 Q433 612 433 633 Q433 659 384 659 L385 729 Q406 735 434 735 Q495 735 528 699 Q570 736 626 736 Q649 736 671 727 L671 657 L667 657 Q625 659 575 609 L443 476 L596 158 Q610 128 649 99 Q688 70 717 70 Z M476 148 Q476 179 431 273 Q399 335 368 397 L350 377 Q385 306 420 235 Q466 133 464 88 Q476 116 476 148 Z M140 191 L140 527 Q140 610 109 642 Q121 621 121 558 L121 208 Q121 128 101 107 Q140 120 140 191 Z " />
<glyph glyph-name="L" unicode="L" horiz-adv-x="638" d="M650 255 L588 -1 L518 -1 L501 31 Q424 -3 341 -3 Q247 -3 197 54 Q152 -1 87 -1 Q61 -1 35 10 L35 81 Q77 81 102 116 Q124 147 124 190 L125 576 Q125 651 31 664 L31 731 Q51 735 78 735 Q164 735 211 686 Q256 737 342 737 Q360 737 378 734 L378 663 L375 663 Q337 665 315.5 639.5 Q294 614 294 574 L294 147 Q334 123 389 123 Q517 123 592 286 L650 255 Z M189 191 L188 527 Q188 554 179 588 Q169 626 154 642 Q166 621 166 558 L166 208 Q166 128 146 107 Q189 120 189 191 Z " />
<glyph glyph-name="M" unicode="M" horiz-adv-x="960" d="M931 74 L930 2 Q913 -1 888 -1 Q795 -1 750 47 Q729 22 680 8 Q640 -3 599 -3 Q579 -3 558 -1 L558 71 Q603 75 632 107 Q661 139 661 185 L661 455 L449 172 L231 490 L231 179 Q231 101 320 74 L320 1 Q304 -1 281 -1 Q200 -1 172 40 Q132 -3 62 -3 Q48 -3 33 -1 L33 79 Q73 82 100 108.5 Q127 135 127 176 L127 543 Q127 652 38 651 L38 730 L284 730 L490 419 L708 730 L914 730 L915 641 Q882 642 862 620 Q842 598 842 565 L842 180 Q842 95 931 74 Z M733 189 L733 561 L714 535 L713 202 Q713 119 664 92 Q695 102 714 129.5 Q733 157 733 189 Z M461 276 L269 559 Q253 582 228 584 L445 259 L461 276 Z " />
<glyph glyph-name="N" unicode="N" horiz-adv-x="773" d="M755 655 Q724 654 703.5 634 Q683 614 683 583 L683 5 L609 5 L272 393 L272 167 Q272 71 353 74 L353 2 Q338 -4 315 -4 Q257 -4 215 38 Q163 -3 103 -3 Q94 -3 86 -2 L86 72 Q117 75 136.5 98 Q156 121 156 153 L156 523 Q156 577 129 612 Q99 650 45 649 L45 730 L216 730 L576 324 L576 560 Q576 601 560 627 Q539 657 501 657 L501 734 Q512 736 529 736 Q597 736 634 692 Q661 737 733 737 Q743 737 755 736 L755 655 Z M597 125 L246 528 L246 497 L597 93 L597 125 Z " />
<glyph glyph-name="O" unicode="O" horiz-adv-x="660" d="M658 368 Q658 217 575 105 Q483 -18 337 -18 Q196 -18 104 105 Q20 218 20 364 Q20 514 105 626 Q198 749 344 749 Q485 749 576 626 Q658 514 658 368 Z M536 348 Q536 501 442 631 L445 627 Q504 502 504 349 Q504 190 446 86 Q536 198 536 348 Z M454 345 Q454 442 436 525 Q407 654 344 654 Q270 654 238 534 Q219 459 219 352 Q219 266 245 181 Q280 66 344 66 Q454 66 454 345 Z M187 69 Q96 224 96 379 Q96 515 167 638 Q122 586 94.5 509 Q67 432 67 362 Q67 207 187 69 Z " />
<glyph glyph-name="P" unicode="P" horiz-adv-x="657" d="M643 475 Q643 362 568 285 Q493 208 380 208 Q332 208 291 230 L291 140 Q291 105 315 88 Q339 71 375 75 L375 4 Q348 -5 314 -5 Q246 -5 208 43 Q159 -5 72 -5 Q54 -5 36 -2 L36 63 Q68 63 90 81.5 Q112 100 112 131 L112 568 Q112 604 94 627 Q73 653 38 652 L38 732 Q56 735 81 735 Q170 735 211 684 Q293 743 379 743 Q493 743 568 666 Q643 589 643 475 Z M540 495 Q540 575 477 646 Q518 574 518 483 Q518 390 462 318 Q496 350 518 399.5 Q540 449 540 495 Z M474 495 Q474 517 472 534 Q468 570 444 607 Q416 652 383 652 Q345 652 316 625.5 Q287 599 287 562 L286 330 Q310 317 341 317 Q410 317 445 375 Q474 422 474 495 Z M170 186 L170 522 Q170 605 138 637 Q151 616 151 553 L151 203 Q151 123 131 102 Q170 115 170 186 Z " />
<glyph glyph-name="Q" unicode="Q" horiz-adv-x="696" d="M691 -21 Q691 -69 657.5 -103.5 Q624 -138 577 -138 Q477 -138 397 -13 Q370 -18 342 -18 Q201 -18 109 105 Q25 217 25 364 Q25 514 110 626 Q203 749 349 749 Q490 749 581 626 Q663 514 663 368 Q663 267 622 177 Q579 83 504 31 Q537 -1 559 -1 Q586 -1 610 27 Q630 50 640 80 Q691 33 691 -21 Z M541 348 Q541 496 450 626 Q509 501 509 349 Q509 194 453 90 L453 90 Q541 201 541 348 Z M459 345 Q459 442 441 525 Q412 654 349 654 Q275 654 243 534 Q224 459 224 352 Q224 266 250 181 Q285 66 349 66 Q352 66 354 66 Q336 104 302 191 L370 224 Q388 186 426 128 Q459 201 459 345 Z M192 69 Q98 228 98 379 Q98 510 172 638 Q127 586 99.5 509 Q72 432 72 362 Q72 207 192 69 Z " />
<glyph glyph-name="R" unicode="R" horiz-adv-x="742" d="M733 116 Q733 65 691.5 31 Q650 -3 598 -3 Q505 -3 457 76 Q427 150 398 223 Q366 302 310 302 Q291 302 275 294 Q255 283 255 265 L255 175 Q255 139 277 111 Q299 83 334 82 L334 4 Q314 0 287 0 Q205 0 178 52 Q136 -4 61 -4 Q34 -4 5 6 L5 71 Q37 75 57 99.5 Q77 124 77 156 L77 567 Q77 649 24 649 Q14 649 2 645 L2 723 Q38 739 81 739 Q158 739 199 677 Q229 707 282 727 Q332 745 377 745 Q483 745 551.5 674.5 Q620 604 620 498 Q620 434 582 388.5 Q544 343 481 331 Q528 307 559 254 Q579 211 599.5 170.5 Q620 130 645 130 Q678 130 711 191 Q733 151 733 116 Z M523 538 Q523 592 462 631 Q498 585 498 523 Q498 475 470 432 Q523 480 523 538 Z M453 535 Q453 580 433 607 Q411 638 368 638 Q260 638 260 546 L260 386 Q280 381 298 381 Q368 381 410.5 423 Q453 465 453 535 Z M563 55 Q528 78 493 174 Q460 264 418 279 Q433 269 454 209 Q481 132 495 107 Q524 55 563 55 Z M144 182 L144 523 Q144 551 135 583 Q124 620 108 637 Q120 616 120 553 L120 198 Q120 118 100 97 Q121 105 133 134 Q144 158 144 182 Z " />
<glyph glyph-name="S" unicode="S" horiz-adv-x="627" d="M590 232 Q590 125 502 55 Q420 -11 311 -11 Q262 -11 201.5 14 Q141 39 145 39 Q129 39 133 10 L57 10 L46 274 L117 279 Q135 217 194 152 Q260 79 316 79 Q360 79 393 109 Q426 139 426 183 Q426 257 325 286 Q140 339 136 341 Q35 393 35 521 Q35 622 111 685 Q182 744 286 744 Q382 744 483 690 L494 726 L551 718 L562 480 L502 475 Q459 665 329 665 Q283 665 250 629 Q217 593 217 546 Q217 509 278 486 Q342 468 406 450 Q487 426 519 393 Q590 320 590 232 Z M477 215 Q477 331 269 361 Q195 372 146 421 Q93 472 92 545 Q88 524 88 505 Q88 436 138 394 Q175 362 250 341 Q311 326 372 311 Q404 302 433 258.5 Q462 215 462 181 Q462 165 458 149 Q477 183 477 215 Z " />
<glyph glyph-name="T" unicode="T" horiz-adv-x="653" d="M635 722 L635 475 L562 434 Q553 531 547 552 Q527 635 476 635 Q450 635 427.5 614.5 Q405 594 405 569 L405 164 Q405 128 423 102 Q442 72 476 74 L477 4 Q461 -1 439 -1 Q369 -1 331 50 Q285 -1 192 -1 Q180 -1 167 0 L167 68 Q196 73 214.5 94.5 Q233 116 233 145 L233 573 Q233 634 180 634 Q123 634 92 554 Q70 497 67 428 L1 464 L1 716 L41 731 Q62 707 104 707 Q129 707 173 725.5 Q217 744 244 744 Q299 744 326 701 Q337 719 375 733 Q408 746 433 746 Q465 746 503.5 725 Q542 704 561 704 Q585 704 588 731 L635 722 Z M300 186 L299 522 Q299 604 266 637 Q279 616 279 553 L279 203 Q279 123 259 102 Q300 115 300 186 Z " />
<glyph glyph-name="U" unicode="U" horiz-adv-x="705" d="M689 655 L683 655 Q652 655 635 634.5 Q618 614 618 582 L618 204 Q618 111 539 48 Q466 -12 371 -12 Q259 -12 183 64.5 Q107 141 107 253 L107 573 Q107 612 89 637 Q68 668 31 662 L31 732 Q50 737 78 737 Q155 737 194 687 Q227 737 306 737 Q324 737 343 734 L343 662 Q311 661 291.5 638 Q272 615 272 582 L272 227 Q272 165 304.5 128.5 Q337 92 401 92 Q458 92 489 129.5 Q520 167 520 225 L520 547 Q520 595 500 625 Q476 660 431 661 L430 735 Q443 737 461 737 Q529 737 564 697 Q591 736 643 736 Q665 736 688 726 L689 655 Z M192 116 Q173 175 173 253 L174 518 Q174 588 145 636 Q149 616 149 560 L149 258 Q149 186 192 116 Z " />
<glyph glyph-name="V" unicode="V" horiz-adv-x="777" d="M774 732 L774 653 L768 653 Q701 657 663 551 L460 -1 L320 -1 L128 544 Q91 650 6 650 L6 726 Q33 734 69 734 Q158 734 197 673 Q221 703 269 721 Q312 736 355 736 Q372 736 389 734 L390 654 Q358 653 334 640 Q304 623 304 594 Q304 573 365 405 Q403 303 441 202 L566 553 Q573 573 573 590 Q573 648 503 655 L503 732 Q520 736 540 736 Q596 736 630 698 Q674 737 735 737 Q755 737 774 732 Z M359 75 L214 484 Q193 545 184 564 Q164 611 139 635 L334 74 L359 75 Z " />
<glyph glyph-name="W" unicode="W" horiz-adv-x="1004" d="M961 652 Q950 655 940 655 Q891 655 869 576 L708 -1 L595 0 L468 360 L372 0 L250 0 L80 582 Q62 644 2 654 L3 732 Q19 735 34 735 Q111 735 156 686 Q209 737 278 737 Q310 737 333 728 L334 657 Q298 654 282 645 Q259 632 259 599 Q259 568 290 470 Q311 404 332 338 L435 734 L545 735 L685 311 Q709 389 733 467 Q770 590 770 613 Q770 639 745 652 Q724 663 696 662 L696 734 Q710 738 725 738 Q775 738 821 705 Q873 735 925 735 Q948 735 961 730 L961 652 Z M656 55 L478 594 L469 551 L632 56 L656 55 Z M302 52 L163 531 Q140 610 105 636 Q119 615 137 553 L281 52 L302 52 Z " />
<glyph glyph-name="X" unicode="X" horiz-adv-x="745" d="M730 6 Q703 -1 667 -1 Q588 -1 541 42 Q519 -2 424 -2 Q398 -2 368 3 L368 67 Q434 75 434 113 Q434 131 399 181 Q376 213 353 245 Q329 211 304 177 Q269 124 269 100 Q269 67 315 66 L316 1 Q297 -4 273 -4 Q208 -4 177 35 Q138 -6 68 -4 L52 -3 L52 77 Q120 88 152 136 L290 345 L173 531 Q135 592 112 614 Q70 655 20 649 L20 730 Q49 738 85 738 Q157 738 189 701 Q235 737 312 737 Q336 737 361 732 L361 659 L354 659 Q317 661 317 638 Q317 624 352 569 Q374 534 397 500 Q419 530 441 560 Q477 612 477 625 Q477 651 420 655 L420 732 Q434 735 455 735 Q517 735 552 707 Q590 736 646 736 Q666 736 686 731 L686 656 Q627 641 587 582 L464 395 L596 182 Q660 78 730 86 L730 6 Z M491 130 Q491 161 468 197 L244 540 Q216 582 200 602 Q171 637 144 651 Q158 636 188 590 L403 255 Q428 219 454 182 Q485 134 485 102 Q491 112 491 130 Z " />
<glyph glyph-name="Y" unicode="Y" horiz-adv-x="739" d="M740 735 L739 655 Q704 654 664 623 Q631 597 608 563 L451 324 L452 141 Q452 113 478 94 Q504 75 537 77 L537 8 Q507 -2 471 -2 Q395 -2 366 53 Q320 -1 240 -1 Q210 -1 179 9 L179 75 L183 75 Q216 75 238.5 91.5 Q261 108 261 140 L261 308 L104 568 Q73 619 70 624 Q44 657 17 657 Q11 657 5 655 L5 732 Q34 739 70 739 Q157 739 186 689 Q218 737 299 737 Q320 737 343 733 L342 658 Q326 662 314 662 Q285 662 285 641 Q285 626 336 542 Q369 492 401 441 Q432 483 464 526 Q512 596 512 625 Q512 666 443 659 L442 731 Q471 736 505 736 Q589 736 608 694 Q661 738 727 736 L740 735 Z M325 156 L325 334 L167 602 Q157 619 136 639 Q112 661 96 663 Q119 654 204 506 Q255 416 306 325 Q306 325 307 297 Q308 269 308 245 Q308 108 282 91 Q325 108 325 156 Z " />
<glyph glyph-name="Z" unicode="Z" horiz-adv-x="731" d="M706 678 L283 124 Q335 98 384 98 Q456 98 522 155 Q581 205 612 278 L693 257 L674 0 L598 0 Q587 33 547 33 Q521 33 466.5 14 Q412 -5 375 -5 Q341 -5 282 10 Q223 25 195 25 Q130 25 88 -5 L27 122 L435 627 Q397 641 361 641 Q296 641 240 592 Q190 547 166 482 L101 505 L101 734 L181 735 L188 682 Q254 739 361 739 Q437 739 457 728 Q548 676 659 676 Q683 676 706 678 Z M507 625 L488 630 L88 139 L99 120 L507 625 Z " />
<glyph glyph-name="backslash" unicode="&#x5c;" horiz-adv-x="1479" d="M1474 422 Q1474 405 1471 398 Q1473 392 1473 387 Q1473 377 1466 371 L1473 356 Q1473 340 1438 340 Q1429 340 1423 345 Q1413 340 1410 340 Q1394 340 1346 380 L1343 380 L1341 369 Q1342 365 1343 357 Q1345 341 1329 341 Q1316 341 1309 345 Q1303 342 1295 342 Q1287 342 1279 345 Q1270 342 1259 342 Q1252 342 1245 345 L1239 354 L1239 358 Q1239 365 1241 403 L1237 418 Q1237 425 1242 436 Q1240 444 1240 457 Q1240 473 1243 498 L1239 505 Q1243 533 1244 546 Q1238 550 1238 564 Q1238 595 1255 595 Q1260 593 1264 591 Q1270 596 1276 596 Q1309 596 1316 592 Q1324 597 1355 596 L1358 593 Q1362 593 1370 594.5 Q1378 596 1382 596 Q1406 596 1414 584 Q1424 586 1442 571 L1443 564 Q1467 541 1467 531 L1466 524 Q1473 514 1473 502 Q1473 476 1463 470 Q1466 447 1445 438 L1443 434 L1428 430 Q1435 425 1444 423 Q1452 431 1457 431 Q1463 431 1471 428 L1474 422 Z M1113 661 Q1113 651 1105 640.5 Q1097 630 1087 630 Q1081 630 1066 640 Q1044 629 1032 629 Q991 629 991 689 Q991 713 1005 730.5 Q1019 748 1042 748 Q1048 748 1054 747 Q1052 779 1052 792 Q1052 852 1074 852 Q1091 852 1091 840 Q1091 814 1089.5 763.5 Q1088 713 1088 687 Q1088 653 1097 653 Q1095 653 1108 663 L1111 664 L1113 661 Z M985 657 Q985 647 975.5 637 Q966 627 956 627 Q927 627 927 724 Q927 833 934 853 Q938 864 955 864 Q961 864 966 861 Q968 856 968 852 Q968 823 965 766.5 Q962 710 962 681 Q962 653 972 653 Q978 653 982 666 Q985 662 985 657 Z M1209 411 Q1209 403 1205 397 Q1208 390 1208 384 Q1208 378 1204 373 Q1206 366 1206 360 Q1206 342 1182 344 L1179 346 Q1160 343 1145 343 Q1083 343 1056 341 L1049 345 Q1041 368 1041 364 Q1041 374 1045 381 Q1042 390 1042 399 Q1042 410 1047 420 Q1044 426 1044 469 Q1044 514 1048 521 Q1045 532 1045 540 Q1045 550 1049 556 Q1046 561 1046 573 Q1046 581 1047 591 Q1056 597 1061 597 Q1069 597 1077 591 L1084 595 Q1151 591 1167 591 Q1171 591 1178 593.5 Q1185 596 1189 596 Q1205 596 1205 585 Q1205 578 1201 574 Q1204 568 1204 562 Q1204 556 1201 549 Q1204 541 1204 536 Q1204 521 1172 521 Q1130 521 1154 522 Q1143 522 1140 513 L1142 508 L1155 505 Q1160 505 1172 507 Q1184 509 1191 508 L1193 508 L1200 503 Q1201 498 1201 490 L1197 484 Q1201 474 1201 467 Q1201 449 1168 449 L1155 451 Q1148 452 1143 449 L1143 442 L1139 437 L1144 425 L1186 425 Q1209 425 1209 411 Z M923 700 Q923 689 903 675 Q893 628 850 628 Q828 628 816.5 647 Q805 666 805 689 Q805 749 856 749 Q899 749 904 697 Q912 702 916 702 Q920 702 923 700 Z M802 728 Q802 719 796.5 707 Q791 695 783 695 Q778 695 771 712 Q763 701 760 661 Q758 631 741 631 Q727 631 726 655 Q727 638 727 689 Q727 695 725.5 706 Q724 717 724 723 Q724 749 747 749 Q761 749 758 718 Q773 749 786 749 Q802 749 802 728 Z M1014 541 Q1014 523 1009 503 L1012 497 Q1011 450 1008 438 L1012 417 L1008 388 Q1012 367 1012 355 Q1005 344 987 344 Q982 344 976 347 Q958 343 949 343 Q944 343 935 355 Q926 367 924 374 Q907 384 901 400 Q892 407 879 421 Q875 397 875 385 L880 373 Q875 354 876 345 Q867 342 861 342 Q858 342 855 343 Q852 341 849 341 Q845 341 840 345 L831 341 L796 341 Q780 343 780 365 Q780 375 784 385 Q780 394 780 405 Q780 418 785 434 L780 444 Q780 476 784 483 L781 489 Q784 497 784 529 Q784 543 782 551 L783 553 L784 563 Q778 567 777 578 Q780 584 784 591 Q787 595 800 595 Q810 595 819 592 Q827 596 840 596 L850 592 L860 596 Q869 596 876 586 L879 586 Q890 572 890 565 L890 564 L897 561 Q906 546 908 540 Q916 539 923 530 L925 532 Q923 543 923 551 Q923 558 925 563 L921 568 Q921 589 924 593.5 Q927 598 946 598 Q963 598 970 594 Q974 596 979 597 L983 595 Q989 599 1003 599 Q1007 599 1013 592 Q1014 574 1014 572 L1013 551 L1011 549 Q1013 544 1014 541 Z M723 671 Q723 657 713 642.5 Q703 628 690 628 Q675 628 672 639 Q663 627 647 627 Q605 627 605 681 Q605 704 619.5 726 Q634 748 656 748 Q702 748 702 733 L702 672 Q702 658 705 658 Q708 658 717 677 L721 675 Q722 672 723 671 Z M613 913 Q601 886 583 829 Q576 794 576 769 Q576 749 578 740 L592 742 L597 736 L592 727 L581 722 Q588 699 601 654 Q597 646 584.5 635 Q572 624 564 624 Q543 624 543 723 Q535 725 522 728 Q505 622 471 622 Q442 622 442 636 L444 641 Q465 694 481 737 Q441 762 441 775 Q441 789 456 793 Q462 791 483 773 L484 802 Q485 826 476 849 Q465 878 444 878 Q418 878 403 848 Q391 824 391 795 Q391 780 399 763 Q408 743 421 743 Q424 743 430 745.5 Q436 748 439 748 Q448 748 448 733 Q448 714 424 714 Q372 714 372 788 Q372 830 392 863 Q415 902 455 902 Q498 902 512 844 L524 753 Q531 748 548 745 Q571 918 606 918 L613 913 Z M1101 193 Q1101 174 1085 155.5 Q1069 137 1050 137 Q1038 137 1028.5 145 Q1019 153 1019 164 Q1019 180 1037 180 Q1035 173 1035 167 Q1035 152 1048 152 Q1060 152 1060 173 Q1060 200 1044 200 Q1041 196 1033 188 Q1026 190 1026 195 Q1049 238 1049 259 Q1049 263 1055 263 L1059 263 Q1060 255 1064 242 Q1091 200 1087 182 L1096 197 Q1101 197 1101 193 Z M1018 171 Q1005 139 981 139 Q966 139 965 172 Q965 185 966 215 Q967 231 959 233 Q955 228 945 179 Q937 141 921 141 Q916 141 913 143 Q907 147 907 202 L907 219 Q907 260 927 260 Q943 260 943 249 Q943 247 942 242.5 Q941 238 941 236 Q941 233 942 230 Q957 263 973 263 Q1001 263 1001 225 Q1001 218 1000 203.5 Q999 189 999 182 Q999 172 1004 172 L1007 174 Q1010 176 1014 179 Q1017 175 1018 171 Z M748 360 Q748 345 725 343 Q723 342 688 342 Q682 342 675 346 L667 343 Q643 344 638 363 L638 405 Q638 422 639 435 L633 440 Q629 440 618 437 Q615 423 615 416 Q615 413 616.5 407.5 Q618 402 618 399 Q618 386 615 380 Q618 362 619 358 Q619 341 605 341 Q599 341 592 343 Q586 340 577 340 Q574 340 562 345 Q551 340 536 340 Q528 340 520 342 Q513 355 513 360 Q513 371 515.5 392 Q518 413 518 424 Q518 439 517 469.5 Q516 500 516 515 Q516 519 513.5 528 Q511 537 511 541 Q511 571 512 578 Q517 596 537 596 L554 592 L560 596 L567 596 Q582 596 588 592 Q596 595 601 597 Q619 597 619 577 Q619 569 616 563 Q618 541 618 531 L629 529 Q632 529 642 531 Q645 568 645 561 Q645 565 643 570 Q646 587 648 590 Q653 598 667 598 L672 595 Q679 597 687 597 Q696 597 705 595 L710 597 L718 595 Q723 597 728 597 Q736 597 744 593 Q748 587 748 580 Q748 574 746 562 Q744 550 744 544 L747 540 Q748 492 743 480 Q748 467 748 456 Q748 405 742 398 Q748 381 748 360 Z M750 291 Q750 266 731 266 Q718 266 718 284 Q718 309 737 309 Q750 309 750 291 Z M903 192 Q903 185 891 157 L868 104 Q849 70 824 70 Q811 70 800.5 81 Q790 92 790 105 Q790 128 802 128 Q805 126 807 125 L811 102 Q814 85 829 85 Q849 85 849 134 Q849 138 848 144 L848 154 Q835 140 822 140 Q782 140 782 193 Q782 259 832 259 Q836 259 848 253 Q863 258 874 258 Q883 258 883 223 L883 212 Q882 202 882 196 L882 168 Q895 186 895 201 Q903 199 903 192 Z M779 187 Q779 171 767.5 156 Q756 141 740 141 Q715 141 715 191 Q715 196 714 206.5 Q713 217 713 222 Q713 257 740 257 Q753 257 753 229 Q753 222 751.5 207.5 Q750 193 750 186 Q750 167 755 167 Q763 167 769 179 Q773 185 776 192 Q779 192 779 187 Z M711 193 Q711 174 695 155.5 Q679 137 660 137 Q649 137 639 145 Q629 153 629 164 Q629 180 647 180 Q645 173 645 167 Q645 152 658 152 Q671 152 671 173 Q671 200 654 200 Q651 196 643 188 Q637 190 637 195 Q643 208 652 225 Q654 230 657 250 Q659 263 665 263 L669 263 Q670 255 674 242 L692 214 Q700 197 697 182 L706 197 Q711 197 711 193 Z M482 464 Q482 439 472 431 Q473 417 465 402.5 Q457 388 444 385 Q441 376 424 363.5 Q407 351 398 351 L394 352 Q380 340 349 340 Q327 340 319 345 L318 344 Q303 344 273 356 L269 363 Q257 366 245 377 Q243 380 227 399 L228 405 Q222 414 213 432 L214 437 Q208 457 207 467 Q212 473 212 482 Q212 512 224 532 L229 533 Q230 542 241 552.5 Q252 563 261 565 Q262 577 295 588 Q324 598 340 598 Q384 598 397 585 Q423 580 440 560 L443 559 Q446 555 452 551 L455 541 L463 536 Q477 509 478 500 L476 498 Q476 493 479 481.5 Q482 470 482 464 Z M628 184 Q628 166 606.5 152 Q585 138 566 138 Q512 138 512 197 Q512 223 528 241.5 Q544 260 569 260 Q611 260 611 212 Q611 184 591 184 Q570 184 552 207 Q552 157 581 157 Q600 157 624 192 Q628 192 628 184 Z M511 171 Q511 161 502.5 150.5 Q494 140 484 140 Q478 140 463 150 Q441 139 429 139 Q388 139 388 199 Q388 223 402 240.5 Q416 258 439 258 Q445 258 451 257 Q449 289 449 302 Q449 362 472 362 Q488 362 488 350 Q488 324 487 273.5 Q486 223 486 197 Q486 163 494 163 L505 173 L508 174 L511 171 Z M179 367 Q179 362 178 348 Q174 344 162 343 L141 342 L138 345 Q121 343 113 343 L109 345 Q88 341 91 341 Q58 341 40 345 Q35 341 19 341 L13 343 L7 352 Q6 354 5 359 L5 404 L8 410 Q5 415 5 425 Q5 431 7 443.5 Q9 456 9 462 L8 466 L6 468 Q8 489 8 518 Q8 546 6 582 Q13 595 35 595 Q42 595 48 591 Q72 596 75 596 L83 592 Q88 596 98 596 Q103 596 108 591 Q108 587 109.5 580 Q111 573 111 570 L107 556 Q111 550 111 527 Q111 501 111 484.5 Q111 468 111 462 Q110 456 110 460 L107 456 L107 452 L110 448 L110 445 Q111 441 108 436 L111 427 Q122 427 130 426 Q134 428 141 428 L144 426 Q150 428 154 428 Q157 428 158 427 L164 430 Q179 427 179 403 Q179 401 175 394 L177 387 L176 382 Q179 377 179 367 Z M1461 410 L1461 415 L1458 416 Q1452 411 1447 408 Q1421 417 1408 423 L1405 426 L1405 431 Q1415 438 1420 442 Q1444 443 1451 463 Q1450 467 1450 470 Q1450 474 1459 485 Q1460 501 1460 509 L1452 517 L1451 523 Q1451 527 1454 532 Q1449 545 1435 554 Q1432 564 1424 568 Q1420 569 1406 571 Q1398 583 1351 583 Q1346 583 1336 580.5 Q1326 578 1321 578 Q1315 578 1303.5 580 Q1292 582 1286 582 Q1282 582 1274 579.5 Q1266 577 1262 577 L1257 578 L1252 573 L1252 570 Q1252 575 1260 543 Q1253 533 1253 521 Q1253 503 1259 499 Q1259 495 1255.5 487 Q1252 479 1252 477 L1257 432 Q1251 425 1251 419 Q1251 415 1253.5 407 Q1256 399 1256 395 Q1256 389 1254.5 378 Q1253 367 1253 361 Q1253 354 1262 354 Q1268 354 1277 361 L1282 361 Q1288 355 1297 355 Q1300 355 1304.5 357 Q1309 359 1312 359 Q1313 359 1317 357 Q1321 355 1322 355 L1329 355 L1331 358 L1332 362 Q1328 370 1330 377 Q1334 387 1334 391 L1334 395 L1338 399 L1339 403 L1341 404 L1343 402 L1342 394 Q1347 395 1363 383 Q1379 371 1383 370 Q1389 357 1412 354 Q1418 358 1424 358 Q1427 358 1433.5 355 Q1440 352 1444 352 Q1450 352 1457 355 L1458 358 L1452 369 L1461 410 Z M1056 653 L1055 728 Q1054 737 1048 737 Q1023 737 1023 695 Q1023 646 1048 646 Q1056 646 1056 653 Z M1195 380 L1195 389 Q1191 392 1191 397 Q1191 400 1193 404 Q1195 408 1195 410 Q1189 412 1163.5 411.5 Q1138 411 1129 419 L1130 424 Q1126 431 1126 437 L1126 440 Q1132 446 1132 455 L1130 461 L1134 464 Q1138 463 1146 464 Q1154 465 1158 465 Q1162 464 1166 462 Q1172 465 1178 465 L1182 463 L1187 465 Q1187 468 1185.5 475 Q1184 482 1184 485 L1186 491 L1184 494 Q1182 494 1177 495 L1169 495 Q1167 495 1162.5 493.5 Q1158 492 1155 492 Q1153 492 1144.5 494 Q1136 496 1133 495 L1128 495 L1126 498 L1129 506 Q1126 510 1126 515 Q1126 517 1129 521 L1128 529 L1133 533 Q1129 533 1134 534 L1190 537 L1191 542 Q1191 546 1189 550 Q1192 556 1192 564 Q1191 567 1188 575 L1190 579 L1188 581 Q1184 581 1176.5 579 Q1169 577 1165 577 Q1162 577 1156 579 Q1150 581 1147 581 Q1141 581 1128 579.5 Q1115 578 1109 578 L1102 581 Q1097 582 1094 582 Q1092 582 1087.5 580 Q1083 578 1081 578 L1074 578 L1067 582 L1063 582 L1060 577 Q1060 573 1062 565.5 Q1064 558 1064 555 Q1064 551 1061.5 544 Q1059 537 1059 533 Q1059 531 1061 526.5 Q1063 522 1063 520 Q1063 509 1060.5 488.5 Q1058 468 1058 457 Q1058 448 1060 442 L1058 434 Q1058 429 1061 419 L1058 402 Q1058 398 1059 390.5 Q1060 383 1060 379 Q1055 369 1055 365 Q1057 360 1059 356 Q1063 356 1069.5 357.5 Q1076 359 1080 359 Q1172 359 1189 356 L1193 358 Q1192 369 1191 374 L1195 380 Z M870 677 Q870 738 853 738 Q842 738 842 690 Q842 641 858 641 Q870 641 870 677 Z M1001 564 L1000 583 L995 584 L985 580 Q974 584 941 584 Q938 583 937 582 L937 572 Q940 567 940 553 Q940 534 936 519 Q940 511 940 507 L939 505 L938 504 L931 505 L926 509 L925 513 Q911 517 897 533 Q894 536 876 560 Q878 578 861 580 Q855 577 849 577 Q843 583 837 582 L832 582 Q829 577 822 577 Q818 577 810.5 579 Q803 581 800 581 L794 578 L794 574 Q799 569 799 524 Q798 516 797 503 Q796 490 799 482 L796 474 Q796 467 798 453 Q800 439 800 432 Q800 424 797 403.5 Q794 383 795 372 L795 362 L798 358 Q805 357 812 357 Q805 357 813 358 Q821 358 836 358 L861 358 Q863 367 864 374 L860 382 Q861 387 863 393 Q861 404 866 428 L861 430 Q863 437 867 442 L870 442 L877 436 Q886 436 913 408.5 Q940 381 941 371 Q952 361 955 359 Q950 359 957 360 Q963 360 974 360 L993 360 L996 364 L996 368 Q996 371 994 395 L998 405 Q998 427 994 436 Q1000 459 1000 540 Q1000 538 997 552 L1001 564 Z M670 652 L670 724 Q670 737 664 737 Q640 737 640 682 Q640 645 657 645 Q670 645 670 652 Z M736 359 Q730 381 730 401 Q730 405 733 414 Q736 423 736 427 Q736 436 733 454.5 Q730 473 730 482 Q730 484 732.5 488.5 Q735 493 735 494 Q735 499 733 508 Q731 517 731 521 L734 526 Q734 553 735 567 L734 582 L724 583 L720 581 Q708 582 702 581 L698 584 Q687 585 669 581 L664 584 L659 582 Q655 550 655 525 L657 518 Q653 518 645 516.5 Q637 515 633 515 Q629 515 616 518 Q614 515 609 513 L606 517 Q608 552 602 560 Q604 574 606 581 L603 583 L592 577 L586 578 L581 583 L559 583 L529 582 L526 580 L525 575 Q525 563 529 557 L526 539 L527 537 Q528 475 532 468 Q529 457 530 447 Q532 429 533 425 Q533 414 530.5 393.5 Q528 373 528 362 L531 355 L538 354 L596 354 L603 356 L604 363 Q604 367 603 373.5 Q602 380 602 384 Q606 391 606 395 Q606 399 604 408 Q602 417 602 421 Q602 418 607 448 Q628 453 639 454 L646 450 L652 451 L654 446 Q656 430 652 400 Q654 374 653 361 L656 357 L675 360 Q681 357 687 357 Q691 357 698 358 Q705 359 709 359 L712 357 Q722 359 731 357 L736 359 Z M846 175 L846 222 Q844 243 833 243 Q815 243 815 193 Q815 157 832 157 Q846 157 846 175 Z M470 471 Q470 497 453 527 L447 530 Q417 584 342 584 Q318 584 279 567 Q273 552 258 549 Q252 540 243 534 Q242 523 232 498.5 Q222 474 222 460 Q222 434 238.5 409.5 Q255 385 279 374 Q287 355 357 355 Q375 355 430 385 Q431 389 445 403 Q459 417 459 433 L459 435 Q463 441 467 446 Q467 450 468.5 458.5 Q470 467 470 471 Z M583 227 Q583 247 569 247 Q555 247 552 211 Q554 216 560 216 Q563 216 568 211.5 Q573 207 576 207 Q583 207 583 227 Z M453 163 L452 238 Q452 247 445 247 Q421 247 421 205 Q421 156 445 156 Q453 156 453 163 Z M166 362 Q166 366 164 374 Q162 382 162 386 Q162 389 163.5 395 Q165 401 165 404 L164 410 L162 412 L152 412 L150 410 Q142 410 136 414 Q114 412 101 415 L100 412 L95 411 L93 413 L95 429 Q96 438 95 445 L93 448 L92 454 Q92 461 95 475 Q98 489 98 496 Q96 501 94 505 Q95 511 95 515 L93 517 Q93 521 95.5 527 Q98 533 98 537 Q98 545 92 551 Q92 553 94 558.5 Q96 564 96 566 L96 578 L94 581 Q89 581 78 582 Q67 583 62 583 Q60 583 56.5 581 Q53 579 52 579 Q50 579 38 581 Q31 582 24 581 L21 576 L21 553 L25 548 L25 543 Q25 532 22.5 510 Q20 488 20 477 L23 467 Q23 460 20.5 447 Q18 434 18 427 Q18 367 20 359 L24 356 Q36 358 41 359 Q48 356 58 356 Q79 356 84 359 L92 356 Q105 359 112 360 L116 357 Q131 358 139 359 L142 357 Q153 361 155 361 Q158 361 163 360 L166 362 Z M1386 488 Q1383 476 1380 457 Q1365 434 1352 434 Q1349 436 1347 437 Q1340 433 1335 432 L1331 433 L1330 437 L1333 443 Q1332 452 1332 454 Q1332 455 1333 458 L1333 464 Q1333 467 1330.5 474.5 Q1328 482 1328 486 Q1328 489 1330 496 Q1332 503 1332 506 L1332 507 Q1328 512 1328 519 Q1328 522 1332 526 L1330 529 L1332 532 L1335 532 L1338 530 Q1345 537 1355 537 Q1373 537 1374 527 Q1382 524 1382 516 Q1382 514 1381 513 L1383 510 Q1383 506 1384.5 498.5 Q1386 491 1386 488 Z M389 458 Q376 426 373 422 Q362 407 337 407 Q323 415 316 418 Q307 429 304 431 Q304 438 301.5 450.5 Q299 463 299 470 Q299 473 301 478 Q303 483 303 486 Q303 493 301 496 Q302 506 312.5 516 Q323 526 333 527 L335 530 Q339 532 343 532 Q348 532 357.5 526 Q367 520 368 515 L376 512 Q382 503 386 499 Q386 468 389 458 Z M1372 487 Q1369 490 1369 497 Q1369 524 1355 524 L1343 519 L1342 515 L1345 512 L1345 509 Q1345 504 1343 494.5 Q1341 485 1341 481 Q1341 479 1347 452 L1351 449 Q1368 452 1368 469 L1368 477 Q1368 478 1370 481.5 Q1372 485 1372 487 Z M373 461 Q373 462 372 464 L372 490 Q370 498 358.5 507 Q347 516 339 516 L337 515 Q327 510 323 509 Q321 500 315 498 Q313 505 313 475 Q313 473 314 472 L312 468 Q312 466 314 461 Q317 446 317 438 Q321 433 326 425 Q328 425 332.5 423 Q337 421 340 421 Q333 421 349 423 Q356 429 366 451 Q373 467 373 461 Z " />
<glyph glyph-name="underscore" unicode="&#x5f;" horiz-adv-x="4972" d="M60.5 920.5 Q99 965 150 965 Q221 965 259 891 Q278 853 278 808 Q278 736 236 690 Q198 650 150 650 Q108 650 75.5 679.5 Q43 709 30 751 Q22 779 22 808 Q22 876 60.5 920.5 Z M40 682 Q85 624 150 624 Q218 624 264 689 Q300 740 300 808 Q300 855 280 898 Q259 945 222.5 967.5 Q186 990 150 990 Q102 990 65 958 Q28 926 12 879 Q0 844 0 808 Q0 735 40 682 Z M156 730 Q124 730 110 766 Q102 786 102 810 Q102 860 127 879 Q139 887 153 887 Q193 887 198 841 L223 841 Q218 890 180 909 Q166 916 151 916 Q106 916 84 868 Q72 842 72 808 Q72 767 92 737 Q115 702 154 702 Q213 702 224 772 L199 772 Q189 730 156 730 Z M478 854 L441 854 L441 862 Q441 913 465.5 947.5 Q490 982 540 982 Q586 982 610.5 952 Q635 922 635 875 Q635 816 587 777 Q582 773 537 743 Q504 721 491.5 705 Q479 689 475 667 L635 667 L635 624 L434 624 Q439 691 458 721 Q469 738 486 754 Q513 772 563 810 Q595 837 595 875 Q595 942 537 942 Q481 942 478 854 Z M769 942 Q829 942 829 801 Q829 656 769 656 Q708 656 708 796 Q708 942 769 942 Z M714 636 Q737 616 768 616 Q869 616 869 802 Q869 930 820 966 Q799 982 771 982 Q668 982 668 797 Q668 678 714 636 Z M1021 942 Q1081 942 1081 801 Q1081 656 1020 656 Q960 656 960 796 Q960 942 1021 942 Z M966 636 Q988 616 1019 616 Q1121 616 1121 802 Q1121 930 1072 966 Q1051 982 1023 982 Q920 982 920 797 Q920 678 966 636 Z M1273 942 Q1333 942 1333 801 Q1333 656 1272 656 Q1212 656 1212 796 Q1212 942 1273 942 Z M1218 636 Q1240 616 1271 616 Q1373 616 1373 802 Q1373 930 1324 966 Q1302 982 1275 982 Q1172 982 1172 797 Q1172 678 1218 636 Z M1576 624 L1536 624 L1536 990 L1576 990 L1576 839 L1735 839 L1735 990 L1776 990 L1776 624 L1735 624 L1735 796 L1576 796 L1576 624 Z M2031 624 L1839 624 L1839 990 L1879 990 L1879 668 L2031 668 L2031 624 Z M2155 656 Q2092 656 2092 758 Q2092 859 2155 859 Q2219 859 2219 758 Q2219 656 2155 656 Z M2155 899 Q2102 899 2076 853 Q2054 815 2054 758 Q2054 700 2074 665 Q2092 635 2120 623 Q2136 616 2155 616 Q2209 616 2235 662 Q2257 700 2257 758 Q2257 815 2235 853 Q2209 899 2155 899 Z M2336 624 L2299 624 L2299 991 L2336 991 L2336 855 Q2353 882 2374 891 Q2387 897 2404 897 Q2453 897 2469 855 Q2477 834 2477 795 L2477 624 L2440 624 L2440 792 Q2440 838 2421 851 Q2411 857 2396 857 Q2336 857 2336 771 L2336 624 Z M2532 624 L2532 891 L2567 891 L2567 853 Q2583 880 2606 891 Q2620 897 2637 897 Q2684 897 2702 855 Q2710 837 2710 795 L2710 624 L2672 624 L2672 792 Q2672 857 2629 857 Q2584 857 2571 803 Q2569 791 2569 771 L2569 624 L2532 624 Z M2857 859 Q2894 859 2908 822 Q2915 804 2916 778 L2794 778 Q2800 859 2857 859 Z M2856 656 Q2797 656 2794 741 L2954 741 Q2954 788 2951 807 Q2943 862 2903 887 Q2882 899 2857 899 Q2806 899 2778 852 Q2754 812 2754 757 Q2754 660 2811 627 Q2830 616 2855 616 Q2894 616 2921 644 Q2945 670 2951 709 L2915 709 Q2898 656 2856 656 Z M3036 624 L2999 624 L2999 891 L3034 891 L3034 845 Q3057 897 3093 897 Q3098 897 3105 895 L3105 848 Q3096 850 3091 850 Q3056 850 3040 812 Q3036 800 3036 775 L3036 624 Z M3333 749 Q3320 736 3307 736 Q3276 736 3276 784 Q3276 848 3311 877 Q3323 887 3334 887 Q3365 887 3365 846 Q3365 782 3333 749 Z M3327 913 Q3282 913 3256 853 Q3242 821 3242 787 Q3242 756 3255 734 Q3270 708 3299 708 Q3339 708 3359 760 Q3358 754 3358 750 Q3358 710 3397 710 Q3430 710 3456 742 Q3488 781 3488 845 Q3488 944 3414 981 Q3378 1000 3334 1000 Q3247 1000 3196 930 Q3156 874 3156 801 Q3156 690 3233 639 Q3272 613 3324 613 Q3382 613 3430 645 Q3444 653 3460 668 L3446 691 Q3391 642 3328 642 Q3261 642 3222 688 Q3185 731 3185 799 Q3185 904 3256 949 Q3291 971 3337 971 Q3416 971 3446 913 Q3460 883 3460 845 Q3460 776 3425 749 Q3412 740 3400 740 Q3382 740 3382 761 Q3382 771 3388 795 L3415 904 L3385 904 L3375 863 Q3371 913 3327 913 Z M3628 653 Q3589 653 3589 698 Q3589 731 3626 741 Q3628 741 3654 746 L3675 750 Q3687 752 3697 760 L3697 717 Q3697 690 3676 671.5 Q3655 653 3628 653 Z M3649 862 Q3698 862 3698 817 Q3698 789 3679 786 L3618 776 Q3591 772 3574 756 Q3552 733 3552 694 Q3552 660 3570.5 638 Q3589 616 3621 616 Q3665 616 3699 659 Q3702 621 3738 621 Q3746 621 3759 625 L3759 656 Q3751 654 3746 654 Q3734 654 3734 670 L3734 823 Q3734 854 3717 875 Q3696 899 3650 899 Q3583 899 3566 845 Q3563 832 3562 811 L3597 811 Q3600 862 3649 862 Z M3883 656 Q3819 656 3819 758 Q3819 859 3883 859 Q3947 859 3947 758 Q3947 656 3883 656 Z M3883 899 Q3830 899 3803 853 Q3781 815 3781 758 Q3781 700 3801 665 Q3819 635 3847 623 Q3863 616 3883 616 Q3936 616 3963 662 Q3984 700 3984 758 Q3984 815 3963 853 Q3936 899 3883 899 Z M4065 624 L4028 624 L4028 990 L4065 990 L4065 624 Z M4172 624 L4129 624 L4129 679 L4172 679 L4172 624 Z M4373 717 L4408 717 Q4397 616 4317 616 Q4246 616 4228 698 Q4223 723 4223 751 Q4223 812 4245 849 Q4273 897 4322 897 Q4400 897 4408 800 L4373 800 Q4366 858 4323 858 Q4261 858 4261 752 Q4261 653 4318 653 Q4364 653 4373 717 Z M4534 656 Q4470 656 4470 758 Q4470 859 4534 859 Q4598 859 4598 758 Q4598 656 4534 656 Z M4534 899 Q4481 899 4454 853 Q4432 815 4432 758 Q4432 700 4453 665 Q4470 635 4498 623 Q4514 616 4534 616 Q4587 616 4614 662 Q4636 700 4636 758 Q4636 815 4614 853 Q4587 899 4534 899 Z M4678 624 L4678 891 L4714 891 L4714 853 Q4731 881 4752 891 Q4764 897 4778 897 Q4819 897 4837 855 Q4865 897 4902 897 Q4958 897 4969 844 Q4972 829 4972 802 L4972 624 L4934 624 L4934 811 Q4934 856 4896 856 Q4869 856 4855 832 Q4843 812 4843 784 L4843 624 L4806 624 L4806 809 Q4806 857 4771 857 Q4744 857 4728 831 Q4715 809 4715 781 L4715 624 L4678 624 Z M23 8 L23 275 L59 275 L59 237 Q76 265 97 275 Q109 281 123 281 Q164 281 183 239 Q210 281 247 281 Q303 281 314 228 Q317 213 317 186 L317 8 L279 8 L279 195 Q279 240 241 240 Q214 240 200 216 Q188 196 188 168 L188 8 L151 8 L151 193 Q151 241 116 241 Q90 241 74 215 Q60 193 60 165 L60 8 L23 8 Z M464 243 Q501 243 515 206 Q522 188 523 162 L401 162 Q407 243 464 243 Z M463 40 Q404 40 401 125 L561 125 Q561 172 558 191 Q550 246 510 271 Q489 283 464 283 Q413 283 385 236 Q361 196 361 141 Q361 44 418 11 Q437 0 462 0 Q501 0 528 28 Q552 54 558 93 L522 93 Q505 40 463 40 Z M605 8 L605 275 L641 275 L641 237 Q658 265 679 275 Q691 281 705 281 Q746 281 764 239 Q792 281 829 281 Q885 281 896 228 Q899 213 899 186 L899 8 L861 8 L861 195 Q861 240 823 240 Q796 240 782 216 Q770 196 770 168 L770 8 L733 8 L733 193 Q733 241 698 241 Q671 241 655 215 Q642 193 642 165 L642 8 L605 8 Z M984 142 Q984 242 1047 242 Q1105 242 1105 144 Q1105 39 1045 39 Q984 39 984 142 Z M984 8 L984 42 Q1007 0 1048 0 Q1098 0 1123 52 Q1143 92 1143 147 Q1143 241 1091 272 Q1073 282 1052 282 Q1012 282 986 241 L986 374 L950 374 L950 8 L984 8 Z M1278 243 Q1315 243 1329 206 Q1337 188 1337 162 L1215 162 Q1221 243 1278 243 Z M1277 40 Q1218 40 1215 125 L1375 125 Q1375 172 1372 191 Q1364 247 1324 271 Q1303 283 1278 283 Q1227 283 1199 236 Q1175 196 1175 141 Q1175 44 1232 11 Q1251 0 1276 0 Q1315 0 1342 28 Q1366 54 1372 93 L1336 93 Q1320 40 1277 40 Z M1457 8 L1420 8 L1420 275 L1455 275 L1455 229 Q1478 281 1514 281 Q1519 281 1526 280 L1526 232 Q1517 234 1512 234 Q1477 234 1462 196 Q1457 184 1457 160 L1457 8 Z M1546 92 L1582 92 Q1585 37 1639 37 Q1691 37 1691 80 Q1691 106 1649 118 L1617 128 Q1553 147 1553 201 Q1553 251 1592 273 Q1611 283 1636 283 Q1674 283 1696 260.5 Q1718 238 1719 199 L1684 199 Q1680 246 1634 246 Q1588 246 1588 208 Q1588 181 1626 170 L1668 157 Q1726 140 1726 89 Q1726 48 1702 24 Q1678 0 1637 0 Q1550 0 1546 92 Z M1814 8 L1772 8 L1772 63 L1814 63 L1814 8 Z M1945 37 Q1906 37 1906 82 Q1906 115 1942 125 Q1945 125 1971 130 L1992 134 Q2004 136 2014 144 L2014 101 Q2014 74 1993 55.5 Q1972 37 1945 37 Z M1965 246 Q2014 246 2014 201 Q2014 173 1995 170 L1934 161 Q1907 156 1891 140 Q1868 117 1868 78 Q1868 44 1886.5 22 Q1905 0 1938 0 Q1982 0 2016 43 Q2019 5 2055 5 Q2063 5 2075 9 L2075 40 Q2067 38 2063 38 Q2051 38 2051 54 L2051 207 Q2051 238 2032 260.5 Q2013 283 1966 283 Q1900 283 1883 229 Q1879 217 1878 195 L1913 195 Q1917 246 1965 246 Z M2200 40 Q2136 40 2136 142 Q2136 243 2200 243 Q2263 243 2263 142 Q2263 40 2200 40 Z M2200 283 Q2146 283 2120 237 Q2098 199 2098 142 Q2098 84 2118 49 Q2136 19 2164 7 Q2180 0 2200 0 Q2253 0 2280 46 Q2301 84 2301 142 Q2301 199 2279 237 Q2253 283 2200 283 Z M2381 8 L2344 8 L2344 374 L2381 374 L2381 8 Z M2489 8 L2446 8 L2446 63 L2489 63 L2489 8 Z M2689 102 L2724 102 Q2714 0 2634 0 Q2562 0 2545 82 Q2540 107 2540 135 Q2540 196 2562 233 Q2590 282 2639 282 Q2717 282 2724 184 L2689 184 Q2682 242 2639 242 Q2577 242 2577 136 Q2577 37 2635 37 Q2680 37 2689 102 Z M2851 40 Q2787 40 2787 142 Q2787 243 2851 243 Q2915 243 2915 142 Q2915 40 2851 40 Z M2851 283 Q2798 283 2771 237 Q2749 199 2749 142 Q2749 84 2769 49 Q2787 19 2815 7 Q2831 0 2851 0 Q2904 0 2931 46 Q2952 84 2952 142 Q2952 199 2930 237 Q2904 283 2851 283 Z M2995 8 L2995 275 L3031 275 L3031 237 Q3048 265 3068 275 Q3080 281 3095 281 Q3136 281 3154 239 Q3181 281 3219 281 Q3275 281 3285 228 Q3288 213 3288 186 L3288 8 L3250 8 L3250 195 Q3250 240 3213 240 Q3186 240 3172 216 Q3160 196 3160 168 L3160 8 L3123 8 L3123 193 Q3123 241 3087 241 Q3061 241 3045 215 Q3031 193 3031 165 L3031 8 L2995 8 Z M3316 8 L3411 374 L3442 374 L3347 8 L3316 8 Z M3541 238 L3504 238 L3504 8 L3467 8 L3467 238 L3437 238 L3437 274 L3467 274 L3467 321 Q3467 379 3523 379 Q3531 379 3541 378 L3541 337 Q3531 338 3527 338 Q3504 338 3504 307 L3504 274 L3541 274 L3541 238 Z M3664 40 Q3600 40 3600 142 Q3600 243 3664 243 Q3728 243 3728 142 Q3728 40 3664 40 Z M3664 283 Q3611 283 3584 237 Q3563 199 3563 142 Q3563 84 3583 49 Q3600 19 3629 7 Q3644 0 3664 0 Q3718 0 3744 46 Q3766 84 3766 142 Q3766 199 3744 237 Q3717 283 3664 283 Z M3808 8 L3808 275 L3843 275 L3843 237 Q3859 264 3882 275 Q3897 282 3913 282 Q3961 282 3978 239 Q3986 221 3986 179 L3986 8 L3949 8 L3949 176 Q3949 241 3905 241 Q3860 241 3848 187 Q3845 175 3845 155 L3845 8 L3808 8 Z M4018 275 L4048 275 L4048 349 L4085 349 L4085 275 L4120 275 L4120 238 L4085 238 L4085 64 Q4085 43 4106 43 Q4112 43 4120 44 L4120 8 Q4109 4 4093 4 Q4048 4 4048 62 L4048 238 L4018 238 L4018 275 Z M4157 8 L4157 275 L4191 275 L4191 237 Q4208 264 4231 275 Q4245 282 4262 282 Q4309 282 4327 239 Q4335 221 4335 179 L4335 8 L4297 8 L4297 176 Q4297 241 4254 241 Q4209 241 4196 187 Q4193 175 4193 155 L4193 8 L4157 8 Z M4481 243 Q4518 243 4533 206 Q4540 188 4541 162 L4419 162 Q4425 243 4481 243 Z M4481 40 Q4421 40 4419 125 L4579 125 Q4579 172 4576 191 Q4567 247 4527 271 Q4507 283 4482 283 Q4430 283 4402 236 Q4379 196 4379 141 Q4379 44 4435 11 Q4455 0 4480 0 Q4519 0 4544.5 27 Q4570 54 4576 93 L4540 93 Q4523 40 4481 40 Z M4660 8 L4624 8 L4624 275 L4658 275 L4658 229 Q4681 281 4718 281 Q4723 281 4730 280 L4730 232 Q4720 234 4716 234 Q4680 234 4665 196 Q4660 184 4660 160 L4660 8 Z " />
<glyph glyph-name="grave" unicode="&#x60;" horiz-adv-x="507" d="M99 841 L413 773 L153 960 L99 841 Z M173 878 L186 898 L333 804 L173 878 Z " />
<glyph glyph-name="a" unicode="a" horiz-adv-x="855" d="M854 67 L854 -2 Q846 -4 832 -4 Q737 -4 693 51 Q638 -1 538 -1 Q521 -1 505 1 L505 67 Q536 67 561 76 Q596 88 596 112 Q596 126 578 160 Q565 182 552 205 L242 205 Q216 143 216 127 Q216 65 308 67 L308 1 Q294 -2 274 -2 Q205 -2 166 40 Q107 -4 46 -4 Q23 -4 3 5 L3 71 Q76 74 103 137 Q157 262 212 388 Q302 599 302 623 Q302 654 262 654 Q250 654 237 652 L238 732 Q258 737 286 737 Q378 737 423 677 Q443 705 484 721 Q521 736 559 736 Q580 736 601 732 L601 660 Q576 659 558 647 Q536 633 536 610 Q536 595 546 576 L773 137 Q812 62 854 67 Z M644 127 Q644 168 628 199 L449 558 Q439 576 408 592 L644 127 Z M492 311 L379 537 L289 312 L492 311 Z " />
<glyph glyph-name="b" unicode="b" horiz-adv-x="707" d="M691 218 Q691 108 590 45 Q504 -8 386 -8 Q283 -8 213 49 Q188 24 144 10 Q104 -3 65 -3 L55 -2 L55 69 Q87 77 106.5 103.5 Q126 130 126 164 L126 558 Q126 607 107 636 Q83 671 37 665 L37 733 Q54 735 79 735 Q183 735 219 696 Q304 745 407 745 Q504 745 581 689 Q665 627 665 535 Q665 452 578 403 Q627 382 660 325 Q691 272 691 218 Z M548 558 Q548 606 496 643 Q529 607 529 551 Q529 507 502 464 Q548 506 548 558 Z M485 558 Q485 604 463 635 Q438 670 394 670 Q362 670 335 659 Q301 643 301 614 L301 435 Q318 434 333 434 Q485 434 485 558 Z M586 224 Q586 275 531 318 Q563 274 563 216 Q563 160 523 113 Q586 161 586 224 Z M523 221 Q523 276 483 314 Q443 352 387 352 Q348 352 303 331 L303 167 Q303 80 385 80 Q443 80 483 120.5 Q523 161 523 221 Z M190 522 Q190 604 158 637 Q170 616 170 553 L170 203 Q170 123 150 102 Q190 115 190 186 L190 522 Z " />
<glyph glyph-name="c" unicode="c" horiz-adv-x="638" d="M625 228 Q613 129 530 58.5 Q447 -12 347 -12 Q199 -12 112 98 Q30 199 30 352 Q30 512 102 620 Q185 744 337 744 Q421 744 508 695 L527 728 L588 724 L588 480 L529 478 Q488 659 371 659 Q284 659 240 555 Q206 477 206 377 Q206 273 241 194 Q287 90 378 90 Q444 90 494 141 Q540 188 553 255 L625 228 Z M213 62 Q160 115 128 206 Q99 290 99 371 Q99 491 156 615 Q75 533 75 368 Q75 274 106 196 Q142 106 213 62 Z " />
<glyph glyph-name="d" unicode="d" horiz-adv-x="668" d="M664 373 Q664 210 597 112 Q518 -3 363 -3 Q251 -3 197 59 Q174 30 133.5 13.5 Q93 -3 54 -3 Q40 -3 27 -1 L27 63 Q60 70 81 96.5 Q102 123 102 158 L102 551 Q102 599 88 630 Q68 672 26 666 L26 733 Q42 736 65 736 Q156 736 183 682 Q244 738 355 738 Q512 738 592 631 Q664 536 664 373 Z M542 376 Q542 567 464 637 Q518 536 518 385 Q518 216 463 115 Q542 184 542 376 Z M478 392 Q478 484 456 557 Q424 666 356 666 Q269 666 269 559 L269 185 Q269 149 284 121 Q303 87 336 87 Q420 87 455 205 Q478 280 478 392 Z M164 517 Q164 600 133 632 Q145 611 145 548 L145 198 Q145 118 125 97 Q164 110 164 181 L164 517 Z " />
<glyph glyph-name="e" unicode="e" horiz-adv-x="689" d="M661 241 L643 -1 L589 -1 L562 45 Q481 -2 387 -2 Q296 -2 232 56 Q168 -3 98 -3 Q81 -3 65 2 L65 76 Q96 76 112 113 Q125 141 125 176 L124 542 Q124 592 107 625 Q85 669 40 662 L40 735 L60 736 Q182 739 204 685 Q278 736 365 736 Q397 736 448 720.5 Q499 705 520 705 Q557 705 563 738 L618 711 L619 556 L562 538 Q552 587 509 617 Q466 647 415 647 Q343 647 316 607 Q297 577 297 510 Q297 497 297 469 Q298 442 298 427 Q316 419 337 419 Q405 419 409 518 L479 515 Q480 507 480 494 Q480 395 436 384 Q483 349 488 272 L408 272 Q394 308 384 319 Q368 335 333 335 Q310 335 299 320 Q299 210 306 177 Q325 86 398 86 Q477 86 525 128 Q577 172 580 251 L661 241 Z M191 517 Q191 545 183 578 Q173 616 158 632 Q170 611 170 548 L170 198 Q170 118 150 97 Q191 110 191 181 L191 517 Z " />
<glyph glyph-name="f" unicode="f" horiz-adv-x="612" d="M605 522 L526 511 Q464 657 355 657 Q322 657 300 638.5 Q278 620 278 587 L278 425 Q286 423 297 423 Q375 423 391 511 L467 511 Q468 465 465 448 Q456 408 419 396 Q469 358 469 292 Q469 282 467 272 L394 270 Q385 297 364 317.5 Q343 338 317 338 Q288 338 282 335 L281 207 Q281 152 303 115 Q329 70 380 69 L380 -4 Q371 -6 355 -6 Q273 -6 222 53 Q164 -3 71 -3 Q54 -3 36 0 L36 67 Q68 74 86 103 Q104 132 104 166 L104 573 Q104 613 87 641 Q67 675 31 672 L31 735 L47 735 Q156 738 205 692 Q288 740 355 740 Q404 740 456 716 Q476 694 497 694 Q521 694 532 728 L580 714 L605 522 Z M167 527 Q167 554 158 588 Q148 626 133 642 Q145 621 145 558 L145 208 Q145 128 125 107 Q167 120 167 191 L167 527 Z " />
<glyph glyph-name="g" unicode="g" horiz-adv-x="656" d="M639 342 Q577 322 577 222 L577 5 L477 5 L446 33 Q382 -7 302 -7 Q260 -7 232 2 Q-10 77 -10 380 Q-10 524 73 631 Q163 746 303 746 Q386 746 451 711 L456 739 L536 724 L582 539 L508 520 Q498 582 451 625.5 Q404 669 342 669 Q249 669 205 556 Q174 476 174 366 Q174 258 201 185 Q240 80 328 80 Q369 80 397.5 103 Q426 126 426 167 L426 262 Q426 294 402 317.5 Q378 341 344 348 L344 429 Q439 424 501 370 Q540 414 639 417 L639 342 Z M492 246 Q492 268 480 295 Q467 327 449 329 Q470 293 470 199 Q470 175 468.5 136 Q467 97 467 86 L491 64 L492 246 Z M153 84 Q68 220 68 387 Q68 521 132 636 Q88 589 62 513 Q36 442 36 375 Q36 202 153 84 Z " />
<glyph glyph-name="h" unicode="h" horiz-adv-x="820" d="M791 2 Q770 -1 742 -1 Q655 -1 614 41 Q565 -2 483 -2 Q461 -2 438 2 L438 68 Q479 69 504 103 Q527 134 527 177 L528 354 L309 353 L309 154 Q309 72 400 67 L400 -1 Q390 -2 373 -2 Q268 -2 227 42 Q172 -1 95 -1 Q69 -1 43 6 L42 70 Q82 74 111 96 Q144 121 144 158 L143 583 Q143 623 119 646 Q95 669 54 666 L53 733 Q69 736 92 736 Q174 736 224 697 Q276 736 341 736 Q373 736 402 724 L402 664 Q364 662 338 641 Q310 617 310 581 L311 455 L530 455 Q530 474 530 513 Q531 552 531 572 Q531 659 446 666 L446 727 Q474 735 509 735 Q585 735 622 689 Q670 736 739 736 Q765 736 789 728 L790 664 L783 664 Q749 665 729 648 Q706 630 706 596 L706 168 Q706 79 790 70 L791 2 Z M593 191 L593 527 Q593 554 582.5 589.5 Q572 625 556 642 Q568 621 568 558 L568 208 Q568 128 548 107 Q569 114 582 143 Q593 167 593 191 Z M208 527 Q208 554 197.5 589.5 Q187 625 171 642 Q183 621 183 558 L183 208 Q183 128 163 107 Q184 114 197 143 Q208 167 208 191 L208 527 Z " />
<glyph glyph-name="i" unicode="i" horiz-adv-x="411" d="M377 659 Q345 658 324.5 637.5 Q304 617 304 585 L304 145 Q304 75 371 65 L371 1 Q357 -2 337 -2 Q251 -2 205 55 Q188 28 152 12.5 Q116 -3 82 -2 L62 -1 L62 65 Q94 67 112.5 92 Q131 117 131 150 L130 561 Q130 666 51 660 L51 727 Q74 737 106 737 Q169 737 215 689 Q253 739 330 739 Q352 739 376 733 L377 659 Z M196 191 L196 527 Q196 555 187 588 Q178 626 162 642 Q175 621 175 558 L175 208 Q175 128 155 107 Q176 114 187 143 Q196 166 196 191 Z " />
<glyph glyph-name="j" unicode="j" horiz-adv-x="666" d="M645 733 L645 657 Q609 658 584 638 Q559 618 559 583 L559 290 Q559 -14 282 -14 Q189 -14 114 28 Q25 80 25 166 Q25 215 55 253.5 Q85 292 132 292 Q178 292 211 261.5 Q244 231 244 186 Q244 127 196 98 Q226 50 272 50 Q317 50 350.5 85.5 Q384 121 384 167 L384 551 Q384 599 358 630 Q332 661 285 662 L285 730 Q310 736 345 736 Q440 736 488 681 Q507 707 544 722 Q577 736 612 736 Q628 736 645 733 Z M445 175 L445 552 Q445 621 409 638 Q424 611 424 579 L425 172 Q425 125 401 101 Q445 126 445 175 Z M135 251 Q102 256 83 223 Q68 196 68 161 Q68 119 100 95 Q85 113 85 143 Q85 158 88 172 Q105 234 135 251 Z " />
<glyph glyph-name="k" unicode="k" horiz-adv-x="728" d="M717 70 L717 2 Q691 -6 655 -6 Q578 -6 528 38 Q478 -3 411 -3 Q387 -3 364 4 L365 81 Q416 89 416 120 Q416 127 318 338 L245 263 L245 166 Q245 128 265 104.5 Q285 81 323 84 L323 1 Q311 -2 293 -2 Q220 -2 176 52 Q120 -3 26 -3 Q11 -3 -5 -1 L-5 66 Q32 72 54 106 Q73 136 73 176 L73 551 Q73 601 63 624 Q47 658 2 659 L2 728 Q33 736 71 736 Q145 736 177 700 Q193 736 260 736 Q284 736 312 730 L312 661 Q280 656 260.5 630 Q241 604 241 571 L241 427 L414 595 Q433 612 433 633 Q433 659 384 659 L385 729 Q406 735 434 735 Q495 735 528 699 Q570 736 626 736 Q649 736 671 727 L671 657 L667 657 Q625 659 575 609 L443 476 L596 158 Q610 128 649 99 Q688 70 717 70 Z M476 148 Q476 179 431 273 Q399 335 368 397 L350 377 Q385 306 420 235 Q466 133 464 88 Q476 116 476 148 Z M140 191 L140 527 Q140 610 109 642 Q121 621 121 558 L121 208 Q121 128 101 107 Q140 120 140 191 Z " />
<glyph glyph-name="l" unicode="l" horiz-adv-x="638" d="M650 255 L588 -1 L518 -1 L501 31 Q424 -3 341 -3 Q247 -3 197 54 Q152 -1 87 -1 Q61 -1 35 10 L35 81 Q77 81 102 116 Q124 147 124 190 L125 576 Q125 651 31 664 L31 731 Q51 735 78 735 Q164 735 211 686 Q256 737 342 737 Q360 737 378 734 L378 663 L375 663 Q337 665 315.5 639.5 Q294 614 294 574 L294 147 Q334 123 389 123 Q517 123 592 286 L650 255 Z M189 191 L188 527 Q188 554 179 588 Q169 626 154 642 Q166 621 166 558 L166 208 Q166 128 146 107 Q189 120 189 191 Z " />
<glyph glyph-name="m" unicode="m" horiz-adv-x="960" d="M931 74 L930 2 Q913 -1 888 -1 Q795 -1 750 47 Q729 22 680 8 Q640 -3 599 -3 Q579 -3 558 -1 L558 71 Q603 75 632 107 Q661 139 661 185 L661 455 L449 172 L231 490 L231 179 Q231 101 320 74 L320 1 Q304 -1 281 -1 Q200 -1 172 40 Q132 -3 62 -3 Q48 -3 33 -1 L33 79 Q73 82 100 108.5 Q127 135 127 176 L127 543 Q127 652 38 651 L38 730 L284 730 L490 419 L708 730 L914 730 L915 641 Q882 642 862 620 Q842 598 842 565 L842 180 Q842 95 931 74 Z M733 189 L733 561 L714 535 L713 202 Q713 119 664 92 Q695 102 714 129.5 Q733 157 733 189 Z M461 276 L269 559 Q253 582 228 584 L445 259 L461 276 Z " />
<glyph glyph-name="n" unicode="n" horiz-adv-x="773" d="M755 655 Q724 654 703.5 634 Q683 614 683 583 L683 5 L609 5 L272 393 L272 167 Q272 71 353 74 L353 2 Q338 -4 315 -4 Q257 -4 215 38 Q163 -3 103 -3 Q94 -3 86 -2 L86 72 Q117 75 136.5 98 Q156 121 156 153 L156 523 Q156 577 129 612 Q99 650 45 649 L45 730 L216 730 L576 324 L576 560 Q576 601 560 627 Q539 657 501 657 L501 734 Q512 736 529 736 Q597 736 634 692 Q661 737 733 737 Q743 737 755 736 L755 655 Z M597 125 L246 528 L246 497 L597 93 L597 125 Z " />
<glyph glyph-name="o" unicode="o" horiz-adv-x="660" d="M658 368 Q658 217 575 105 Q483 -18 337 -18 Q196 -18 104 105 Q20 218 20 364 Q20 514 105 626 Q198 749 344 749 Q485 749 576 626 Q658 514 658 368 Z M536 348 Q536 501 442 631 L445 627 Q504 502 504 349 Q504 190 446 86 Q536 198 536 348 Z M454 345 Q454 442 436 525 Q407 654 344 654 Q270 654 238 534 Q219 459 219 352 Q219 266 245 181 Q280 66 344 66 Q454 66 454 345 Z M187 69 Q96 224 96 379 Q96 515 167 638 Q122 586 94.5 509 Q67 432 67 362 Q67 207 187 69 Z " />
<glyph glyph-name="p" unicode="p" horiz-adv-x="657" d="M643 475 Q643 362 568 285 Q493 208 380 208 Q332 208 291 230 L291 140 Q291 105 315 88 Q339 71 375 75 L375 4 Q348 -5 314 -5 Q246 -5 208 43 Q159 -5 72 -5 Q54 -5 36 -2 L36 63 Q68 63 90 81.5 Q112 100 112 131 L112 568 Q112 604 94 627 Q73 653 38 652 L38 732 Q56 735 81 735 Q170 735 211 684 Q293 743 379 743 Q493 743 568 666 Q643 589 643 475 Z M540 495 Q540 575 477 646 Q518 574 518 483 Q518 390 462 318 Q496 350 518 399.5 Q540 449 540 495 Z M474 495 Q474 517 472 534 Q468 570 444 607 Q416 652 383 652 Q345 652 316 625.5 Q287 599 287 562 L286 330 Q310 317 341 317 Q410 317 445 375 Q474 422 474 495 Z M170 186 L170 522 Q170 605 138 637 Q151 616 151 553 L151 203 Q151 123 131 102 Q170 115 170 186 Z " />
<glyph glyph-name="q" unicode="q" horiz-adv-x="696" d="M691 -21 Q691 -69 657.5 -103.5 Q624 -138 577 -138 Q477 -138 397 -13 Q370 -18 342 -18 Q201 -18 109 105 Q25 217 25 364 Q25 514 110 626 Q203 749 349 749 Q490 749 581 626 Q663 514 663 368 Q663 267 622 177 Q579 83 504 31 Q537 -1 559 -1 Q586 -1 610 27 Q630 50 640 80 Q691 33 691 -21 Z M541 348 Q541 496 450 626 Q509 501 509 349 Q509 194 453 90 L453 90 Q541 201 541 348 Z M459 345 Q459 442 441 525 Q412 654 349 654 Q275 654 243 534 Q224 459 224 352 Q224 266 250 181 Q285 66 349 66 Q352 66 354 66 Q336 104 302 191 L370 224 Q388 186 426 128 Q459 201 459 345 Z M192 69 Q98 228 98 379 Q98 510 172 638 Q127 586 99.5 509 Q72 432 72 362 Q72 207 192 69 Z " />
<glyph glyph-name="r" unicode="r" horiz-adv-x="742" d="M733 116 Q733 65 691.5 31 Q650 -3 598 -3 Q505 -3 457 76 Q427 150 398 223 Q366 302 310 302 Q291 302 275 294 Q255 283 255 265 L255 175 Q255 139 277 111 Q299 83 334 82 L334 4 Q314 0 287 0 Q205 0 178 52 Q136 -4 61 -4 Q34 -4 5 6 L5 71 Q37 75 57 99.5 Q77 124 77 156 L77 567 Q77 649 24 649 Q14 649 2 645 L2 723 Q38 739 81 739 Q158 739 199 677 Q229 707 282 727 Q332 745 377 745 Q483 745 551.5 674.5 Q620 604 620 498 Q620 434 582 388.5 Q544 343 481 331 Q528 307 559 254 Q579 211 599.5 170.5 Q620 130 645 130 Q678 130 711 191 Q733 151 733 116 Z M523 538 Q523 592 462 631 Q498 585 498 523 Q498 475 470 432 Q523 480 523 538 Z M453 535 Q453 580 433 607 Q411 638 368 638 Q260 638 260 546 L260 386 Q280 381 298 381 Q368 381 410.5 423 Q453 465 453 535 Z M563 55 Q528 78 493 174 Q460 264 418 279 Q433 269 454 209 Q481 132 495 107 Q524 55 563 55 Z M144 182 L144 523 Q144 551 135 583 Q124 620 108 637 Q120 616 120 553 L120 198 Q120 118 100 97 Q121 105 133 134 Q144 158 144 182 Z " />
<glyph glyph-name="s" unicode="s" horiz-adv-x="627" d="M590 232 Q590 125 502 55 Q420 -11 311 -11 Q262 -11 201.5 14 Q141 39 145 39 Q129 39 133 10 L57 10 L46 274 L117 279 Q135 217 194 152 Q260 79 316 79 Q360 79 393 109 Q426 139 426 183 Q426 257 325 286 Q140 339 136 341 Q35 393 35 521 Q35 622 111 685 Q182 744 286 744 Q382 744 483 690 L494 726 L551 718 L562 480 L502 475 Q459 665 329 665 Q283 665 250 629 Q217 593 217 546 Q217 509 278 486 Q342 468 406 450 Q487 426 519 393 Q590 320 590 232 Z M477 215 Q477 331 269 361 Q195 372 146 421 Q93 472 92 545 Q88 524 88 505 Q88 436 138 394 Q175 362 250 341 Q311 326 372 311 Q404 302 433 258.5 Q462 215 462 181 Q462 165 458 149 Q477 183 477 215 Z " />
<glyph glyph-name="t" unicode="t" horiz-adv-x="653" d="M635 722 L635 475 L562 434 Q553 531 547 552 Q527 635 476 635 Q450 635 427.5 614.5 Q405 594 405 569 L405 164 Q405 128 423 102 Q442 72 476 74 L477 4 Q461 -1 439 -1 Q369 -1 331 50 Q285 -1 192 -1 Q180 -1 167 0 L167 68 Q196 73 214.5 94.5 Q233 116 233 145 L233 573 Q233 634 180 634 Q123 634 92 554 Q70 497 67 428 L1 464 L1 716 L41 731 Q62 707 104 707 Q129 707 173 725.5 Q217 744 244 744 Q299 744 326 701 Q337 719 375 733 Q408 746 433 746 Q465 746 503.5 725 Q542 704 561 704 Q585 704 588 731 L635 722 Z M300 186 L299 522 Q299 604 266 637 Q279 616 279 553 L279 203 Q279 123 259 102 Q300 115 300 186 Z " />
<glyph glyph-name="u" unicode="u" horiz-adv-x="705" d="M689 655 L683 655 Q652 655 635 634.5 Q618 614 618 582 L618 204 Q618 111 539 48 Q466 -12 371 -12 Q259 -12 183 64.5 Q107 141 107 253 L107 573 Q107 612 89 637 Q68 668 31 662 L31 732 Q50 737 78 737 Q155 737 194 687 Q227 737 306 737 Q324 737 343 734 L343 662 Q311 661 291.5 638 Q272 615 272 582 L272 227 Q272 165 304.5 128.5 Q337 92 401 92 Q458 92 489 129.5 Q520 167 520 225 L520 547 Q520 595 500 625 Q476 660 431 661 L430 735 Q443 737 461 737 Q529 737 564 697 Q591 736 643 736 Q665 736 688 726 L689 655 Z M192 116 Q173 175 173 253 L174 518 Q174 588 145 636 Q149 616 149 560 L149 258 Q149 186 192 116 Z " />
<glyph glyph-name="v" unicode="v" horiz-adv-x="777" d="M774 732 L774 653 L768 653 Q701 657 663 551 L460 -1 L320 -1 L128 544 Q91 650 6 650 L6 726 Q33 734 69 734 Q158 734 197 673 Q221 703 269 721 Q312 736 355 736 Q372 736 389 734 L390 654 Q358 653 334 640 Q304 623 304 594 Q304 573 365 405 Q403 303 441 202 L566 553 Q573 573 573 590 Q573 648 503 655 L503 732 Q520 736 540 736 Q596 736 630 698 Q674 737 735 737 Q755 737 774 732 Z M359 75 L214 484 Q193 545 184 564 Q164 611 139 635 L334 74 L359 75 Z " />
<glyph glyph-name="w" unicode="w" horiz-adv-x="1004" d="M961 652 Q950 655 940 655 Q891 655 869 576 L708 -1 L595 0 L468 360 L372 0 L250 0 L80 582 Q62 644 2 654 L3 732 Q19 735 34 735 Q111 735 156 686 Q209 737 278 737 Q310 737 333 728 L334 657 Q298 654 282 645 Q259 632 259 599 Q259 568 290 470 Q311 404 332 338 L435 734 L545 735 L685 311 Q709 389 733 467 Q770 590 770 613 Q770 639 745 652 Q724 663 696 662 L696 734 Q710 738 725 738 Q775 738 821 705 Q873 735 925 735 Q948 735 961 730 L961 652 Z M656 55 L478 594 L469 551 L632 56 L656 55 Z M302 52 L163 531 Q140 610 105 636 Q119 615 137 553 L281 52 L302 52 Z " />
<glyph glyph-name="x" unicode="x" horiz-adv-x="745" d="M730 6 Q703 -1 667 -1 Q588 -1 541 42 Q519 -2 424 -2 Q398 -2 368 3 L368 67 Q434 75 434 113 Q434 131 399 181 Q376 213 353 245 Q329 211 304 177 Q269 124 269 100 Q269 67 315 66 L316 1 Q297 -4 273 -4 Q208 -4 177 35 Q138 -6 68 -4 L52 -3 L52 77 Q120 88 152 136 L290 345 L173 531 Q135 592 112 614 Q70 655 20 649 L20 730 Q49 738 85 738 Q157 738 189 701 Q235 737 312 737 Q336 737 361 732 L361 659 L354 659 Q317 661 317 638 Q317 624 352 569 Q374 534 397 500 Q419 530 441 560 Q477 612 477 625 Q477 651 420 655 L420 732 Q434 735 455 735 Q517 735 552 707 Q590 736 646 736 Q666 736 686 731 L686 656 Q627 641 587 582 L464 395 L596 182 Q660 78 730 86 L730 6 Z M491 130 Q491 161 468 197 L244 540 Q216 582 200 602 Q171 637 144 651 Q158 636 188 590 L403 255 Q428 219 454 182 Q485 134 485 102 Q491 112 491 130 Z " />
<glyph glyph-name="y" unicode="y" horiz-adv-x="739" d="M740 735 L739 655 Q704 654 664 623 Q631 597 608 563 L451 324 L452 141 Q452 113 478 94 Q504 75 537 77 L537 8 Q507 -2 471 -2 Q395 -2 366 53 Q320 -1 240 -1 Q210 -1 179 9 L179 75 L183 75 Q216 75 238.5 91.5 Q261 108 261 140 L261 308 L104 568 Q73 619 70 624 Q44 657 17 657 Q11 657 5 655 L5 732 Q34 739 70 739 Q157 739 186 689 Q218 737 299 737 Q320 737 343 733 L342 658 Q326 662 314 662 Q285 662 285 641 Q285 626 336 542 Q369 492 401 441 Q432 483 464 526 Q512 596 512 625 Q512 666 443 659 L442 731 Q471 736 505 736 Q589 736 608 694 Q661 738 727 736 L740 735 Z M325 156 L325 334 L167 602 Q157 619 136 639 Q112 661 96 663 Q119 654 204 506 Q255 416 306 325 Q306 325 307 297 Q308 269 308 245 Q308 108 282 91 Q325 108 325 156 Z " />
<glyph glyph-name="z" unicode="z" horiz-adv-x="731" d="M706 678 L283 124 Q335 98 384 98 Q456 98 522 155 Q581 205 612 278 L693 257 L674 0 L598 0 Q587 33 547 33 Q521 33 466.5 14 Q412 -5 375 -5 Q341 -5 282 10 Q223 25 195 25 Q130 25 88 -5 L27 122 L435 627 Q397 641 361 641 Q296 641 240 592 Q190 547 166 482 L101 505 L101 734 L181 735 L188 682 Q254 739 361 739 Q437 739 457 728 Q548 676 659 676 Q683 676 706 678 Z M507 625 L488 630 L88 139 L99 120 L507 625 Z " />
<glyph glyph-name="bar" unicode="&#x7c;" horiz-adv-x="774" d="M567 717 L560 709 Q521 743 477 747 Q426 783 347 795 L349 805 Q427 793 481 756 Q526 751 567 717 Z M609 673 L604 665 Q477 750 297 785 L299 794 Q479 760 609 673 Z M648 624 L643 616 Q566 670 468 713 Q357 760 276 765 L277 775 Q362 770 471 723 Q564 683 648 624 Z M672 586 L667 578 Q577 643 461 691 Q332 745 235 748 L235 758 Q338 755 465 702 Q575 656 672 586 Z M695 524 L691 515 Q673 523 614 573 L593 575 Q565 602 492 634 Q430 660 379 673 Q265 703 181 703 L181 713 Q279 713 382 683 Q542 636 598 585 L601 584 Q580 609 528 637 Q413 700 220 730 L221 740 Q481 700 595 604 Q602 597 618 582 L645 579 Q659 572 685 556 L679 548 Q668 556 642 569 L632 571 Q652 553 695 524 Z M694 481 L690 472 Q667 482 628 509 Q602 533 535 569 Q413 634 253 660 L254 670 Q416 643 540 577 Q565 564 617 528 Q665 495 694 481 Z M713 486 L706 478 Q603 565 459 624 Q305 686 180 681 L180 691 L190 692 Q356 696 548 594 Q644 542 713 486 Z M717 396 L710 390 Q673 437 626 478 L624 477 L623 481 Q466 616 317 619 L316 617 L313 619 L313 619 Q299 632 260 629 L259 639 Q269 640 278 639 Q265 644 255 642 L253 652 Q257 652 261 652 Q284 653 316 629 Q469 629 628 489 Q629 489 631 490 Q660 490 700 450 L693 443 Q660 476 638 480 Q686 436 717 396 Z M723 354 L715 348 Q641 458 519 532 Q388 611 265 608 L264 618 L270 618 Q437 622 595 491 Q674 425 723 354 Z M723 243 L713 240 L705 264 L715 267 L723 243 Z M719 334 L711 328 Q582 497 477 541 Q602 472 712 305 L704 300 Q652 380 581 448 Q496 530 423 554 L423 554 Q350 584 271 586 L272 596 Q355 594 430 562 Q461 562 506 538 Q604 484 719 334 Z M705 182 L695 180 L688 206 L697 209 L705 182 Z M238 648 Q230 642 220 641 Q213 641 202 646 L202 645 L199 646 L165 638 L163 648 L198 656 Q202 662 208 665 L163 659 L161 669 L209 676 L211 667 Q218 671 230 675 L233 665 Q217 661 209 654 Q217 651 222 651 Q226 651 231 656 L238 648 Z M709 280 L701 275 Q566 479 416 534 Q395 541 353 554.5 Q311 568 279 567 Q228 566 179 544 Q149 531 90 493 L84 501 Q182 565 215 568 Q236 573 279 577 Q313 578 355 564 Q410 546 430 539 Q470 523 500 504 Q605 438 709 280 Z M245 635 L243 625 Q227 627 210 627 Q174 626 145 612 L141 621 Q171 636 212 637 Q229 637 245 635 Z M257 616 L255 607 Q244 609 232 609 Q191 608 133 587 L130 597 Q189 618 231 618 Q245 619 257 616 Z M705 240 L695 238 Q677 298 653 314 Q689 249 695 210 L685 209 Q679 250 639 318 L639 318 Q637 320 635 325 L635 325 Q598 391 535 444.5 Q472 498 401 522 Q386 527 345 535 Q338 538 326 542 Q301 548 273 548 Q243 547 195 530 Q142 510 130 488 L130 489 L119 479 L112 486 L119 492 Q102 491 85 461 L76 466 Q97 502 119 502 Q124 502 128 500 Q197 557 273 558 Q302 558 328 551 Q335 549 348 545 Q371 540 418 527 Q563 473 645 328 Q679 326 705 240 Z M267 592 L230 584 Q224 569 201 568 Q182 568 162 556 L157 564 Q179 578 206 578 Q216 578 220 587 Q213 590 204 590 Q175 589 127 560 L122 569 Q170 598 203 599 Q218 599 227 594 L265 602 L267 592 Z M157 551 Q142 551 120 531 L114 539 Q138 560 152 561 L157 561 L157 551 Z M659 50 Q645 19 632 9 L626 16 Q608 -11 572 -30 L567 -21 Q624 10 634 57 L643 55 Q639 36 628 18 Q637 25 649 54 L659 50 Z M593 54 Q567 16 540 16 Q510 15 483 60 Q471 81 446 124 Q411 184 356 278 L353 282 L362 287 L364 283 Q417 193 452 133 Q465 110 491 65 Q516 26 538 26 Q561 27 585 60 L593 54 Z M635 4 Q615 -26 594 -34 L590 -24 Q609 -17 627 9 L635 4 Z M696 163 L686 161 Q681 194 663 217 Q638 333 533 428 Q499 458 440 486 Q385 511 336 522 Q301 529 276 529 Q220 528 164 484 Q153 465 135 450 Q139 453 146 454 Q169 483 198 491 Q222 516 273 517 Q335 518 404 491 Q534 442 601 340 Q642 278 657 222 Q688 179 692 114 L682 114 Q680 152 665 187 Q673 149 673 120 Q674 86 665 68 L656 73 Q664 89 663 119 Q663 153 651 203 Q639 257 624 283 Q602 320 591 337 Q571 367 552 387 Q498 444 400 482 Q333 508 273 507 Q227 506 205 483 Q235 500 276 501 Q350 502 429 458 Q431 458 433 458 Q461 459 522.5 408.5 Q584 358 631 249 Q654 195 655 125 Q656 97 651 70 L641 72 Q645 97 645 130 Q643 219 588.5 311.5 Q534 404 456 442 Q526 393 575.5 312 Q625 231 637 147 L638 145 L637 144 Q639 129 639 116 Q640 60 607 21 Q588 -2 579 -11 Q562 -26 544 -34 Q516 -63 486 -64 Q441 -65 399 -5 Q372 34 336 121 Q300 208 288 227 Q294 165 357 43 Q417 -72 488 -70 Q530 -70 576 -28 L583 -36 Q562 -54 544 -65 Q577 -51 615 -30 L620 -39 Q521 -94 462 -95 Q453 -95 446 -94 Q438 -96 430 -96 Q381 -97 341.5 -42.5 Q302 12 295 24 Q269 63 257 95 L257 99 Q257 114 249 126 Q258 66 287 19 Q333 -54 348 -69 Q386 -108 445 -107 Q453 -107 469 -107 Q488 -106 515 -92 Q556 -71 607 -56 L612 -54 L615 -64 L610 -65 Q559 -81 520 -101 Q490 -116 469 -117 Q461 -117 445 -117 Q364 -118 308 -33 Q244 66 237 137 L235 139 L237 141 Q216 204 215 254 Q214 287 223 313 L232 310 Q225 286 225 255 Q226 206 246 143 Q268 125 267 97 Q295 25 357 -46 Q393 -87 429 -86 Q438 -86 446 -84 Q452 -85 463 -85 Q478 -85 497 -80 Q493 -81 489 -81 Q405 -82 348 39 Q281 181 278 227 Q277 234 276 247 L277 248 Q274 261 274 275 Q273 335 314 345 Q327 347 352 353 Q339 359 329 359 Q314 358 301 348 L295 356 Q311 369 330 369 Q342 369 361 360 Q423 330 474 248 Q484 232 517 163 Q532 133 559 72 Q562 65 563 56 Q565 61 565 68 Q565 75 563 82 L560 87 L562 88 Q557 108 544 131 Q542 135 538 143 Q532 160 520 193 Q466 320 377 366 Q348 381 313 380 Q243 379 243 312 L233 312 Q233 389 310 390 Q350 391 381 375 Q473 328 528 199 Q534 181 547 147 Q550 143 554 134 Q568 108 572 87 Q577 80 580 80 Q584 80 584 91 Q512 289 450 339 Q409 372 394 380 Q370 393 326 400 L328 410 Q373 402 398 389 Q414 381 456 347 Q521 295 594 92 Q593 69 582 69 Q579 69 575 72 L575 69 Q576 34 547 34 Q518 33 491 87 Q434 198 430 205 Q378 299 353 298 L351 298 Q348 286 348 276 Q348 259 367 229 Q387 196 454 77 Q494 3 534 4 Q544 4 554 10 Q554 11 555 11 Q603 46 602 79 Q601 119 555 215 Q510 307 479 340 Q417 403 340 426 Q334 420 299 417 Q260 414 235 399 Q198 374 179 315 L169 318 Q202 417 304 428 Q315 428 332 432 L331 431 L332 430 L335 434 Q330 433 324 433 Q320 433 311 434.5 Q302 436 299 436 Q275 436 248 425 Q149 386 152 232 Q153 197 158 171 Q173 88 204 9 Q247 -101 294 -122 Q298 -126 305 -125 Q312 -125 321 -122 Q332 -141 382 -139 L382 -149 L377 -150 Q343 -151 324 -140 L325 -144 Q314 -147 303 -147 Q281 -147 259 -137 L263 -128 Q284 -137 303 -137 Q313 -137 318 -135 L317 -134 Q310 -135 305 -135 Q298 -136 288 -130 Q270 -119 260 -110 Q220 -70 186 21 Q157 98 148 169 Q142 208 142 232 Q139 380 229 428 Q125 387 127 262 Q127 248 130 228 Q131 216 132 191 Q154 -20 269 -120 L263 -128 Q174 -53 138 96 Q125 151 118 246 Q117 223 117 198 Q121 -5 233 -103 L227 -111 Q158 -50 131 32 Q109 97 107 202 Q105 350 156 418 Q121 383 102 301 Q86 233 87 169 Q87 145 90 120 L80 119 Q77 145 77 169 Q76 225 90 291 Q106 367 133 406 L122 390 L122 387 L119 387 Q74 314 71 216 L61 217 Q63 308 103 379 Q75 354 60 268 L50 270 Q61 330 79 365 L71 368 Q84 403 103 416 L109 408 Q94 397 84 372 Q96 391 113 396 Q150 451 201 481 Q176 475 155 450 L156 449 Q154 447 151 445 Q138 433 124 413 L116 418 Q122 427 127 433 Q119 427 112 416 L103 421 Q110 432 118 440 L107 434 L106 433 Q70 406 67 352 L57 353 Q61 410 98 440 L98 441 L100 441 Q102 468 157 491 L158 494 L160 493 Q213 538 279 539 Q389 541 520 452 Q574 415 616 350.5 Q658 286 673 221 Q691 196 696 163 Z M115 476 L89 441 L88 441 L71 412 L62 417 L80 448 L81 447 L107 482 L115 476 Z M436 -75 L432 -84 Q398 -71 372 -43 Q350 -14 327 15 L326 15 L326 16 Q236 127 233 273 Q233 284 234 297 L244 296 Q243 285 243 274 Q246 144 327 31 Q321 63 279 153 Q250 212 249 277 Q248 369 320 380 L322 370 Q258 360 260 278 Q261 217 288 157 Q339 43 337 19 Q358 -8 379 -35 Q404 -63 436 -75 Z M457 -131 Q429 -136 406 -136 Q359 -137 338 -125 Q302 -104 260 -37 Q223 23 210 70 Q182 168 180 255 Q179 304 204 355 Q212 372 214 375 Q221 387 230 391 L235 382 Q223 376 211 347 L207 348 L210 346 Q189 322 190 256 Q192 170 219 73 Q232 28 268 -31 Q309 -98 343 -116 Q362 -127 404 -126 Q427 -126 456 -121 L457 -131 Z M390 -111 L389 -121 L384 -120 Q365 -119 337 -97 Q243 -23 205 176 Q200 207 199 241 Q196 409 308 411 Q313 411 323 411 L322 401 Q317 401 311 401 Q207 399 210 244 Q210 211 215 178 Q228 95 272 6 Q328 -106 390 -111 Z M588 -124 L536 -145 L532 -136 L584 -114 L588 -124 Z M618 -84 Q518 -150 389 -158 L389 -148 Q511 -143 612 -76 L618 -84 Z M527 -147 Q515 -155 477 -169 L473 -160 Q490 -154 521 -138 L527 -147 Z M311 -114 L305 -122 Q236 -63 197 50 Q164 147 162 253 Q162 285 165 313 L175 312 Q171 274 171 237 Q175 43 283 -85 Q300 -105 311 -114 Z M471 -168 Q452 -176 387 -183 L386 -173 Q414 -171 467 -159 L471 -168 Z M468 -188 Q430 -205 373 -205 L364 -205 L364 -195 L374 -195 Q427 -195 464 -179 L468 -188 Z M164 -45 L157 -51 Q93 25 90 193 Q90 210 90 226 L100 226 Q100 208 100 191 Q103 31 164 -45 Z M383 -185 L321 -190 L320 -180 L382 -175 L383 -185 Z M342 -160 Q326 -164 311 -165 Q294 -165 276 -161 L278 -151 Q296 -155 311 -155 Q324 -155 340 -150 L342 -160 Z M213 -102 L207 -110 Q175 -87 164 -66 L173 -61 Q183 -80 213 -102 Z M428 447 L425 448 L427 447 L428 447 Z M425 448 L421 450 L421 450 L425 448 Z M449 396 Q435 414 416 418 Q425 407 449 396 Z M611 110 Q610 131 600.5 152 Q591 173 582 193 Q579 202 572 221 Q545 288 505 334 Q491 352 460 383 L459 381 Q414 399 403 421 Q387 432 350 445 Q347 439 340 436 Q427 411 486 347 Q553 274 609 94 Q611 102 611 110 Z M623 172 Q603 263 544 341 Q483 423 402 460 Q335 492 277 491 Q207 489 149 425 Q203 481 281 483 Q301 483 355 472 Q367 470 390 463 Q436 445 499.5 379.5 Q563 314 582 268 Q606 206 623 172 Z M629 118 Q629 130 628 142 Q616 158 598 202 Q574 262 573 264 Q565 279 537 318 Q459 426 386 454 Q377 457 353 462 Q297 473 281 472 Q272 472 262 471 Q292 472 338 459 Q384 446 407 430 L409 431 L410 429 Q444 427 463 393 Q473 387 513 341 Q547 301 577 231 Q582 220 591 197 Q594 192 600 181 Q620 143 621 112 Q621 89 611 72 Q606 35 563 5 Q558 -21 522 -22 Q474 -23 406 86 Q413 60 447 22 L440 15 Q396 64 395 92 Q395 97 396 102 Q318 234 317 282 Q316 309 333 310 Q339 310 346 307 Q349 308 352 308 Q382 308 437 216 Q471 157 500 91 Q521 43 547 44 Q540 49 534 59 Q533 61 503 116 Q478 164 427 257 Q388 325 342 324 Q305 323 306 287 Q306 270 316 248 L316 248 Q366 123 384 88 Q443 -29 489 -39 L487 -49 Q420 -34 348 143 Q331 183 299 263 L299 264 Q296 276 296 287 Q295 333 342 334 Q393 335 436 262 Q447 242 512 121 Q522 102 543 64 Q549 55 554 51 Q554 58 550 68 Q550 69 530 113 Q485 212 465 245 Q419 321 362 348 Q356 342 340 339 Q328 338 316 336 Q282 326 283 279 Q283 262 289 241 Q301 230 342 133 Q375 54 396 19 Q441 -55 486 -54 Q505 -54 523 -39 Q520 -39 517 -39 Q476 -40 447 4 L455 9 Q481 -30 518 -29 Q528 -29 538 -26 L541 -21 L544 -23 Q571 -11 605 34 Q630 67 629 118 Z M340 448 Q297 462 262 461 Q169 460 136 355 Q157 400 200.5 425.5 Q244 451 295 451 L300 451 L300 447 Q313 443 324 443 Q335 443 340 448 Z M145 474 Q119 460 112 447 Q132 458 145 474 Z M548 -3 Q541 -5 534 -6 Q481 -7 434 92 Q414 135 359 223 Q338 256 338 276 Q338 286 341 298 Q337 299 334 299 Q326 299 327 286 Q327 234 400 114 Q477 -13 523 -12 Q540 -12 548 -3 Z M407 103 L407 103 L407 103 L407 103 Z " />
<glyph glyph-name="asciitilde" unicode="&#x7e;" horiz-adv-x="545" d="M508 388 Q508 330 467 284.5 Q426 239 369 239 Q320 239 250 281 Q180 323 142 323 Q88 323 88 262 Q88 253 90 244 Q30 287 30 346 Q30 399 70 434.5 Q110 470 163 470 Q195 470 276.5 429 Q358 388 405 388 Q470 388 470 449 Q470 456 469 465 Q508 435 508 388 Z M426 350 Q421 344 408 344 Q367 344 277.5 388 Q188 432 160 432 Q131 432 105 409 Q79 386 75 357 Q83 375 110 393 Q137 411 156 411 Q184 411 256.5 373.5 Q329 336 376 336 Q411 336 426 350 Z " />
<glyph glyph-name="Adieresis" unicode="&#xc4;" horiz-adv-x="855" d="M854 67 L854 -2 Q846 -4 832 -4 Q737 -4 693 51 Q638 -1 538 -1 Q521 -1 505 1 L505 67 Q536 67 561 76 Q596 88 596 112 Q596 126 578 160 Q565 182 552 205 L242 205 Q216 143 216 127 Q216 65 308 67 L308 1 Q294 -2 274 -2 Q205 -2 166 40 Q107 -4 46 -4 Q23 -4 3 5 L3 71 Q76 74 103 137 Q157 262 212 388 Q302 599 302 623 Q302 654 262 654 Q250 654 237 652 L238 732 Q258 737 286 737 Q378 737 423 677 Q443 705 484 721 Q521 736 559 736 Q580 736 601 732 L601 660 Q576 659 558 647 Q536 633 536 610 Q536 595 546 576 L773 137 Q812 62 854 67 Z M644 127 Q644 168 628 199 L449 558 Q439 576 408 592 L644 127 Z M492 311 L379 537 L289 312 L492 311 Z M601 865 Q601 834 579.5 812 Q558 790 527 790 Q496 790 474 812 Q452 834 452 865 Q452 896 474 917.5 Q496 939 527 939 Q558 939 579.5 917.5 Q601 896 601 865 Z M376 865 Q376 834 354.5 812 Q333 790 302 790 Q271 790 249 812 Q227 834 227 865 Q227 896 249 917.5 Q271 939 302 939 Q333 939 354.5 917.5 Q376 896 376 865 Z M533 914 Q488 917 480 871 Q475 837 504 821 Q487 837 496 866 Q509 904 533 914 Z M308 914 Q263 917 255 871 Q250 837 279 821 Q262 837 271 866 Q284 904 308 914 Z " />
<glyph glyph-name="Aring" unicode="&#xc5;" horiz-adv-x="855" d="M854 67 L854 -2 Q846 -4 832 -4 Q737 -4 693 51 Q638 -1 538 -1 Q521 -1 505 1 L505 67 Q536 67 561 76 Q596 88 596 112 Q596 126 578 160 Q565 182 552 205 L242 205 Q216 143 216 127 Q216 65 308 67 L308 1 Q294 -2 274 -2 Q205 -2 166 40 Q107 -4 46 -4 Q23 -4 3 5 L3 71 Q76 74 103 137 Q157 262 212 388 Q302 599 302 623 Q302 654 262 654 Q250 654 237 652 L238 732 Q258 737 286 737 Q378 737 423 677 Q443 705 484 721 Q521 736 559 736 Q580 736 601 732 L601 660 Q576 659 558 647 Q536 633 536 610 Q536 595 546 576 L773 137 Q812 62 854 67 Z M644 127 Q644 168 628 199 L449 558 Q439 576 408 592 L644 127 Z M492 311 L379 537 L289 312 L492 311 Z M527 842 Q527 796 494 763 Q461 730 415 730 Q368 730 335.5 763 Q303 796 303 842 Q303 889 335.5 921.5 Q368 954 415 954 Q461 954 494 921.5 Q527 889 527 842 Z M471 842 Q471 866 454.5 882 Q438 898 415 898 Q391 898 375 882 Q359 866 359 842 Q359 819 375 802.5 Q391 786 415 786 Q438 786 454.5 802.5 Q471 819 471 842 Z " />
<glyph glyph-name="Ccedilla" unicode="&#xc7;" horiz-adv-x="638" d="M625 228 Q613 129 530 58.5 Q447 -12 347 -12 Q199 -12 112 98 Q30 199 30 352 Q30 512 102 620 Q185 744 337 744 Q421 744 508 695 L527 728 L588 724 L588 480 L529 478 Q488 659 371 659 Q284 659 240 555 Q206 477 206 377 Q206 273 241 194 Q287 90 378 90 Q444 90 494 141 Q540 188 553 255 L625 228 Z M213 62 Q160 115 128 206 Q99 290 99 371 Q99 491 156 615 Q75 533 75 368 Q75 274 106 196 Q142 106 213 62 Z M447 -98 Q447 -140 409 -168.5 Q371 -197 315 -197 L315 -132 Q371 -132 371 -98 Q371 -63 315 -63 L315 2 Q371 2 409 -26.5 Q447 -55 447 -98 Z " />
<glyph glyph-name="Eacute" unicode="&#xc9;" horiz-adv-x="689" d="M661 241 L643 -1 L589 -1 L562 45 Q481 -2 387 -2 Q296 -2 232 56 Q168 -3 98 -3 Q81 -3 65 2 L65 76 Q96 76 112 113 Q125 141 125 176 L124 542 Q124 592 107 625 Q85 669 40 662 L40 735 L60 736 Q182 739 204 685 Q278 736 365 736 Q397 736 448 720.5 Q499 705 520 705 Q557 705 563 738 L618 711 L619 556 L562 538 Q552 587 509 617 Q466 647 415 647 Q343 647 316 607 Q297 577 297 510 Q297 497 297 469 Q298 442 298 427 Q316 419 337 419 Q405 419 409 518 L479 515 Q480 507 480 494 Q480 395 436 384 Q483 349 488 272 L408 272 Q394 308 384 319 Q368 335 333 335 Q310 335 299 320 Q299 210 306 177 Q325 86 398 86 Q477 86 525 128 Q577 172 580 251 L661 241 Z M191 517 Q191 545 183 578 Q173 616 158 632 Q170 611 170 548 L170 198 Q170 118 150 97 Q191 110 191 181 L191 517 Z M513 841 L199 773 L459 960 L513 841 Z M439 878 L426 898 L279 804 L439 878 Z " />
<glyph glyph-name="Ntilde" unicode="&#xd1;" horiz-adv-x="773" d="M755 655 Q724 654 703.5 634 Q683 614 683 583 L683 5 L609 5 L272 393 L272 167 Q272 71 353 74 L353 2 Q338 -4 315 -4 Q257 -4 215 38 Q163 -3 103 -3 Q94 -3 86 -2 L86 72 Q117 75 136.5 98 Q156 121 156 153 L156 523 Q156 577 129 612 Q99 650 45 649 L45 730 L216 730 L576 324 L576 560 Q576 601 560 627 Q539 657 501 657 L501 734 Q512 736 529 736 Q597 736 634 692 Q661 737 733 737 Q743 737 755 736 L755 655 Z M597 125 L246 528 L246 497 L597 93 L597 125 Z M575 879 Q575 836 544.5 802 Q514 768 471 768 Q434 768 381.5 799.5 Q329 831 301 831 Q260 831 260 785 Q260 778 261 771 Q216 804 216 848 Q216 888 246.5 914.5 Q277 941 316 941 Q340 941 401 910.5 Q462 880 498 880 Q554 880 546 937 Q575 915 575 879 Z M513 851 Q510 846 500 846 Q469 846 402 879.5 Q335 913 314 913 Q292 913 272.5 895.5 Q253 878 250 856 Q256 870 276 883.5 Q296 897 311 897 Q332 897 386 869 Q440 841 476 841 Q502 841 513 851 Z " />
<glyph glyph-name="Odieresis" unicode="&#xd6;" horiz-adv-x="660" d="M658 368 Q658 217 575 105 Q483 -18 337 -18 Q196 -18 104 105 Q20 218 20 364 Q20 514 105 626 Q198 749 344 749 Q485 749 576 626 Q658 514 658 368 Z M536 348 Q536 501 442 631 L445 627 Q504 502 504 349 Q504 190 446 86 Q536 198 536 348 Z M454 345 Q454 442 436 525 Q407 654 344 654 Q270 654 238 534 Q219 459 219 352 Q219 266 245 181 Q280 66 344 66 Q454 66 454 345 Z M187 69 Q96 224 96 379 Q96 515 167 638 Q122 586 94.5 509 Q67 432 67 362 Q67 207 187 69 Z M526 865 Q526 834 504.5 812 Q483 790 452 790 Q421 790 399 812 Q377 834 377 865 Q377 896 399 917.5 Q421 939 452 939 Q483 939 504.5 917.5 Q526 896 526 865 Z M301 865 Q301 834 279.5 812 Q258 790 227 790 Q196 790 174 812 Q152 834 152 865 Q152 896 174 917.5 Q196 939 227 939 Q258 939 279.5 917.5 Q301 896 301 865 Z M458 914 Q413 917 405 871 Q400 837 429 821 Q412 837 421 866 Q434 904 458 914 Z M233 914 Q188 917 180 871 Q175 837 204 821 Q187 837 196 866 Q209 904 233 914 Z " />
<glyph glyph-name="Udieresis" unicode="&#xdc;" horiz-adv-x="705" d="M689 655 L683 655 Q652 655 635 634.5 Q618 614 618 582 L618 204 Q618 111 539 48 Q466 -12 371 -12 Q259 -12 183 64.5 Q107 141 107 253 L107 573 Q107 612 89 637 Q68 668 31 662 L31 732 Q50 737 78 737 Q155 737 194 687 Q227 737 306 737 Q324 737 343 734 L343 662 Q311 661 291.5 638 Q272 615 272 582 L272 227 Q272 165 304.5 128.5 Q337 92 401 92 Q458 92 489 129.5 Q520 167 520 225 L520 547 Q520 595 500 625 Q476 660 431 661 L430 735 Q443 737 461 737 Q529 737 564 697 Q591 736 643 736 Q665 736 688 726 L689 655 Z M192 116 Q173 175 173 253 L174 518 Q174 588 145 636 Q149 616 149 560 L149 258 Q149 186 192 116 Z M571 865 Q571 834 549.5 812 Q528 790 497 790 Q466 790 444 812 Q422 834 422 865 Q422 896 444 917.5 Q466 939 497 939 Q528 939 549.5 917.5 Q571 896 571 865 Z M346 865 Q346 834 324.5 812 Q303 790 272 790 Q241 790 219 812 Q197 834 197 865 Q197 896 219 917.5 Q241 939 272 939 Q303 939 324.5 917.5 Q346 896 346 865 Z M503 914 Q458 917 450 871 Q445 837 474 821 Q457 837 466 866 Q479 904 503 914 Z M278 914 Q233 917 225 871 Q220 837 249 821 Q232 837 241 866 Q254 904 278 914 Z " />
<glyph glyph-name="aacute" unicode="&#xe1;" horiz-adv-x="855" d="M854 67 L854 -2 Q846 -4 832 -4 Q737 -4 693 51 Q638 -1 538 -1 Q521 -1 505 1 L505 67 Q536 67 561 76 Q596 88 596 112 Q596 126 578 160 Q565 182 552 205 L242 205 Q216 143 216 127 Q216 65 308 67 L308 1 Q294 -2 274 -2 Q205 -2 166 40 Q107 -4 46 -4 Q23 -4 3 5 L3 71 Q76 74 103 137 Q157 262 212 388 Q302 599 302 623 Q302 654 262 654 Q250 654 237 652 L238 732 Q258 737 286 737 Q378 737 423 677 Q443 705 484 721 Q521 736 559 736 Q580 736 601 732 L601 660 Q576 659 558 647 Q536 633 536 610 Q536 595 546 576 L773 137 Q812 62 854 67 Z M644 127 Q644 168 628 199 L449 558 Q439 576 408 592 L644 127 Z M492 311 L379 537 L289 312 L492 311 Z " />
<glyph glyph-name="agrave" unicode="&#xe0;" horiz-adv-x="855" d="M854 67 L854 -2 Q846 -4 832 -4 Q737 -4 693 51 Q638 -1 538 -1 Q521 -1 505 1 L505 67 Q536 67 561 76 Q596 88 596 112 Q596 126 578 160 Q565 182 552 205 L242 205 Q216 143 216 127 Q216 65 308 67 L308 1 Q294 -2 274 -2 Q205 -2 166 40 Q107 -4 46 -4 Q23 -4 3 5 L3 71 Q76 74 103 137 Q157 262 212 388 Q302 599 302 623 Q302 654 262 654 Q250 654 237 652 L238 732 Q258 737 286 737 Q378 737 423 677 Q443 705 484 721 Q521 736 559 736 Q580 736 601 732 L601 660 Q576 659 558 647 Q536 633 536 610 Q536 595 546 576 L773 137 Q812 62 854 67 Z M644 127 Q644 168 628 199 L449 558 Q439 576 408 592 L644 127 Z M492 311 L379 537 L289 312 L492 311 Z M249 841 L563 773 L303 960 L249 841 Z M323 878 L336 898 L483 804 L323 878 Z " />
<glyph glyph-name="acircumflex" unicode="&#xe2;" horiz-adv-x="855" d="M854 67 L854 -2 Q846 -4 832 -4 Q737 -4 693 51 Q638 -1 538 -1 Q521 -1 505 1 L505 67 Q536 67 561 76 Q596 88 596 112 Q596 126 578 160 Q565 182 552 205 L242 205 Q216 143 216 127 Q216 65 308 67 L308 1 Q294 -2 274 -2 Q205 -2 166 40 Q107 -4 46 -4 Q23 -4 3 5 L3 71 Q76 74 103 137 Q157 262 212 388 Q302 599 302 623 Q302 654 262 654 Q250 654 237 652 L238 732 Q258 737 286 737 Q378 737 423 677 Q443 705 484 721 Q521 736 559 736 Q580 736 601 732 L601 660 Q576 659 558 647 Q536 633 536 610 Q536 595 546 576 L773 137 Q812 62 854 67 Z M644 127 Q644 168 628 199 L449 558 Q439 576 408 592 L644 127 Z M492 311 L379 537 L289 312 L492 311 Z " />
<glyph glyph-name="adieresis" unicode="&#xe4;" horiz-adv-x="855" d="M854 67 L854 -2 Q846 -4 832 -4 Q737 -4 693 51 Q638 -1 538 -1 Q521 -1 505 1 L505 67 Q536 67 561 76 Q596 88 596 112 Q596 126 578 160 Q565 182 552 205 L242 205 Q216 143 216 127 Q216 65 308 67 L308 1 Q294 -2 274 -2 Q205 -2 166 40 Q107 -4 46 -4 Q23 -4 3 5 L3 71 Q76 74 103 137 Q157 262 212 388 Q302 599 302 623 Q302 654 262 654 Q250 654 237 652 L238 732 Q258 737 286 737 Q378 737 423 677 Q443 705 484 721 Q521 736 559 736 Q580 736 601 732 L601 660 Q576 659 558 647 Q536 633 536 610 Q536 595 546 576 L773 137 Q812 62 854 67 Z M644 127 Q644 168 628 199 L449 558 Q439 576 408 592 L644 127 Z M492 311 L379 537 L289 312 L492 311 Z M601 865 Q601 834 579.5 812 Q558 790 527 790 Q496 790 474 812 Q452 834 452 865 Q452 896 474 917.5 Q496 939 527 939 Q558 939 579.5 917.5 Q601 896 601 865 Z M376 865 Q376 834 354.5 812 Q333 790 302 790 Q271 790 249 812 Q227 834 227 865 Q227 896 249 917.5 Q271 939 302 939 Q333 939 354.5 917.5 Q376 896 376 865 Z M533 914 Q488 917 480 871 Q475 837 504 821 Q487 837 496 866 Q509 904 533 914 Z M308 914 Q263 917 255 871 Q250 837 279 821 Q262 837 271 866 Q284 904 308 914 Z " />
<glyph glyph-name="atilde" unicode="&#xe3;" horiz-adv-x="855" d="M854 67 L854 -2 Q846 -4 832 -4 Q737 -4 693 51 Q638 -1 538 -1 Q521 -1 505 1 L505 67 Q536 67 561 76 Q596 88 596 112 Q596 126 578 160 Q565 182 552 205 L242 205 Q216 143 216 127 Q216 65 308 67 L308 1 Q294 -2 274 -2 Q205 -2 166 40 Q107 -4 46 -4 Q23 -4 3 5 L3 71 Q76 74 103 137 Q157 262 212 388 Q302 599 302 623 Q302 654 262 654 Q250 654 237 652 L238 732 Q258 737 286 737 Q378 737 423 677 Q443 705 484 721 Q521 736 559 736 Q580 736 601 732 L601 660 Q576 659 558 647 Q536 633 536 610 Q536 595 546 576 L773 137 Q812 62 854 67 Z M644 127 Q644 168 628 199 L449 558 Q439 576 408 592 L644 127 Z M492 311 L379 537 L289 312 L492 311 Z M590 879 Q590 836 559.5 802 Q529 768 486 768 Q449 768 396.5 799.5 Q344 831 316 831 Q275 831 275 785 Q275 778 276 771 Q231 804 231 848 Q231 888 261.5 914.5 Q292 941 331 941 Q355 941 416 910.5 Q477 880 513 880 Q569 880 561 937 Q590 915 590 879 Z M528 851 Q525 846 515 846 Q484 846 417 879.5 Q350 913 329 913 Q307 913 287.5 895.5 Q268 878 265 856 Q271 870 291 883.5 Q311 897 326 897 Q347 897 401 869 Q455 841 491 841 Q517 841 528 851 Z " />
<glyph glyph-name="aring" unicode="&#xe5;" horiz-adv-x="855" d="M854 67 L854 -2 Q846 -4 832 -4 Q737 -4 693 51 Q638 -1 538 -1 Q521 -1 505 1 L505 67 Q536 67 561 76 Q596 88 596 112 Q596 126 578 160 Q565 182 552 205 L242 205 Q216 143 216 127 Q216 65 308 67 L308 1 Q294 -2 274 -2 Q205 -2 166 40 Q107 -4 46 -4 Q23 -4 3 5 L3 71 Q76 74 103 137 Q157 262 212 388 Q302 599 302 623 Q302 654 262 654 Q250 654 237 652 L238 732 Q258 737 286 737 Q378 737 423 677 Q443 705 484 721 Q521 736 559 736 Q580 736 601 732 L601 660 Q576 659 558 647 Q536 633 536 610 Q536 595 546 576 L773 137 Q812 62 854 67 Z M644 127 Q644 168 628 199 L449 558 Q439 576 408 592 L644 127 Z M492 311 L379 537 L289 312 L492 311 Z M527 842 Q527 796 494 763 Q461 730 415 730 Q368 730 335.5 763 Q303 796 303 842 Q303 889 335.5 921.5 Q368 954 415 954 Q461 954 494 921.5 Q527 889 527 842 Z M471 842 Q471 866 454.5 882 Q438 898 415 898 Q391 898 375 882 Q359 866 359 842 Q359 819 375 802.5 Q391 786 415 786 Q438 786 454.5 802.5 Q471 819 471 842 Z " />
<glyph glyph-name="ccedilla" unicode="&#xe7;" horiz-adv-x="638" d="M625 228 Q613 129 530 58.5 Q447 -12 347 -12 Q199 -12 112 98 Q30 199 30 352 Q30 512 102 620 Q185 744 337 744 Q421 744 508 695 L527 728 L588 724 L588 480 L529 478 Q488 659 371 659 Q284 659 240 555 Q206 477 206 377 Q206 273 241 194 Q287 90 378 90 Q444 90 494 141 Q540 188 553 255 L625 228 Z M213 62 Q160 115 128 206 Q99 290 99 371 Q99 491 156 615 Q75 533 75 368 Q75 274 106 196 Q142 106 213 62 Z M447 -98 Q447 -140 409 -168.5 Q371 -197 315 -197 L315 -132 Q371 -132 371 -98 Q371 -63 315 -63 L315 2 Q371 2 409 -26.5 Q447 -55 447 -98 Z " />
<glyph glyph-name="eacute" unicode="&#xe9;" horiz-adv-x="689" d="M661 241 L643 -1 L589 -1 L562 45 Q481 -2 387 -2 Q296 -2 232 56 Q168 -3 98 -3 Q81 -3 65 2 L65 76 Q96 76 112 113 Q125 141 125 176 L124 542 Q124 592 107 625 Q85 669 40 662 L40 735 L60 736 Q182 739 204 685 Q278 736 365 736 Q397 736 448 720.5 Q499 705 520 705 Q557 705 563 738 L618 711 L619 556 L562 538 Q552 587 509 617 Q466 647 415 647 Q343 647 316 607 Q297 577 297 510 Q297 497 297 469 Q298 442 298 427 Q316 419 337 419 Q405 419 409 518 L479 515 Q480 507 480 494 Q480 395 436 384 Q483 349 488 272 L408 272 Q394 308 384 319 Q368 335 333 335 Q310 335 299 320 Q299 210 306 177 Q325 86 398 86 Q477 86 525 128 Q577 172 580 251 L661 241 Z M191 517 Q191 545 183 578 Q173 616 158 632 Q170 611 170 548 L170 198 Q170 118 150 97 Q191 110 191 181 L191 517 Z M513 841 L199 773 L459 960 L513 841 Z M439 878 L426 898 L279 804 L439 878 Z " />
<glyph glyph-name="egrave" unicode="&#xe8;" horiz-adv-x="689" d="M661 241 L643 -1 L589 -1 L562 45 Q481 -2 387 -2 Q296 -2 232 56 Q168 -3 98 -3 Q81 -3 65 2 L65 76 Q96 76 112 113 Q125 141 125 176 L124 542 Q124 592 107 625 Q85 669 40 662 L40 735 L60 736 Q182 739 204 685 Q278 736 365 736 Q397 736 448 720.5 Q499 705 520 705 Q557 705 563 738 L618 711 L619 556 L562 538 Q552 587 509 617 Q466 647 415 647 Q343 647 316 607 Q297 577 297 510 Q297 497 297 469 Q298 442 298 427 Q316 419 337 419 Q405 419 409 518 L479 515 Q480 507 480 494 Q480 395 436 384 Q483 349 488 272 L408 272 Q394 308 384 319 Q368 335 333 335 Q310 335 299 320 Q299 210 306 177 Q325 86 398 86 Q477 86 525 128 Q577 172 580 251 L661 241 Z M191 517 Q191 545 183 578 Q173 616 158 632 Q170 611 170 548 L170 198 Q170 118 150 97 Q191 110 191 181 L191 517 Z M199 841 L513 773 L253 960 L199 841 Z M273 878 L286 898 L433 804 L273 878 Z " />
<glyph glyph-name="ecircumflex" unicode="&#xea;" horiz-adv-x="689" d="M661 241 L643 -1 L589 -1 L562 45 Q481 -2 387 -2 Q296 -2 232 56 Q168 -3 98 -3 Q81 -3 65 2 L65 76 Q96 76 112 113 Q125 141 125 176 L124 542 Q124 592 107 625 Q85 669 40 662 L40 735 L60 736 Q182 739 204 685 Q278 736 365 736 Q397 736 448 720.5 Q499 705 520 705 Q557 705 563 738 L618 711 L619 556 L562 538 Q552 587 509 617 Q466 647 415 647 Q343 647 316 607 Q297 577 297 510 Q297 497 297 469 Q298 442 298 427 Q316 419 337 419 Q405 419 409 518 L479 515 Q480 507 480 494 Q480 395 436 384 Q483 349 488 272 L408 272 Q394 308 384 319 Q368 335 333 335 Q310 335 299 320 Q299 210 306 177 Q325 86 398 86 Q477 86 525 128 Q577 172 580 251 L661 241 Z M191 517 Q191 545 183 578 Q173 616 158 632 Q170 611 170 548 L170 198 Q170 118 150 97 Q191 110 191 181 L191 517 Z M585 749 L362 842 L138 749 L362 972 L585 749 Z M358 928 L215 794 L356 895 L358 928 Z " />
<glyph glyph-name="edieresis" unicode="&#xeb;" horiz-adv-x="689" d="M661 241 L643 -1 L589 -1 L562 45 Q481 -2 387 -2 Q296 -2 232 56 Q168 -3 98 -3 Q81 -3 65 2 L65 76 Q96 76 112 113 Q125 141 125 176 L124 542 Q124 592 107 625 Q85 669 40 662 L40 735 L60 736 Q182 739 204 685 Q278 736 365 736 Q397 736 448 720.5 Q499 705 520 705 Q557 705 563 738 L618 711 L619 556 L562 538 Q552 587 509 617 Q466 647 415 647 Q343 647 316 607 Q297 577 297 510 Q297 497 297 469 Q298 442 298 427 Q316 419 337 419 Q405 419 409 518 L479 515 Q480 507 480 494 Q480 395 436 384 Q483 349 488 272 L408 272 Q394 308 384 319 Q368 335 333 335 Q310 335 299 320 Q299 210 306 177 Q325 86 398 86 Q477 86 525 128 Q577 172 580 251 L661 241 Z M191 517 Q191 545 183 578 Q173 616 158 632 Q170 611 170 548 L170 198 Q170 118 150 97 Q191 110 191 181 L191 517 Z " />
<glyph glyph-name="iacute" unicode="&#xed;" horiz-adv-x="411" d="M377 659 Q345 658 324.5 637.5 Q304 617 304 585 L304 145 Q304 75 371 65 L371 1 Q357 -2 337 -2 Q251 -2 205 55 Q188 28 152 12.5 Q116 -3 82 -2 L62 -1 L62 65 Q94 67 112.5 92 Q131 117 131 150 L130 561 Q130 666 51 660 L51 727 Q74 737 106 737 Q169 737 215 689 Q253 739 330 739 Q352 739 376 733 L377 659 Z M196 191 L196 527 Q196 555 187 588 Q178 626 162 642 Q175 621 175 558 L175 208 Q175 128 155 107 Q176 114 187 143 Q196 166 196 191 Z " />
<glyph glyph-name="igrave" unicode="&#xec;" horiz-adv-x="411" d="M377 659 Q345 658 324.5 637.5 Q304 617 304 585 L304 145 Q304 75 371 65 L371 1 Q357 -2 337 -2 Q251 -2 205 55 Q188 28 152 12.5 Q116 -3 82 -2 L62 -1 L62 65 Q94 67 112.5 92 Q131 117 131 150 L130 561 Q130 666 51 660 L51 727 Q74 737 106 737 Q169 737 215 689 Q253 739 330 739 Q352 739 376 733 L377 659 Z M196 191 L196 527 Q196 555 187 588 Q178 626 162 642 Q175 621 175 558 L175 208 Q175 128 155 107 Q176 114 187 143 Q196 166 196 191 Z M49 841 L363 773 L103 960 L49 841 Z M123 878 L136 898 L283 804 L123 878 Z " />
<glyph glyph-name="icircumflex" unicode="&#xee;" horiz-adv-x="411" d="M377 659 Q345 658 324.5 637.5 Q304 617 304 585 L304 145 Q304 75 371 65 L371 1 Q357 -2 337 -2 Q251 -2 205 55 Q188 28 152 12.5 Q116 -3 82 -2 L62 -1 L62 65 Q94 67 112.5 92 Q131 117 131 150 L130 561 Q130 666 51 660 L51 727 Q74 737 106 737 Q169 737 215 689 Q253 739 330 739 Q352 739 376 733 L377 659 Z M196 191 L196 527 Q196 555 187 588 Q178 626 162 642 Q175 621 175 558 L175 208 Q175 128 155 107 Q176 114 187 143 Q196 166 196 191 Z " />
<glyph glyph-name="idieresis" unicode="&#xef;" horiz-adv-x="411" d="M377 659 Q345 658 324.5 637.5 Q304 617 304 585 L304 145 Q304 75 371 65 L371 1 Q357 -2 337 -2 Q251 -2 205 55 Q188 28 152 12.5 Q116 -3 82 -2 L62 -1 L62 65 Q94 67 112.5 92 Q131 117 131 150 L130 561 Q130 666 51 660 L51 727 Q74 737 106 737 Q169 737 215 689 Q253 739 330 739 Q352 739 376 733 L377 659 Z M196 191 L196 527 Q196 555 187 588 Q178 626 162 642 Q175 621 175 558 L175 208 Q175 128 155 107 Q176 114 187 143 Q196 166 196 191 Z " />
<glyph glyph-name="ntilde" unicode="&#xf1;" horiz-adv-x="773" d="M755 655 Q724 654 703.5 634 Q683 614 683 583 L683 5 L609 5 L272 393 L272 167 Q272 71 353 74 L353 2 Q338 -4 315 -4 Q257 -4 215 38 Q163 -3 103 -3 Q94 -3 86 -2 L86 72 Q117 75 136.5 98 Q156 121 156 153 L156 523 Q156 577 129 612 Q99 650 45 649 L45 730 L216 730 L576 324 L576 560 Q576 601 560 627 Q539 657 501 657 L501 734 Q512 736 529 736 Q597 736 634 692 Q661 737 733 737 Q743 737 755 736 L755 655 Z M597 125 L246 528 L246 497 L597 93 L597 125 Z M575 879 Q575 836 544.5 802 Q514 768 471 768 Q434 768 381.5 799.5 Q329 831 301 831 Q260 831 260 785 Q260 778 261 771 Q216 804 216 848 Q216 888 246.5 914.5 Q277 941 316 941 Q340 941 401 910.5 Q462 880 498 880 Q554 880 546 937 Q575 915 575 879 Z M513 851 Q510 846 500 846 Q469 846 402 879.5 Q335 913 314 913 Q292 913 272.5 895.5 Q253 878 250 856 Q256 870 276 883.5 Q296 897 311 897 Q332 897 386 869 Q440 841 476 841 Q502 841 513 851 Z " />
<glyph glyph-name="oacute" unicode="&#xf3;" horiz-adv-x="660" d="M658 368 Q658 217 575 105 Q483 -18 337 -18 Q196 -18 104 105 Q20 218 20 364 Q20 514 105 626 Q198 749 344 749 Q485 749 576 626 Q658 514 658 368 Z M536 348 Q536 501 442 631 L445 627 Q504 502 504 349 Q504 190 446 86 Q536 198 536 348 Z M454 345 Q454 442 436 525 Q407 654 344 654 Q270 654 238 534 Q219 459 219 352 Q219 266 245 181 Q280 66 344 66 Q454 66 454 345 Z M187 69 Q96 224 96 379 Q96 515 167 638 Q122 586 94.5 509 Q67 432 67 362 Q67 207 187 69 Z " />
<glyph glyph-name="ograve" unicode="&#xf2;" horiz-adv-x="660" d="M658 368 Q658 217 575 105 Q483 -18 337 -18 Q196 -18 104 105 Q20 218 20 364 Q20 514 105 626 Q198 749 344 749 Q485 749 576 626 Q658 514 658 368 Z M536 348 Q536 501 442 631 L445 627 Q504 502 504 349 Q504 190 446 86 Q536 198 536 348 Z M454 345 Q454 442 436 525 Q407 654 344 654 Q270 654 238 534 Q219 459 219 352 Q219 266 245 181 Q280 66 344 66 Q454 66 454 345 Z M187 69 Q96 224 96 379 Q96 515 167 638 Q122 586 94.5 509 Q67 432 67 362 Q67 207 187 69 Z M179 841 L493 773 L233 960 L179 841 Z M253 878 L266 898 L413 804 L253 878 Z " />
<glyph glyph-name="ocircumflex" unicode="&#xf4;" horiz-adv-x="660" d="M658 368 Q658 217 575 105 Q483 -18 337 -18 Q196 -18 104 105 Q20 218 20 364 Q20 514 105 626 Q198 749 344 749 Q485 749 576 626 Q658 514 658 368 Z M536 348 Q536 501 442 631 L445 627 Q504 502 504 349 Q504 190 446 86 Q536 198 536 348 Z M454 345 Q454 442 436 525 Q407 654 344 654 Q270 654 238 534 Q219 459 219 352 Q219 266 245 181 Q280 66 344 66 Q454 66 454 345 Z M187 69 Q96 224 96 379 Q96 515 167 638 Q122 586 94.5 509 Q67 432 67 362 Q67 207 187 69 Z " />
<glyph glyph-name="odieresis" unicode="&#xf6;" horiz-adv-x="660" d="M658 368 Q658 217 575 105 Q483 -18 337 -18 Q196 -18 104 105 Q20 218 20 364 Q20 514 105 626 Q198 749 344 749 Q485 749 576 626 Q658 514 658 368 Z M536 348 Q536 501 442 631 L445 627 Q504 502 504 349 Q504 190 446 86 Q536 198 536 348 Z M454 345 Q454 442 436 525 Q407 654 344 654 Q270 654 238 534 Q219 459 219 352 Q219 266 245 181 Q280 66 344 66 Q454 66 454 345 Z M187 69 Q96 224 96 379 Q96 515 167 638 Q122 586 94.5 509 Q67 432 67 362 Q67 207 187 69 Z M526 865 Q526 834 504.5 812 Q483 790 452 790 Q421 790 399 812 Q377 834 377 865 Q377 896 399 917.5 Q421 939 452 939 Q483 939 504.5 917.5 Q526 896 526 865 Z M301 865 Q301 834 279.5 812 Q258 790 227 790 Q196 790 174 812 Q152 834 152 865 Q152 896 174 917.5 Q196 939 227 939 Q258 939 279.5 917.5 Q301 896 301 865 Z M458 914 Q413 917 405 871 Q400 837 429 821 Q412 837 421 866 Q434 904 458 914 Z M233 914 Q188 917 180 871 Q175 837 204 821 Q187 837 196 866 Q209 904 233 914 Z " />
<glyph glyph-name="otilde" unicode="&#xf5;" horiz-adv-x="660" d="M658 368 Q658 217 575 105 Q483 -18 337 -18 Q196 -18 104 105 Q20 218 20 364 Q20 514 105 626 Q198 749 344 749 Q485 749 576 626 Q658 514 658 368 Z M536 348 Q536 501 442 631 L445 627 Q504 502 504 349 Q504 190 446 86 Q536 198 536 348 Z M454 345 Q454 442 436 525 Q407 654 344 654 Q270 654 238 534 Q219 459 219 352 Q219 266 245 181 Q280 66 344 66 Q454 66 454 345 Z M187 69 Q96 224 96 379 Q96 515 167 638 Q122 586 94.5 509 Q67 432 67 362 Q67 207 187 69 Z M515 879 Q515 836 484.5 802 Q454 768 411 768 Q374 768 321.5 799.5 Q269 831 241 831 Q200 831 200 785 Q200 778 201 771 Q156 804 156 848 Q156 888 186.5 914.5 Q217 941 256 941 Q280 941 341 910.5 Q402 880 438 880 Q494 880 486 937 Q515 915 515 879 Z M453 851 Q450 846 440 846 Q409 846 342 879.5 Q275 913 254 913 Q232 913 212.5 895.5 Q193 878 190 856 Q196 870 216 883.5 Q236 897 251 897 Q272 897 326 869 Q380 841 416 841 Q442 841 453 851 Z " />
<glyph glyph-name="uacute" unicode="&#xfa;" horiz-adv-x="705" d="M689 655 L683 655 Q652 655 635 634.5 Q618 614 618 582 L618 204 Q618 111 539 48 Q466 -12 371 -12 Q259 -12 183 64.5 Q107 141 107 253 L107 573 Q107 612 89 637 Q68 668 31 662 L31 732 Q50 737 78 737 Q155 737 194 687 Q227 737 306 737 Q324 737 343 734 L343 662 Q311 661 291.5 638 Q272 615 272 582 L272 227 Q272 165 304.5 128.5 Q337 92 401 92 Q458 92 489 129.5 Q520 167 520 225 L520 547 Q520 595 500 625 Q476 660 431 661 L430 735 Q443 737 461 737 Q529 737 564 697 Q591 736 643 736 Q665 736 688 726 L689 655 Z M192 116 Q173 175 173 253 L174 518 Q174 588 145 636 Q149 616 149 560 L149 258 Q149 186 192 116 Z " />
<glyph glyph-name="ugrave" unicode="&#xf9;" horiz-adv-x="705" d="M689 655 L683 655 Q652 655 635 634.5 Q618 614 618 582 L618 204 Q618 111 539 48 Q466 -12 371 -12 Q259 -12 183 64.5 Q107 141 107 253 L107 573 Q107 612 89 637 Q68 668 31 662 L31 732 Q50 737 78 737 Q155 737 194 687 Q227 737 306 737 Q324 737 343 734 L343 662 Q311 661 291.5 638 Q272 615 272 582 L272 227 Q272 165 304.5 128.5 Q337 92 401 92 Q458 92 489 129.5 Q520 167 520 225 L520 547 Q520 595 500 625 Q476 660 431 661 L430 735 Q443 737 461 737 Q529 737 564 697 Q591 736 643 736 Q665 736 688 726 L689 655 Z M192 116 Q173 175 173 253 L174 518 Q174 588 145 636 Q149 616 149 560 L149 258 Q149 186 192 116 Z M229 841 L543 773 L283 960 L229 841 Z M303 878 L316 898 L463 804 L303 878 Z " />
<glyph glyph-name="ucircumflex" unicode="&#xfb;" horiz-adv-x="705" d="M689 655 L683 655 Q652 655 635 634.5 Q618 614 618 582 L618 204 Q618 111 539 48 Q466 -12 371 -12 Q259 -12 183 64.5 Q107 141 107 253 L107 573 Q107 612 89 637 Q68 668 31 662 L31 732 Q50 737 78 737 Q155 737 194 687 Q227 737 306 737 Q324 737 343 734 L343 662 Q311 661 291.5 638 Q272 615 272 582 L272 227 Q272 165 304.5 128.5 Q337 92 401 92 Q458 92 489 129.5 Q520 167 520 225 L520 547 Q520 595 500 625 Q476 660 431 661 L430 735 Q443 737 461 737 Q529 737 564 697 Q591 736 643 736 Q665 736 688 726 L689 655 Z M192 116 Q173 175 173 253 L174 518 Q174 588 145 636 Q149 616 149 560 L149 258 Q149 186 192 116 Z " />
<glyph glyph-name="udieresis" unicode="&#xfc;" horiz-adv-x="705" d="M689 655 L683 655 Q652 655 635 634.5 Q618 614 618 582 L618 204 Q618 111 539 48 Q466 -12 371 -12 Q259 -12 183 64.5 Q107 141 107 253 L107 573 Q107 612 89 637 Q68 668 31 662 L31 732 Q50 737 78 737 Q155 737 194 687 Q227 737 306 737 Q324 737 343 734 L343 662 Q311 661 291.5 638 Q272 615 272 582 L272 227 Q272 165 304.5 128.5 Q337 92 401 92 Q458 92 489 129.5 Q520 167 520 225 L520 547 Q520 595 500 625 Q476 660 431 661 L430 735 Q443 737 461 737 Q529 737 564 697 Q591 736 643 736 Q665 736 688 726 L689 655 Z M192 116 Q173 175 173 253 L174 518 Q174 588 145 636 Q149 616 149 560 L149 258 Q149 186 192 116 Z M571 865 Q571 834 549.5 812 Q528 790 497 790 Q466 790 444 812 Q422 834 422 865 Q422 896 444 917.5 Q466 939 497 939 Q528 939 549.5 917.5 Q571 896 571 865 Z M346 865 Q346 834 324.5 812 Q303 790 272 790 Q241 790 219 812 Q197 834 197 865 Q197 896 219 917.5 Q241 939 272 939 Q303 939 324.5 917.5 Q346 896 346 865 Z M503 914 Q458 917 450 871 Q445 837 474 821 Q457 837 466 866 Q479 904 503 914 Z M278 914 Q233 917 225 871 Q220 837 249 821 Q232 837 241 866 Q254 904 278 914 Z " />
<glyph glyph-name="cent" unicode="&#xa2;" horiz-adv-x="529" d="M507 447 Q507 413 483 391.5 Q459 370 425 370 Q394 370 367.5 391.5 Q341 413 341 444 Q341 475 369 504 Q350 524 301 524 Q243 524 209 458 Q182 405 182 342 Q182 275 207 221 Q240 153 300 153 Q341 153 377 171 Q417 191 431 226 L494 197 Q428 88 307 77 L307 4 L246 4 L246 77 Q146 88 84.5 160 Q23 232 23 336 Q23 437 85.5 512.5 Q148 588 245 599 L245 671 L307 671 L307 600 Q383 591 439 555 Q507 512 507 447 Z M148 158 Q119 187 101 242 Q84 292 84 338 Q81 437 148 511 Q91 478 70 406 Q66 394 60 337 Q61 300 70 268 Q92 193 148 158 Z " />
<glyph glyph-name="sterling" unicode="&#xa3;" horiz-adv-x="530" d="M512 117 Q512 60 480.5 26 Q449 -8 393 -8 Q362 -8 302.5 8.5 Q243 25 211 25 Q179 25 120 8 Q61 -9 34 -9 Q31 14 31 28 Q31 97 62 172 Q94 251 96 288 L28 288 L28 349 L89 349 Q85 364 56 405 Q32 439 32 476 Q32 570 103 621 Q166 667 263 667 Q342 667 411 626 Q492 578 492 505 Q492 393 392 393 Q357 393 331 415.5 Q305 438 305 472 Q305 508 347 540 Q319 595 272 595 Q190 595 190 495 Q190 478 209.5 435 Q229 392 227 349 L284 349 L284 288 L218 288 Q198 202 144 143 Q183 167 230 167 Q259 167 313.5 150.5 Q368 134 396 134 Q451 134 463 193 Q512 169 512 117 Z M176 616 Q135 602 109 569 Q83 536 83 496 Q83 462 112 405.5 Q141 349 141 304 Q141 230 80 121 Q162 222 162 304 Q162 345 137 407 Q112 469 111 500 Q111 571 176 616 Z " />
<glyph glyph-name="acute" unicode="&#xb4;" horiz-adv-x="507" d="M413 841 L99 773 L359 960 L413 841 Z M339 878 L326 898 L179 804 L339 878 Z " />
<glyph glyph-name="dieresis" unicode="&#xa8;" horiz-adv-x="593" d="M576 865 Q576 834 554.5 812 Q533 790 502 790 Q471 790 449 812 Q427 834 427 865 Q427 896 449 917.5 Q471 939 502 939 Q533 939 554.5 917.5 Q576 896 576 865 Z M351 865 Q351 834 329.5 812 Q308 790 277 790 Q246 790 224 812 Q202 834 202 865 Q202 896 224 917.5 Q246 939 277 939 Q308 939 329.5 917.5 Q351 896 351 865 Z M508 914 Q463 917 455 871 Q450 837 479 821 Q462 837 471 866 Q484 904 508 914 Z M283 914 Q238 917 230 871 Q225 837 254 821 Q237 837 246 866 Q259 904 283 914 Z " />
<glyph glyph-name="AE" unicode="&#xc6;" horiz-adv-x="1138" d="M1141 241 L1123 -1 L1069 -1 L1042 45 Q961 -2 867 -2 Q776 -2 712 56 Q648 -3 578 -3 Q561 -3 545 2 L545 76 Q576 76 592 113 Q605 141 605 176 L605 205 L309 205 Q291 186 240 123 Q234 115 234 108 Q234 91 264 78 Q289 66 308 67 L308 1 Q294 -2 275 -2 Q206 -2 166 40 Q108 -4 46 -4 Q23 -4 3 5 L3 71 Q60 83 64 84 Q92 94 117 122 L577 641 Q556 667 520 662 L520 735 L540 736 Q662 739 684 685 Q758 736 845 736 Q877 736 928 720.5 Q979 705 1000 705 Q1037 705 1043 738 L1098 711 L1099 556 L1042 538 Q1032 587 989 617 Q946 647 895 647 Q823 647 796 607 Q777 577 777 510 Q777 497 777 469 Q778 442 778 427 Q796 419 817 419 Q885 419 889 518 L959 515 Q960 507 960 494 Q960 395 916 384 Q963 349 968 272 L888 272 Q874 308 864 319 Q848 335 813 335 Q790 335 779 320 Q779 210 786 177 Q805 86 878 86 Q957 86 1005 128 Q1057 172 1060 251 L1141 241 Z M671 517 Q671 545 663 578 Q653 616 638 632 Q650 611 650 548 L650 198 Q650 118 630 97 Q671 110 671 181 L671 517 Z M604 311 L604 534 L407 312 L604 311 Z " />
<glyph glyph-name="questiondown" unicode="&#xbf;" horiz-adv-x="616" d="M59 144 Q50 174 50 202 Q50 277 122 333 Q155 359 240 399 Q302 434 302 496 Q302 503 301 511 Q350 470 350 417 Q350 346 280 295 Q204 235 211 171 Q211 120 252 87 Q289 56 339 56 Q399 56 429 102 Q381 131 381 188 Q380 229 409.5 255.5 Q439 282 484 282 Q531 282 558 249.5 Q585 217 585 171 Q583 84 494 33 Q420 -9 328 -9 Q224 -9 153.5 31 Q83 71 59 144 Z M207 642 Q207 683 236 712 Q265 741 306 741 Q347 741 376.5 712 Q406 683 406 642 Q406 601 376.5 571.5 Q347 542 306 542 Q265 542 236 571.5 Q207 601 207 642 Z M138 192 Q136 95 227 58 Q163 101 163 194 Q164 216 171 236 Q187 285 227 316 Q190 303 166 267.5 Q142 232 138 192 Z M298 576 Q353 573 369 633 Q370 641 370 648 Q370 681 336 701 Q351 686 351 662 Q351 650 348 640 Q331 590 298 576 Z " />
<glyph glyph-name="exclamdown" unicode="&#xa1;" horiz-adv-x="386" d="M359 59 Q298 71 293 137 L231 476 L184 476 L121 155 Q105 62 51 66 L50 -5 Q66 -9 88 -9 Q158 -9 196 42 Q242 -9 334 -9 Q346 -9 359 -8 L359 59 Z M309 632 Q309 673 280 702 Q251 731 209 731 Q168 731 139 702 Q110 673 110 632 Q110 591 139 561.5 Q168 532 209 532 Q251 532 280 561.5 Q309 591 309 632 Z M203 393 L193 148 Q192 125 176 101 Q158 74 136 71 Q159 88 170 167 L203 393 Z M217 566 Q162 563 147 623 Q146 631 146 638 Q146 671 180 691 Q164 676 164 652 Q164 640 168 630 Q185 580 217 566 Z " />
<glyph glyph-name="guillemotleft" unicode="&#xab;" horiz-adv-x="672" d="M347 -25 L16 246 L347 517 L209 246 L347 -25 Z M278 425 L79 246 L96 227 L278 425 Z M622 -25 L291 246 L622 517 L484 246 L622 -25 Z M553 425 L354 246 L371 227 L553 425 Z " />
<glyph glyph-name="guillemotright" unicode="&#xbb;" horiz-adv-x="676" d="M381 246 L50 -25 L188 246 L50 517 L381 246 Z M268 246 L119 425 L251 227 L268 246 Z M661 246 L330 -25 L468 246 L330 517 L661 246 Z M548 246 L399 425 L531 227 L548 246 Z " />
<glyph glyph-name="Agrave" unicode="&#xc0;" horiz-adv-x="855" d="M854 67 L854 -2 Q846 -4 832 -4 Q737 -4 693 51 Q638 -1 538 -1 Q521 -1 505 1 L505 67 Q536 67 561 76 Q596 88 596 112 Q596 126 578 160 Q565 182 552 205 L242 205 Q216 143 216 127 Q216 65 308 67 L308 1 Q294 -2 274 -2 Q205 -2 166 40 Q107 -4 46 -4 Q23 -4 3 5 L3 71 Q76 74 103 137 Q157 262 212 388 Q302 599 302 623 Q302 654 262 654 Q250 654 237 652 L238 732 Q258 737 286 737 Q378 737 423 677 Q443 705 484 721 Q521 736 559 736 Q580 736 601 732 L601 660 Q576 659 558 647 Q536 633 536 610 Q536 595 546 576 L773 137 Q812 62 854 67 Z M644 127 Q644 168 628 199 L449 558 Q439 576 408 592 L644 127 Z M492 311 L379 537 L289 312 L492 311 Z M249 841 L563 773 L303 960 L249 841 Z M323 878 L336 898 L483 804 L323 878 Z " />
<glyph glyph-name="Atilde" unicode="&#xc3;" horiz-adv-x="855" d="M854 67 L854 -2 Q846 -4 832 -4 Q737 -4 693 51 Q638 -1 538 -1 Q521 -1 505 1 L505 67 Q536 67 561 76 Q596 88 596 112 Q596 126 578 160 Q565 182 552 205 L242 205 Q216 143 216 127 Q216 65 308 67 L308 1 Q294 -2 274 -2 Q205 -2 166 40 Q107 -4 46 -4 Q23 -4 3 5 L3 71 Q76 74 103 137 Q157 262 212 388 Q302 599 302 623 Q302 654 262 654 Q250 654 237 652 L238 732 Q258 737 286 737 Q378 737 423 677 Q443 705 484 721 Q521 736 559 736 Q580 736 601 732 L601 660 Q576 659 558 647 Q536 633 536 610 Q536 595 546 576 L773 137 Q812 62 854 67 Z M644 127 Q644 168 628 199 L449 558 Q439 576 408 592 L644 127 Z M492 311 L379 537 L289 312 L492 311 Z M590 879 Q590 836 559.5 802 Q529 768 486 768 Q449 768 396.5 799.5 Q344 831 316 831 Q275 831 275 785 Q275 778 276 771 Q231 804 231 848 Q231 888 261.5 914.5 Q292 941 331 941 Q355 941 416 910.5 Q477 880 513 880 Q569 880 561 937 Q590 915 590 879 Z M528 851 Q525 846 515 846 Q484 846 417 879.5 Q350 913 329 913 Q307 913 287.5 895.5 Q268 878 265 856 Q271 870 291 883.5 Q311 897 326 897 Q347 897 401 869 Q455 841 491 841 Q517 841 528 851 Z " />
<glyph glyph-name="Otilde" unicode="&#xd5;" horiz-adv-x="660" d="M658 368 Q658 217 575 105 Q483 -18 337 -18 Q196 -18 104 105 Q20 218 20 364 Q20 514 105 626 Q198 749 344 749 Q485 749 576 626 Q658 514 658 368 Z M536 348 Q536 501 442 631 L445 627 Q504 502 504 349 Q504 190 446 86 Q536 198 536 348 Z M454 345 Q454 442 436 525 Q407 654 344 654 Q270 654 238 534 Q219 459 219 352 Q219 266 245 181 Q280 66 344 66 Q454 66 454 345 Z M187 69 Q96 224 96 379 Q96 515 167 638 Q122 586 94.5 509 Q67 432 67 362 Q67 207 187 69 Z M515 879 Q515 836 484.5 802 Q454 768 411 768 Q374 768 321.5 799.5 Q269 831 241 831 Q200 831 200 785 Q200 778 201 771 Q156 804 156 848 Q156 888 186.5 914.5 Q217 941 256 941 Q280 941 341 910.5 Q402 880 438 880 Q494 880 486 937 Q515 915 515 879 Z M453 851 Q450 846 440 846 Q409 846 342 879.5 Q275 913 254 913 Q232 913 212.5 895.5 Q193 878 190 856 Q196 870 216 883.5 Q236 897 251 897 Q272 897 326 869 Q380 841 416 841 Q442 841 453 851 Z " />
<glyph glyph-name="OE" unicode="&#x152;" horiz-adv-x="1005" d="M981 241 L963 -1 L909 -1 L882 45 Q801 -2 707 -2 Q662 -2 605 16 Q543 35 511 62 Q450 -18 337 -18 Q196 -18 104 105 Q20 217 20 364 Q20 514 105 626 Q198 749 344 749 Q441 749 499 685 Q601 736 685 736 Q717 736 768 720.5 Q819 705 840 705 Q877 705 883 738 L938 711 L939 556 L882 538 Q872 587 829 617 Q786 647 735 647 Q663 647 636 607 Q617 577 617 510 Q617 497 617 469 Q618 442 618 427 Q636 419 657 419 Q725 419 729 518 L799 515 Q800 507 800 494 Q800 395 756 384 Q803 349 808 272 L728 272 Q714 308 704 319 Q688 335 653 335 Q630 335 619 320 Q619 210 626 177 Q645 86 718 86 Q797 86 845 128 Q897 172 900 251 L981 241 Z M516 517 Q516 545 508 578 Q498 616 483 632 Q496 610 495 548 L495 198 Q495 118 475 97 Q516 110 516 181 L516 517 Z M454 345 Q454 442 436 525 Q407 654 344 654 Q270 654 238 534 Q219 459 219 352 Q219 266 245 181 Q280 66 344 66 Q454 66 454 345 Z M187 69 Q96 224 96 369 Q96 433 115.5 508 Q135 583 167 638 Q122 586 94.5 509 Q67 432 67 362 Q67 207 187 69 Z " />
<glyph glyph-name="quotedblleft" unicode="&#x201c;" horiz-adv-x="561" d="M499 539 Q499 498 470 468.5 Q441 439 399 439 Q359 439 330 468 Q301 497 300 539 Q298 594 336 649 Q381 714 461 739 Q424 697 411 636 Q492 635 499 539 Z M249 539 Q249 498 220 468.5 Q191 439 149 439 Q109 439 80 468 Q51 497 50 539 Q48 594 86 649 Q131 714 211 739 Q174 697 161 636 Q242 635 249 539 Z M397 609 Q348 607 339 553 Q333 512 359 495 Q345 518 355 548 Q372 595 397 609 Z M147 609 Q98 607 89 553 Q83 512 109 495 Q95 518 105 548 Q122 595 147 609 Z " />
<glyph glyph-name="quotedblright" unicode="&#x201d;" horiz-adv-x="561" d="M249 640 Q250 584 213 530 Q168 464 87 439 Q125 482 138 542 Q57 543 50 640 Q50 681 79 710 Q108 739 149 739 Q190 739 218.5 710 Q247 681 249 640 Z M157 706 Q130 708 110.5 692 Q91 676 87 648 Q86 640 86 633 Q86 600 119 581 Q104 595 104 619 Q104 631 108 642 Q125 692 157 706 Z M499 640 Q500 584 463 530 Q418 464 337 439 Q375 482 388 542 Q307 543 300 640 Q300 681 329 710 Q358 739 399 739 Q440 739 468.5 710 Q497 681 499 640 Z M407 706 Q380 708 360.5 692 Q341 676 337 648 Q336 640 336 633 Q336 600 369 581 Q354 595 354 619 Q354 631 358 642 Q375 692 407 706 Z " />
<glyph glyph-name="quoteleft" unicode="&#x2018;" horiz-adv-x="319" d="M249 539 Q249 498 220 468.5 Q191 439 149 439 Q109 439 80 468 Q51 497 50 539 Q48 594 86 649 Q131 714 211 739 Q174 697 161 636 Q242 635 249 539 Z M147 614 Q98 612 89 558 Q83 517 109 500 Q95 523 105 553 Q122 600 147 614 Z " />
<glyph glyph-name="quoteright" unicode="&#x2019;" horiz-adv-x="319" d="M249 640 Q250 584 213 530 Q168 464 87 439 Q125 482 138 542 Q57 543 50 640 Q50 681 79 710 Q108 739 149 739 Q190 739 218.5 710 Q247 681 249 640 Z M157 706 Q130 708 110.5 692 Q91 676 87 648 Q86 640 86 633 Q86 600 119 581 Q104 595 104 619 Q104 631 108 642 Q125 692 157 706 Z " />
<glyph glyph-name="Ydieresis" unicode="&#x178;" horiz-adv-x="739" d="M740 735 L739 655 Q704 654 664 623 Q631 597 608 563 L451 324 L452 141 Q452 113 478 94 Q504 75 537 77 L537 8 Q507 -2 471 -2 Q395 -2 366 53 Q320 -1 240 -1 Q210 -1 179 9 L179 75 L183 75 Q216 75 238.5 91.5 Q261 108 261 140 L261 308 L104 568 Q73 619 70 624 Q44 657 17 657 Q11 657 5 655 L5 732 Q34 739 70 739 Q157 739 186 689 Q218 737 299 737 Q320 737 343 733 L342 658 Q326 662 314 662 Q285 662 285 641 Q285 626 336 542 Q369 492 401 441 Q432 483 464 526 Q512 596 512 625 Q512 666 443 659 L442 731 Q471 736 505 736 Q589 736 608 694 Q661 738 727 736 L740 735 Z M325 156 L325 334 L167 602 Q157 619 136 639 Q112 661 96 663 Q119 654 204 506 Q255 416 306 325 Q306 325 307 297 Q308 269 308 245 Q308 108 282 91 Q325 108 325 156 Z M576 865 Q576 834 554.5 812 Q533 790 502 790 Q471 790 449 812 Q427 834 427 865 Q427 896 449 917.5 Q471 939 502 939 Q533 939 554.5 917.5 Q576 896 576 865 Z M351 865 Q351 834 329.5 812 Q308 790 277 790 Q246 790 224 812 Q202 834 202 865 Q202 896 224 917.5 Q246 939 277 939 Q308 939 329.5 917.5 Q351 896 351 865 Z M508 914 Q463 917 455 871 Q450 837 479 821 Q462 837 471 866 Q484 904 508 914 Z M283 914 Q238 917 230 871 Q225 837 254 821 Q237 837 246 866 Q259 904 283 914 Z " />
<glyph glyph-name="currency" unicode="&#xa4;" horiz-adv-x="670" d="M640 473 Q640 436 614.5 409 Q589 382 552 382 Q517 382 489.5 408 Q462 434 462 470 Q462 507 495 544 Q469 574 412 574 Q316 574 283 421 L445 421 L412 363 L274 363 Q273 331 275 311 L385 311 L352 253 L283 253 Q314 100 411 100 Q459 100 501 124 Q543 148 561 190 L623 159 Q586 92 526 53 Q462 11 389 11 Q285 11 208 82 Q135 149 113 253 L-30 253 L3 311 L105 311 Q104 334 105 363 L-30 363 L3 421 L113 421 Q135 531 211.5 596.5 Q288 662 399 662 Q489 662 560 613 Q640 559 640 473 Z M249 554 Q149 467 149 335 Q149 201 248 111 Q176 211 176 348 Q176 452 249 554 Z " />
<glyph glyph-name="guilsinglleft" unicode="&#x2039;" horiz-adv-x="328" d="M347 -25 L16 246 L347 517 L209 246 L347 -25 Z M278 425 L79 246 L96 227 L278 425 Z " />
<glyph glyph-name="guilsinglright" unicode="&#x203a;" horiz-adv-x="328" d="M347 246 L16 -25 L154 246 L16 517 L347 246 Z M234 246 L85 425 L217 227 L234 246 Z " />
<glyph glyph-name="quotesinglbase" unicode="&#x201a;" horiz-adv-x="319" d="M249 90 Q250 34 213 -20 Q168 -86 87 -111 Q125 -68 138 -8 Q57 -7 50 90 Q50 131 79 160 Q108 189 149 189 Q190 189 218.5 160 Q247 131 249 90 Z M157 156 Q130 158 110.5 142 Q91 126 87 98 Q86 90 86 83 Q86 50 119 31 Q104 45 104 69 Q104 81 108 92 Q125 142 157 156 Z " />
<glyph glyph-name="quotedblbase" unicode="&#x201e;" horiz-adv-x="561" d="M249 90 Q250 34 213 -20 Q168 -86 87 -111 Q125 -68 138 -8 Q57 -7 50 90 Q50 131 79 160 Q108 189 149 189 Q190 189 218.5 160 Q247 131 249 90 Z M157 156 Q130 158 110.5 142 Q91 126 87 98 Q86 90 86 83 Q86 50 119 31 Q104 45 104 69 Q104 81 108 92 Q125 142 157 156 Z M499 90 Q500 34 463 -20 Q418 -86 337 -111 Q375 -68 388 -8 Q307 -7 300 90 Q300 131 329 160 Q358 189 399 189 Q440 189 468.5 160 Q497 131 499 90 Z M407 156 Q380 158 360.5 142 Q341 126 337 98 Q336 90 336 83 Q336 50 369 31 Q354 45 354 69 Q354 81 358 92 Q375 142 407 156 Z " />
<glyph glyph-name="Acircumflex" unicode="&#xc2;" horiz-adv-x="855" d="M854 67 L854 -2 Q846 -4 832 -4 Q737 -4 693 51 Q638 -1 538 -1 Q521 -1 505 1 L505 67 Q536 67 561 76 Q596 88 596 112 Q596 126 578 160 Q565 182 552 205 L242 205 Q216 143 216 127 Q216 65 308 67 L308 1 Q294 -2 274 -2 Q205 -2 166 40 Q107 -4 46 -4 Q23 -4 3 5 L3 71 Q76 74 103 137 Q157 262 212 388 Q302 599 302 623 Q302 654 262 654 Q250 654 237 652 L238 732 Q258 737 286 737 Q378 737 423 677 Q443 705 484 721 Q521 736 559 736 Q580 736 601 732 L601 660 Q576 659 558 647 Q536 633 536 610 Q536 595 546 576 L773 137 Q812 62 854 67 Z M644 127 Q644 168 628 199 L449 558 Q439 576 408 592 L644 127 Z M492 311 L379 537 L289 312 L492 311 Z " />
<glyph glyph-name="Ecircumflex" unicode="&#xca;" horiz-adv-x="689" d="M661 241 L643 -1 L589 -1 L562 45 Q481 -2 387 -2 Q296 -2 232 56 Q168 -3 98 -3 Q81 -3 65 2 L65 76 Q96 76 112 113 Q125 141 125 176 L124 542 Q124 592 107 625 Q85 669 40 662 L40 735 L60 736 Q182 739 204 685 Q278 736 365 736 Q397 736 448 720.5 Q499 705 520 705 Q557 705 563 738 L618 711 L619 556 L562 538 Q552 587 509 617 Q466 647 415 647 Q343 647 316 607 Q297 577 297 510 Q297 497 297 469 Q298 442 298 427 Q316 419 337 419 Q405 419 409 518 L479 515 Q480 507 480 494 Q480 395 436 384 Q483 349 488 272 L408 272 Q394 308 384 319 Q368 335 333 335 Q310 335 299 320 Q299 210 306 177 Q325 86 398 86 Q477 86 525 128 Q577 172 580 251 L661 241 Z M191 517 Q191 545 183 578 Q173 616 158 632 Q170 611 170 548 L170 198 Q170 118 150 97 Q191 110 191 181 L191 517 Z M585 749 L362 842 L138 749 L362 972 L585 749 Z M358 928 L215 794 L356 895 L358 928 Z " />
<glyph glyph-name="Aacute" unicode="&#xc1;" horiz-adv-x="855" d="M854 67 L854 -2 Q846 -4 832 -4 Q737 -4 693 51 Q638 -1 538 -1 Q521 -1 505 1 L505 67 Q536 67 561 76 Q596 88 596 112 Q596 126 578 160 Q565 182 552 205 L242 205 Q216 143 216 127 Q216 65 308 67 L308 1 Q294 -2 274 -2 Q205 -2 166 40 Q107 -4 46 -4 Q23 -4 3 5 L3 71 Q76 74 103 137 Q157 262 212 388 Q302 599 302 623 Q302 654 262 654 Q250 654 237 652 L238 732 Q258 737 286 737 Q378 737 423 677 Q443 705 484 721 Q521 736 559 736 Q580 736 601 732 L601 660 Q576 659 558 647 Q536 633 536 610 Q536 595 546 576 L773 137 Q812 62 854 67 Z M644 127 Q644 168 628 199 L449 558 Q439 576 408 592 L644 127 Z M492 311 L379 537 L289 312 L492 311 Z " />
<glyph glyph-name="Edieresis" unicode="&#xcb;" horiz-adv-x="689" d="M661 241 L643 -1 L589 -1 L562 45 Q481 -2 387 -2 Q296 -2 232 56 Q168 -3 98 -3 Q81 -3 65 2 L65 76 Q96 76 112 113 Q125 141 125 176 L124 542 Q124 592 107 625 Q85 669 40 662 L40 735 L60 736 Q182 739 204 685 Q278 736 365 736 Q397 736 448 720.5 Q499 705 520 705 Q557 705 563 738 L618 711 L619 556 L562 538 Q552 587 509 617 Q466 647 415 647 Q343 647 316 607 Q297 577 297 510 Q297 497 297 469 Q298 442 298 427 Q316 419 337 419 Q405 419 409 518 L479 515 Q480 507 480 494 Q480 395 436 384 Q483 349 488 272 L408 272 Q394 308 384 319 Q368 335 333 335 Q310 335 299 320 Q299 210 306 177 Q325 86 398 86 Q477 86 525 128 Q577 172 580 251 L661 241 Z M191 517 Q191 545 183 578 Q173 616 158 632 Q170 611 170 548 L170 198 Q170 118 150 97 Q191 110 191 181 L191 517 Z " />
<glyph glyph-name="Egrave" unicode="&#xc8;" horiz-adv-x="689" d="M661 241 L643 -1 L589 -1 L562 45 Q481 -2 387 -2 Q296 -2 232 56 Q168 -3 98 -3 Q81 -3 65 2 L65 76 Q96 76 112 113 Q125 141 125 176 L124 542 Q124 592 107 625 Q85 669 40 662 L40 735 L60 736 Q182 739 204 685 Q278 736 365 736 Q397 736 448 720.5 Q499 705 520 705 Q557 705 563 738 L618 711 L619 556 L562 538 Q552 587 509 617 Q466 647 415 647 Q343 647 316 607 Q297 577 297 510 Q297 497 297 469 Q298 442 298 427 Q316 419 337 419 Q405 419 409 518 L479 515 Q480 507 480 494 Q480 395 436 384 Q483 349 488 272 L408 272 Q394 308 384 319 Q368 335 333 335 Q310 335 299 320 Q299 210 306 177 Q325 86 398 86 Q477 86 525 128 Q577 172 580 251 L661 241 Z M191 517 Q191 545 183 578 Q173 616 158 632 Q170 611 170 548 L170 198 Q170 118 150 97 Q191 110 191 181 L191 517 Z M199 841 L513 773 L253 960 L199 841 Z M273 878 L286 898 L433 804 L273 878 Z " />
<glyph glyph-name="Iacute" unicode="&#xcd;" horiz-adv-x="411" d="M377 659 Q345 658 324.5 637.5 Q304 617 304 585 L304 145 Q304 75 371 65 L371 1 Q357 -2 337 -2 Q251 -2 205 55 Q188 28 152 12.5 Q116 -3 82 -2 L62 -1 L62 65 Q94 67 112.5 92 Q131 117 131 150 L130 561 Q130 666 51 660 L51 727 Q74 737 106 737 Q169 737 215 689 Q253 739 330 739 Q352 739 376 733 L377 659 Z M196 191 L196 527 Q196 555 187 588 Q178 626 162 642 Q175 621 175 558 L175 208 Q175 128 155 107 Q176 114 187 143 Q196 166 196 191 Z " />
<glyph glyph-name="Icircumflex" unicode="&#xce;" horiz-adv-x="411" d="M377 659 Q345 658 324.5 637.5 Q304 617 304 585 L304 145 Q304 75 371 65 L371 1 Q357 -2 337 -2 Q251 -2 205 55 Q188 28 152 12.5 Q116 -3 82 -2 L62 -1 L62 65 Q94 67 112.5 92 Q131 117 131 150 L130 561 Q130 666 51 660 L51 727 Q74 737 106 737 Q169 737 215 689 Q253 739 330 739 Q352 739 376 733 L377 659 Z M196 191 L196 527 Q196 555 187 588 Q178 626 162 642 Q175 621 175 558 L175 208 Q175 128 155 107 Q176 114 187 143 Q196 166 196 191 Z " />
<glyph glyph-name="Idieresis" unicode="&#xcf;" horiz-adv-x="411" d="M377 659 Q345 658 324.5 637.5 Q304 617 304 585 L304 145 Q304 75 371 65 L371 1 Q357 -2 337 -2 Q251 -2 205 55 Q188 28 152 12.5 Q116 -3 82 -2 L62 -1 L62 65 Q94 67 112.5 92 Q131 117 131 150 L130 561 Q130 666 51 660 L51 727 Q74 737 106 737 Q169 737 215 689 Q253 739 330 739 Q352 739 376 733 L377 659 Z M196 191 L196 527 Q196 555 187 588 Q178 626 162 642 Q175 621 175 558 L175 208 Q175 128 155 107 Q176 114 187 143 Q196 166 196 191 Z " />
<glyph glyph-name="Igrave" unicode="&#xcc;" horiz-adv-x="411" d="M377 659 Q345 658 324.5 637.5 Q304 617 304 585 L304 145 Q304 75 371 65 L371 1 Q357 -2 337 -2 Q251 -2 205 55 Q188 28 152 12.5 Q116 -3 82 -2 L62 -1 L62 65 Q94 67 112.5 92 Q131 117 131 150 L130 561 Q130 666 51 660 L51 727 Q74 737 106 737 Q169 737 215 689 Q253 739 330 739 Q352 739 376 733 L377 659 Z M196 191 L196 527 Q196 555 187 588 Q178 626 162 642 Q175 621 175 558 L175 208 Q175 128 155 107 Q176 114 187 143 Q196 166 196 191 Z M49 841 L363 773 L103 960 L49 841 Z M123 878 L136 898 L283 804 L123 878 Z " />
<glyph glyph-name="Oacute" unicode="&#xd3;" horiz-adv-x="660" d="M658 368 Q658 217 575 105 Q483 -18 337 -18 Q196 -18 104 105 Q20 218 20 364 Q20 514 105 626 Q198 749 344 749 Q485 749 576 626 Q658 514 658 368 Z M536 348 Q536 501 442 631 L445 627 Q504 502 504 349 Q504 190 446 86 Q536 198 536 348 Z M454 345 Q454 442 436 525 Q407 654 344 654 Q270 654 238 534 Q219 459 219 352 Q219 266 245 181 Q280 66 344 66 Q454 66 454 345 Z M187 69 Q96 224 96 379 Q96 515 167 638 Q122 586 94.5 509 Q67 432 67 362 Q67 207 187 69 Z " />
<glyph glyph-name="Ocircumflex" unicode="&#xd4;" horiz-adv-x="660" d="M658 368 Q658 217 575 105 Q483 -18 337 -18 Q196 -18 104 105 Q20 218 20 364 Q20 514 105 626 Q198 749 344 749 Q485 749 576 626 Q658 514 658 368 Z M536 348 Q536 501 442 631 L445 627 Q504 502 504 349 Q504 190 446 86 Q536 198 536 348 Z M454 345 Q454 442 436 525 Q407 654 344 654 Q270 654 238 534 Q219 459 219 352 Q219 266 245 181 Q280 66 344 66 Q454 66 454 345 Z M187 69 Q96 224 96 379 Q96 515 167 638 Q122 586 94.5 509 Q67 432 67 362 Q67 207 187 69 Z " />
<glyph glyph-name="Ograve" unicode="&#xd2;" horiz-adv-x="660" d="M658 368 Q658 217 575 105 Q483 -18 337 -18 Q196 -18 104 105 Q20 218 20 364 Q20 514 105 626 Q198 749 344 749 Q485 749 576 626 Q658 514 658 368 Z M536 348 Q536 501 442 631 L445 627 Q504 502 504 349 Q504 190 446 86 Q536 198 536 348 Z M454 345 Q454 442 436 525 Q407 654 344 654 Q270 654 238 534 Q219 459 219 352 Q219 266 245 181 Q280 66 344 66 Q454 66 454 345 Z M187 69 Q96 224 96 379 Q96 515 167 638 Q122 586 94.5 509 Q67 432 67 362 Q67 207 187 69 Z M179 841 L493 773 L233 960 L179 841 Z M253 878 L266 898 L413 804 L253 878 Z " />
<glyph glyph-name="Uacute" unicode="&#xda;" horiz-adv-x="705" d="M689 655 L683 655 Q652 655 635 634.5 Q618 614 618 582 L618 204 Q618 111 539 48 Q466 -12 371 -12 Q259 -12 183 64.5 Q107 141 107 253 L107 573 Q107 612 89 637 Q68 668 31 662 L31 732 Q50 737 78 737 Q155 737 194 687 Q227 737 306 737 Q324 737 343 734 L343 662 Q311 661 291.5 638 Q272 615 272 582 L272 227 Q272 165 304.5 128.5 Q337 92 401 92 Q458 92 489 129.5 Q520 167 520 225 L520 547 Q520 595 500 625 Q476 660 431 661 L430 735 Q443 737 461 737 Q529 737 564 697 Q591 736 643 736 Q665 736 688 726 L689 655 Z M192 116 Q173 175 173 253 L174 518 Q174 588 145 636 Q149 616 149 560 L149 258 Q149 186 192 116 Z " />
<glyph glyph-name="Ucircumflex" unicode="&#xdb;" horiz-adv-x="705" d="M689 655 L683 655 Q652 655 635 634.5 Q618 614 618 582 L618 204 Q618 111 539 48 Q466 -12 371 -12 Q259 -12 183 64.5 Q107 141 107 253 L107 573 Q107 612 89 637 Q68 668 31 662 L31 732 Q50 737 78 737 Q155 737 194 687 Q227 737 306 737 Q324 737 343 734 L343 662 Q311 661 291.5 638 Q272 615 272 582 L272 227 Q272 165 304.5 128.5 Q337 92 401 92 Q458 92 489 129.5 Q520 167 520 225 L520 547 Q520 595 500 625 Q476 660 431 661 L430 735 Q443 737 461 737 Q529 737 564 697 Q591 736 643 736 Q665 736 688 726 L689 655 Z M192 116 Q173 175 173 253 L174 518 Q174 588 145 636 Q149 616 149 560 L149 258 Q149 186 192 116 Z " />
<glyph glyph-name="Ugrave" unicode="&#xd9;" horiz-adv-x="705" d="M689 655 L683 655 Q652 655 635 634.5 Q618 614 618 582 L618 204 Q618 111 539 48 Q466 -12 371 -12 Q259 -12 183 64.5 Q107 141 107 253 L107 573 Q107 612 89 637 Q68 668 31 662 L31 732 Q50 737 78 737 Q155 737 194 687 Q227 737 306 737 Q324 737 343 734 L343 662 Q311 661 291.5 638 Q272 615 272 582 L272 227 Q272 165 304.5 128.5 Q337 92 401 92 Q458 92 489 129.5 Q520 167 520 225 L520 547 Q520 595 500 625 Q476 660 431 661 L430 735 Q443 737 461 737 Q529 737 564 697 Q591 736 643 736 Q665 736 688 726 L689 655 Z M192 116 Q173 175 173 253 L174 518 Q174 588 145 636 Q149 616 149 560 L149 258 Q149 186 192 116 Z M229 841 L543 773 L283 960 L229 841 Z M303 878 L316 898 L463 804 L303 878 Z " />
<glyph glyph-name="circumflex" unicode="&#x2c6;" horiz-adv-x="689" d="M585 749 L362 842 L138 749 L362 972 L585 749 Z M358 928 L215 794 L356 895 L358 928 Z " />
<glyph glyph-name="tilde" unicode="&#x2dc;" horiz-adv-x="773" d="M575 879 Q575 836 544.5 802 Q514 768 471 768 Q434 768 381.5 799.5 Q329 831 301 831 Q260 831 260 785 Q260 778 261 771 Q216 804 216 848 Q216 888 246.5 914.5 Q277 941 316 941 Q340 941 401 910.5 Q462 880 498 880 Q554 880 546 937 Q575 915 575 879 Z M513 851 Q510 846 500 846 Q469 846 402 879.5 Q335 913 314 913 Q292 913 272.5 895.5 Q253 878 250 856 Q256 870 276 883.5 Q296 897 311 897 Q332 897 386 869 Q440 841 476 841 Q502 841 513 851 Z " />
<glyph glyph-name="cedilla" unicode="&#xb8;" horiz-adv-x="638" d="M447 -98 Q447 -140 409 -168.5 Q371 -197 315 -197 L315 -132 Q371 -132 371 -98 Q371 -63 315 -63 L315 2 Q371 2 409 -26.5 Q447 -55 447 -98 Z " />
<glyph glyph-name="ring" unicode="&#x2da;" horiz-adv-x="855" d="M527 842 Q527 796 494 763 Q461 730 415 730 Q368 730 335.5 763 Q303 796 303 842 Q303 889 335.5 921.5 Q368 954 415 954 Q461 954 494 921.5 Q527 889 527 842 Z M471 842 Q471 866 454.5 882 Q438 898 415 898 Q391 898 375 882 Q359 866 359 842 Q359 819 375 802.5 Q391 786 415 786 Q438 786 454.5 802.5 Q471 819 471 842 Z " />
</font>
</svg>
